<svg width="435" height="227" viewBox="0 0 435 227" fill="none" xmlns="http://www.w3.org/2000/svg">
<g style="mix-blend-mode:multiply" opacity="0.5">
<g style="mix-blend-mode:multiply" opacity="0.5">
<path d="M60.9824 144.714C76.4256 144.714 89.4672 156.22 93.6168 172.002C97.5611 172.654 101.319 174.143 104.636 176.369C107.953 178.594 110.753 181.505 112.845 184.903C117.021 181.157 122.429 179.07 128.045 179.036C132.237 179.12 136.334 180.29 139.935 182.433C143.536 184.575 146.515 187.616 148.58 191.255H185.926C184.664 187.691 182.569 184.478 179.816 181.881C177.063 179.283 173.729 177.377 170.091 176.318C166.453 175.259 162.615 175.078 158.893 175.791C155.171 176.503 151.673 178.088 148.686 180.415C146.511 177.391 143.739 174.842 140.539 172.926C137.34 171.009 133.781 169.766 130.082 169.273C128.713 164.63 126.33 160.348 123.105 156.733C119.88 153.117 115.892 150.259 111.428 148.364C106.964 146.468 102.135 145.582 97.2863 145.768C92.4381 145.955 87.6914 147.21 83.3872 149.444C81.5261 146.6 79.023 144.231 76.0785 142.526C73.1341 140.822 69.8301 139.828 66.4315 139.626C63.0329 139.425 59.6342 140.02 56.5076 141.364C53.3811 142.708 50.6137 144.764 48.4272 147.367C52.3785 145.611 56.6568 144.707 60.9824 144.714V144.714Z" fill="#009245"/>
</g>
</g>
<g style="mix-blend-mode:multiply" opacity="0.7">
<path d="M217.254 226.138C337.239 226.138 434.507 223.566 434.507 220.392C434.507 217.219 337.239 214.647 217.254 214.647C97.2678 214.647 0 217.219 0 220.392C0 223.566 97.2678 226.138 217.254 226.138Z" fill="#B3B3B3"/>
</g>
<path d="M172.642 89.5161C173.319 90.572 173.667 91.8046 173.642 93.058C173.617 94.3114 173.22 95.5292 172.501 96.5574C171.782 97.5856 170.773 98.3779 169.603 98.8342C168.432 99.2905 167.152 99.3902 165.924 99.1208C164.697 98.8513 163.577 98.2247 162.707 97.3204C161.836 96.416 161.254 95.2744 161.034 94.0401C160.815 92.8058 160.967 91.5342 161.472 90.3862C161.977 89.2382 162.812 88.2654 163.871 87.5908C165.29 86.6871 167.011 86.3822 168.656 86.7432C170.3 87.1043 171.734 88.1016 172.642 89.5161Z" fill="#A1BFCA"/>
<path d="M177.202 108.648C176.41 109.144 175.454 109.31 174.541 109.108C173.627 108.907 172.831 108.355 172.323 107.572L167.018 99.2638L156.043 82.0876C155.542 81.2989 155.373 80.3442 155.576 79.4322C155.778 78.5202 156.334 77.7253 157.123 77.2212C157.684 76.8574 158.338 76.6627 159.007 76.6603C159.612 76.6545 160.207 76.8016 160.739 77.088C161.271 77.3743 161.721 77.7905 162.047 78.2976L175.469 99.2638L178.326 103.812C178.811 104.604 178.964 105.555 178.754 106.459C178.543 107.363 177.986 108.149 177.202 108.648V108.648Z" fill="white"/>
<g style="mix-blend-mode:multiply">
<path d="M177.202 108.648C176.41 109.145 175.454 109.31 174.541 109.108C173.627 108.907 172.83 108.355 172.322 107.572L167.018 99.264H175.423L178.281 103.812C178.769 104.599 178.93 105.546 178.728 106.449C178.526 107.353 177.979 108.142 177.202 108.648V108.648Z" fill="#4D4D4D"/>
</g>
<path d="M174.162 114.985H112.389V99.7188L112.602 99.5824L141.147 80.9053C141.147 80.9053 160.482 85.7262 169.602 99.5824C172.617 104.153 174.204 109.514 174.162 114.985V114.985Z" fill="black"/>
<path d="M267.246 26.3292C267.246 26.3292 300.398 34.8188 304.988 81.1326L286.125 122.716H349.752L364.405 66.7761C364.405 66.7761 338.686 0.178218 267.246 26.3292Z" fill="black"/>
<path d="M119.366 105.116H349.752L304.988 180.355H169.146L119.366 119.73V105.116Z" fill="black"/>
<path d="M295.382 0.40552C261.622 -2.26264 215.962 8.48581 176.7 25.2831C133.152 43.9299 97.4169 69.9899 94.4681 93.5031C94.4681 93.7002 94.4681 93.8821 94.4681 94.0792C94.2155 96.5565 94.354 99.0579 94.8785 101.492C94.8949 101.605 94.9203 101.717 94.9545 101.826C95.6845 105.083 96.6601 108.281 97.8729 111.392L98.7545 113.59C115.171 152.854 165.452 190.603 165.452 190.603H291.718C326.101 190.603 375.44 113.802 380.684 90.6833C385.928 67.5643 363.614 5.78732 295.382 0.40552ZM339.386 92.5935C337.03 100.007 329.354 117.607 317.361 136.557C301.72 161.405 290.609 169.682 287.447 170.88H184.802C175.799 162.804 167.263 154.225 159.235 145.184C146.118 130.251 139.673 119.533 136.435 112.68C135.247 110.127 134.796 107.293 135.131 104.498C135.467 101.702 136.576 99.0554 138.335 96.8534C146.893 86.393 163.674 72.4913 187.416 59.9843C218.151 43.7783 252.594 34.1214 279.498 34.1214C282.887 34.1214 286.17 34.273 289.302 34.561C297.254 35.159 304.96 37.5847 311.817 41.6481C318.673 45.7116 324.493 51.3025 328.822 57.9832C334.871 66.877 338.697 77.0865 339.978 87.7574C340.102 89.3926 339.9 91.0361 339.386 92.5935Z" fill="white"/>
<g style="mix-blend-mode:multiply" opacity="0.5">
<path d="M349.691 85.0135C348.324 73.1628 344.157 61.805 337.531 51.8737C327.089 36.3196 312.482 27.5419 294.242 25.7834C290.837 25.4499 287.219 25.2831 283.51 25.2831C254.038 25.2831 216.326 36.0467 182.658 54.0871C156.651 68.004 138.274 83.5126 128.896 95.1555C126.965 97.6136 125.747 100.553 125.374 103.654C125.001 106.754 125.489 109.898 126.783 112.741C130.264 120.321 137.317 132.298 151.696 148.898C160.474 158.977 169.828 168.544 179.71 177.55H292.19C295.64 176.201 307.8 166.938 324.961 139.332C338.078 118.108 346.484 98.5665 349.083 90.2892C349.63 88.5873 349.837 86.7948 349.691 85.0135ZM339.386 92.5935C337.03 100.007 329.354 117.607 317.361 136.557C301.72 161.405 290.609 169.682 287.447 170.88H184.802C175.799 162.804 167.263 154.225 159.235 145.184C146.118 130.251 139.673 119.533 136.435 112.68C135.247 110.127 134.796 107.293 135.131 104.498C135.467 101.702 136.576 99.0554 138.335 96.8534C146.893 86.393 163.674 72.4913 187.416 59.9843C218.15 43.7783 252.594 34.1214 279.498 34.1214C282.887 34.1214 286.17 34.273 289.302 34.561C297.254 35.159 304.96 37.5847 311.817 41.6481C318.673 45.7116 324.493 51.3025 328.822 57.9832C334.871 66.877 338.697 77.0865 339.978 87.7574C340.102 89.3926 339.9 91.0361 339.386 92.5935V92.5935Z" fill="#A1BFCA"/>
</g>
<path d="M255.288 64.4573L263.386 67.2178L249.1 108.905L241.002 106.145C239.751 105.718 238.721 104.813 238.138 103.629C237.556 102.445 237.469 101.079 237.897 99.8311L248.972 67.5113C249.409 66.2748 250.317 65.2602 251.5 64.6882C252.683 64.1163 254.044 64.0333 255.288 64.4573V64.4573Z" fill="black"/>
<path d="M247.502 113.575C245.885 113.02 244.554 111.848 243.802 110.317C243.05 108.785 242.937 107.018 243.489 105.404L256.804 66.5487C257.36 64.9359 258.535 63.6089 260.071 62.8587C261.607 62.1084 263.378 61.9962 264.997 62.5465V62.5465C266.614 63.1014 267.944 64.2731 268.697 65.8049C269.449 67.3366 269.561 69.1033 269.01 70.7177L255.695 109.573C255.138 111.186 253.963 112.513 252.428 113.263C250.892 114.013 249.12 114.125 247.502 113.575V113.575Z" fill="white"/>
<path d="M367.521 163.254L350.284 152.642V129.751C350.284 128.05 349.607 126.419 348.401 125.216C347.195 124.014 345.56 123.338 343.854 123.338H331.694C330.98 123.338 330.276 123.508 329.641 123.835C329.006 124.163 328.46 124.637 328.046 125.218L317.406 139.999C317.087 140.363 316.768 140.742 316.464 141.151L286.231 183.69C285.149 185.209 283.717 186.448 282.057 187.303C280.396 188.157 278.554 188.603 276.686 188.602H175.058C173.272 188.599 171.51 188.187 169.908 187.399C168.306 186.61 166.906 185.466 165.817 184.054L119.442 124.233C117.348 121.548 114.451 119.598 111.172 118.666C107.892 117.734 104.4 117.868 101.202 119.048C99.788 116.016 98.9521 113.924 98.9521 113.924L87.4609 124.324L86.7009 124.612C85.468 125.1 84.3799 125.893 83.5393 126.916C82.4806 128.25 81.9024 129.899 81.8977 131.6V131.6C81.8977 131.6 52.4096 147.791 44.2016 155.326C42.1496 157.277 40.6156 159.705 39.7375 162.394C38.8593 165.082 38.6645 167.946 39.1705 170.728L39.52 172.578L42.1193 186.692C42.1193 187.086 42.2712 187.465 42.3624 187.844C43.3084 191.512 45.4486 194.763 48.4472 197.087C51.4457 199.411 55.133 200.676 58.9305 200.685H359.83C361.512 200.669 363.171 200.292 364.695 199.581C366.219 198.87 367.571 197.84 368.661 196.561C370.324 194.644 371.419 192.303 371.822 189.8L373.92 177.353C374.411 174.633 374.061 171.829 372.919 169.311C371.776 166.794 369.894 164.682 367.521 163.254V163.254Z" fill="black"/>
<path d="M48.7617 174.261V186.389C48.7577 186.814 48.5867 187.22 48.2854 187.521C47.9841 187.821 47.5766 187.992 47.1505 187.996H42.1953C42.1041 187.617 42.0281 187.238 41.9521 186.843L39.3529 172.729H47.1505C47.5661 172.725 47.9669 172.883 48.2678 173.169C48.5687 173.455 48.7459 173.846 48.7617 174.261Z" fill="#333333"/>
<path d="M85.3481 129.811L81.7913 131.631C81.7894 129.926 82.3743 128.272 83.4481 126.946C83.8552 126.881 84.267 126.851 84.6793 126.855C85.067 126.781 85.4687 126.859 85.7992 127.075C86.1297 127.291 86.3632 127.626 86.4501 128.01C86.537 128.394 86.4706 128.797 86.2649 129.133C86.0592 129.47 85.7304 129.713 85.3481 129.811V129.811Z" fill="#FBB03B"/>
<path d="M368.722 196.652C367.633 197.932 366.281 198.963 364.757 199.675C363.233 200.386 361.573 200.762 359.89 200.775H58.7633C54.6778 200.781 50.7274 199.317 47.6368 196.652H368.722Z" fill="#333333"/>
<path d="M93.1912 221.636C115.16 221.636 132.97 203.873 132.97 181.962C132.97 160.051 115.16 142.288 93.1912 142.288C71.2222 142.288 53.4128 160.051 53.4128 181.962C53.4128 203.873 71.2222 221.636 93.1912 221.636Z" fill="#1A1A1A"/>
<path d="M93.1912 217.194C112.701 217.194 128.516 201.42 128.516 181.962C128.516 162.504 112.701 146.73 93.1912 146.73C73.6819 146.73 57.8665 162.504 57.8665 181.962C57.8665 201.42 73.6819 217.194 93.1912 217.194Z" fill="black"/>
<path d="M128.455 179.779C128.523 181.092 128.523 182.407 128.455 183.72C128.366 184.777 128.5 185.84 128.848 186.842C129.196 187.844 129.752 188.762 130.478 189.536C131.204 190.311 132.085 190.925 133.065 191.338C134.044 191.752 135.099 191.956 136.162 191.937V191.937C136.595 191.937 137.016 191.785 137.349 191.508C137.682 191.231 137.907 190.847 137.986 190.421C139.978 180.03 138.276 169.272 133.173 159.998C128.07 150.724 119.885 143.515 110.027 139.61C100.169 135.706 89.2551 135.351 79.1632 138.607C69.0713 141.863 60.4331 148.525 54.7352 157.448C54.4329 157.919 54.2632 158.463 54.2437 159.022C54.2242 159.581 54.3557 160.136 54.6245 160.627C54.8932 161.118 55.2894 161.528 55.7714 161.814C56.2535 162.101 56.8038 162.252 57.3649 162.254H59.3561C60.6993 162.241 62.0241 161.941 63.2409 161.373C64.4577 160.806 65.5381 159.984 66.4089 158.964C69.9102 154.899 74.2969 151.686 79.2338 149.571C84.1707 147.456 89.5272 146.495 94.8937 146.76C112.039 147.609 127.422 162.769 128.455 179.779Z" fill="#333333"/>
<path d="M93.1912 205.52C106.237 205.52 116.812 194.973 116.812 181.962C116.812 168.951 106.237 158.403 93.1912 158.403C80.1458 158.403 69.5704 168.951 69.5704 181.962C69.5704 194.973 80.1458 205.52 93.1912 205.52Z" fill="white"/>
<path d="M114.106 181.947C114.102 187.07 112.205 192.011 108.778 195.827C105.351 199.643 100.634 202.065 95.5288 202.631C90.4238 203.197 85.2887 201.867 81.105 198.895C76.9213 195.923 73.9826 191.517 72.8505 186.52C71.7183 181.523 72.4722 176.285 74.968 171.808C77.4638 167.33 81.5265 163.927 86.3795 162.249C91.2325 160.57 96.5354 160.735 101.275 162.71C106.014 164.685 109.857 168.333 112.07 172.957C113.414 175.764 114.11 178.836 114.106 181.947V181.947Z" fill="black"/>
<path d="M109.911 190.194C110.61 190.482 111.34 190.724 112.07 190.952C109.998 195.242 106.525 198.701 102.22 200.76C102.007 200.033 101.749 199.32 101.475 198.623C99.9406 194.968 97.809 191.592 95.1673 188.632C93.8847 189.026 92.513 189.026 91.2305 188.632C88.5887 191.592 86.4572 194.968 84.9225 198.623C84.6489 199.32 84.3905 200.033 84.1777 200.76C79.8694 198.701 76.3909 195.242 74.3129 190.952C75.0577 190.724 75.8329 190.482 76.4865 190.194C80.1586 188.684 83.546 186.562 86.5033 183.917C86.1077 182.644 86.1077 181.28 86.5033 180.006C83.5406 177.361 80.1549 175.23 76.4865 173.7C75.7721 173.427 75.0577 173.169 74.3129 172.957C76.3901 168.662 79.8684 165.198 84.1777 163.133C84.3898 163.864 84.6436 164.583 84.9377 165.286C86.4619 168.943 88.5889 172.319 91.2305 175.276C92.5153 174.898 93.8825 174.898 95.1673 175.276C97.8088 172.319 99.9358 168.943 101.46 165.286C101.749 164.588 101.992 163.876 102.22 163.133C106.525 165.199 109.998 168.663 112.07 172.957C111.34 173.169 110.55 173.427 109.911 173.7C106.241 175.226 102.855 177.358 99.8945 180.006C100.275 181.282 100.275 182.641 99.8945 183.917C102.849 186.566 106.237 188.689 109.911 190.194V190.194Z" fill="#333333"/>
<path d="M97.584 181.947C97.587 182.814 97.332 183.662 96.8511 184.385C96.3703 185.107 95.6852 185.671 94.8828 186.005C94.0804 186.339 93.1967 186.428 92.3436 186.261C91.4905 186.093 90.7063 185.677 90.0905 185.065C89.4746 184.453 89.0547 183.672 88.884 182.822C88.7133 181.972 88.7994 181.09 89.1314 180.289C89.4634 179.487 90.0264 178.802 90.7492 178.32C91.4719 177.838 92.3218 177.581 93.1912 177.581C94.3536 177.581 95.4687 178.04 96.292 178.858C97.1154 179.677 97.58 180.787 97.584 181.947V181.947Z" fill="white"/>
<path d="M94.8024 181.947C94.8243 182.17 94.799 182.395 94.7283 182.608C94.6577 182.821 94.5432 183.016 94.3921 183.182C94.2411 183.348 94.0569 183.481 93.8514 183.572C93.6459 183.663 93.4236 183.71 93.1989 183.71C92.9741 183.71 92.7518 183.663 92.5463 183.572C92.3408 183.481 92.1566 183.348 92.0056 183.182C91.8546 183.016 91.74 182.821 91.6693 182.608C91.5987 182.395 91.5734 182.17 91.5952 181.947C91.6341 181.549 91.8198 181.181 92.1162 180.913C92.4127 180.644 92.7986 180.496 93.1989 180.496C93.5991 180.496 93.985 180.644 94.2815 180.913C94.5779 181.181 94.7636 181.549 94.8024 181.947V181.947Z" fill="#333333"/>
<g style="mix-blend-mode:multiply" opacity="0.7">
<path d="M109.911 173.7C110.61 173.427 111.34 173.169 112.07 172.957C109.998 168.663 106.525 165.199 102.22 163.133C101.992 163.876 101.749 164.649 101.46 165.286C105.124 167.093 108.093 170.048 109.911 173.7V173.7ZM101.475 198.623C101.749 199.32 102.007 200.033 102.22 200.76C106.525 198.701 109.998 195.242 112.07 190.952C111.34 190.724 110.55 190.482 109.911 190.194C108.095 193.845 105.133 196.805 101.475 198.623V198.623ZM74.3129 172.957C75.0577 173.169 75.8329 173.427 76.4865 173.7C78.2964 170.042 81.2675 167.084 84.9377 165.286C84.6436 164.583 84.3898 163.864 84.1777 163.133C79.8684 165.198 76.3901 168.662 74.3129 172.957V172.957ZM76.4865 190.194C75.7721 190.482 75.0577 190.724 74.3129 190.952C76.3909 195.242 79.8694 198.701 84.1777 200.76C84.3905 200.033 84.6489 199.32 84.9225 198.623C81.2589 196.813 78.2944 193.851 76.4865 190.194V190.194Z" fill="#4D4D4D"/>
</g>
<path d="M355.999 221.636C377.968 221.636 395.778 203.873 395.778 181.962C395.778 160.051 377.968 142.288 355.999 142.288C334.03 142.288 316.221 160.051 316.221 181.962C316.221 203.873 334.03 221.636 355.999 221.636Z" fill="#1A1A1A"/>
<path d="M355.999 217.194C375.509 217.194 391.324 201.42 391.324 181.962C391.324 162.504 375.509 146.73 355.999 146.73C336.49 146.73 320.674 162.504 320.674 181.962C320.674 201.42 336.49 217.194 355.999 217.194Z" fill="black"/>
<path d="M320.75 179.779C320.674 181.091 320.674 182.408 320.75 183.72C320.826 184.775 320.682 185.834 320.327 186.831C319.973 187.828 319.415 188.74 318.69 189.512C317.965 190.284 317.088 190.897 316.114 191.315C315.139 191.732 314.089 191.944 313.029 191.937C312.597 191.936 312.179 191.784 311.848 191.507C311.517 191.23 311.295 190.845 311.22 190.421C309.237 180.035 310.944 169.285 316.047 160.018C321.15 150.752 329.331 143.548 339.182 139.645C349.034 135.743 359.941 135.385 370.028 138.634C380.116 141.883 388.753 148.536 394.455 157.448C394.762 157.917 394.936 158.461 394.959 159.02C394.981 159.58 394.852 160.136 394.584 160.628C394.316 161.121 393.92 161.532 393.437 161.818C392.954 162.104 392.402 162.255 391.841 162.254H389.85C388.506 162.243 387.18 161.944 385.963 161.376C384.746 160.808 383.666 159.986 382.797 158.964C379.294 154.901 374.907 151.689 369.97 149.574C365.034 147.459 359.678 146.497 354.312 146.76C337.151 147.609 321.784 162.769 320.75 179.779Z" fill="#333333"/>
<path d="M355.999 205.52C369.045 205.52 379.62 194.973 379.62 181.962C379.62 168.951 369.045 158.403 355.999 158.403C342.954 158.403 332.379 168.951 332.379 181.962C332.379 194.973 342.954 205.52 355.999 205.52Z" fill="white"/>
<path d="M335.099 181.947C335.104 187.07 337.001 192.011 340.428 195.827C343.855 199.643 348.572 202.065 353.677 202.631C358.782 203.197 363.917 201.867 368.101 198.895C372.284 195.923 375.223 191.517 376.355 186.52C377.487 181.523 376.733 176.285 374.238 171.808C371.742 167.33 367.679 163.927 362.826 162.249C357.973 160.57 352.67 160.735 347.931 162.71C343.192 164.685 339.349 168.333 337.136 172.957C335.792 175.764 335.096 178.836 335.099 181.947Z" fill="black"/>
<path d="M349.311 183.993C345.797 187.162 341.654 189.559 337.151 191.028C339.218 195.325 342.692 198.79 347.001 200.851C348.474 196.361 350.877 192.229 354.054 188.723C355.341 189.087 356.704 189.087 357.99 188.723C361.167 192.229 363.57 196.361 365.043 200.851C369.352 198.79 372.826 195.325 374.893 191.028C370.39 189.559 366.247 187.162 362.733 183.993C363.112 182.712 363.112 181.348 362.733 180.067C366.243 176.893 370.387 174.496 374.893 173.033C372.826 168.735 369.352 165.27 365.043 163.209C363.564 167.697 361.162 171.828 357.99 175.337C356.706 174.958 355.338 174.958 354.054 175.337C350.882 171.828 348.48 167.697 347.001 163.209C342.692 165.27 339.218 168.735 337.151 173.033C341.657 174.496 345.801 176.893 349.311 180.067C348.932 181.348 348.932 182.712 349.311 183.993V183.993Z" fill="#333333"/>
<g style="mix-blend-mode:multiply" opacity="0.7">
<g style="mix-blend-mode:multiply" opacity="0.7">
<path d="M372.719 173.7C373.434 173.427 374.148 173.169 374.878 172.957C372.806 168.663 369.333 165.199 365.028 163.133C364.8 163.876 364.557 164.649 364.268 165.286C367.932 167.093 370.901 170.048 372.719 173.7V173.7ZM364.283 198.623C364.557 199.32 364.815 200.033 365.028 200.775C369.33 198.705 372.802 195.243 374.878 190.952C374.148 190.724 373.434 190.482 372.719 190.194C370.908 193.848 367.944 196.809 364.283 198.623ZM337.136 172.957C337.866 173.169 338.58 173.427 339.295 173.7C341.113 170.048 344.082 167.093 347.746 165.286C347.452 164.583 347.198 163.864 346.986 163.133C342.677 165.194 339.203 168.66 337.136 172.957V172.957ZM339.295 190.194C338.58 190.482 337.866 190.724 337.136 190.952C339.208 195.245 342.681 198.709 346.986 200.775C347.199 200.033 347.457 199.259 347.731 198.623C344.07 196.809 341.106 193.848 339.295 190.194V190.194Z" fill="#4D4D4D"/>
</g>
</g>
<path d="M351.622 181.946C351.619 182.814 351.874 183.663 352.356 184.386C352.837 185.109 353.523 185.673 354.326 186.006C355.13 186.34 356.014 186.428 356.868 186.259C357.721 186.091 358.505 185.673 359.121 185.06C359.736 184.446 360.155 183.664 360.324 182.813C360.493 181.961 360.404 181.079 360.07 180.278C359.736 179.477 359.17 178.793 358.446 178.312C357.721 177.832 356.869 177.577 355.999 177.58C354.838 177.58 353.725 178.04 352.904 178.859C352.083 179.678 351.622 180.788 351.622 181.946V181.946Z" fill="white"/>
<path d="M354.403 181.946C354.385 182.268 354.464 182.588 354.63 182.864C354.796 183.141 355.042 183.361 355.335 183.496C355.629 183.631 355.956 183.675 356.275 183.623C356.593 183.57 356.889 183.423 357.123 183.201C357.357 182.979 357.518 182.692 357.587 182.377C357.655 182.062 357.627 181.733 357.505 181.435C357.384 181.136 357.176 180.881 356.907 180.701C356.639 180.522 356.322 180.428 355.999 180.43C355.59 180.434 355.197 180.592 354.901 180.874C354.604 181.155 354.426 181.539 354.403 181.946V181.946Z" fill="#333333"/>
<path d="M342.988 132.298H334.218C333.847 132.298 333.491 132.151 333.229 131.889C332.967 131.627 332.819 131.273 332.819 130.903V130.903C332.823 130.536 332.972 130.185 333.234 129.926C333.496 129.668 333.849 129.523 334.218 129.523H342.988C343.355 129.523 343.707 129.669 343.966 129.927C344.225 130.186 344.371 130.537 344.371 130.903V130.903C344.371 131.27 344.226 131.623 343.967 131.884C343.708 132.145 343.356 132.294 342.988 132.298Z" fill="white" stroke="#231F20" stroke-width="0.5" stroke-miterlimit="10"/>
<path d="M142.105 105.161H129.656C129.076 105.159 128.501 105.272 127.964 105.492C127.428 105.712 126.94 106.035 126.529 106.444C126.118 106.852 125.792 107.337 125.57 107.872C125.347 108.406 125.233 108.979 125.233 109.558V117.229C125.237 118.704 125.717 120.139 126.601 121.322L137.484 135.936C137.896 136.49 138.432 136.94 139.05 137.251C139.667 137.562 140.349 137.724 141.041 137.725H152.775L142.105 105.161Z" fill="black"/>
<path d="M326.846 110.149L318.683 147.079C316.418 157.342 308.043 164.573 298.27 164.573H238.99C237.443 164.569 235.906 164.334 234.43 163.876L148.747 137.134C144.779 135.794 141.232 133.44 138.461 130.307C135.69 127.173 133.791 123.369 132.955 119.275L130.918 110.179C130.65 108.993 130.682 107.758 131.009 106.586C131.336 105.25 132.095 104.058 133.169 103.194C134.244 102.331 135.573 101.845 136.952 101.811H320.872C322.25 101.85 323.577 102.338 324.65 103.201C325.723 104.063 326.484 105.252 326.815 106.586C327.121 107.753 327.131 108.977 326.846 110.149Z" fill="white"/>
<path d="M238.99 151.399C238.592 151.399 238.198 151.338 237.819 151.217L152.137 124.475C149.796 123.747 147.303 119.927 145.859 117.335C145.709 117.108 145.623 116.845 145.61 116.573C145.597 116.302 145.658 116.032 145.785 115.792C145.912 115.552 146.102 115.35 146.335 115.208C146.567 115.066 146.833 114.989 147.106 114.985H309.153C309.641 115.008 310.118 115.139 310.549 115.369C310.98 115.599 311.355 115.921 311.646 116.313C311.937 116.704 312.137 117.156 312.231 117.634C312.326 118.112 312.313 118.605 312.193 119.078L306.66 144.047C306.317 146.045 305.297 147.866 303.77 149.204C302.242 150.542 300.301 151.317 298.27 151.399H238.99Z" fill="black"/>
<path d="M315.02 115.895L313.166 124.475C312.991 125.295 312.54 126.03 311.887 126.557C311.234 127.084 310.419 127.372 309.578 127.371H300.747C296.963 127.371 293.236 126.445 289.894 124.672L279.604 119.184C279.199 118.972 278.889 118.615 278.738 118.184L278.084 116.365C277.987 116.088 277.958 115.793 277.998 115.503C278.039 115.213 278.149 114.937 278.319 114.698C278.488 114.459 278.713 114.264 278.973 114.13C279.234 113.995 279.523 113.924 279.817 113.924H313.424C313.667 113.925 313.907 113.981 314.126 114.086C314.344 114.191 314.537 114.344 314.69 114.532C314.843 114.721 314.951 114.941 315.008 115.176C315.066 115.412 315.07 115.657 315.02 115.895V115.895Z" fill="#A1BFCA"/>
<g style="mix-blend-mode:multiply" opacity="0.5">
<path d="M326.162 105.161C325.661 104.178 324.902 103.349 323.964 102.764C323.027 102.179 321.947 101.86 320.842 101.841H136.922C135.816 101.86 134.736 102.179 133.799 102.764C132.862 103.349 132.102 104.178 131.602 105.161H326.162Z" fill="#A1BFCA"/>
</g>
<path d="M98.6784 113.53L97.7968 111.331C96.584 108.221 95.6084 105.023 94.8784 101.765L111.097 95.2314C111.097 95.2314 111.416 104.464 98.6784 113.53Z" fill="black"/>
<path d="M184.558 33.5301C128.318 56.4066 106.947 89.3644 106.947 89.3644L94.468 93.4425C97.4168 69.9899 133.152 43.9299 176.7 25.2224H182.962C183.99 25.1784 184.999 25.5044 185.806 26.1408C186.612 26.7772 187.163 27.6817 187.356 28.6892C187.55 29.6966 187.374 30.7399 186.86 31.6286C186.346 32.5173 185.529 33.1922 184.558 33.5301V33.5301Z" fill="black"/>
</svg>
