<svg width="612" height="375" viewBox="0 0 612 375" fill="none" xmlns="http://www.w3.org/2000/svg">
<path d="M305.64 308.999C427.363 308.999 532.456 316.686 581.605 327.808C585.273 309.846 587.114 291.559 587.098 273.226C587.098 122.328 463.453 0 310.936 0C158.419 0 34.7737 122.328 34.7737 273.226C34.7764 290.865 36.4995 308.461 39.9187 325.765C92.5181 315.718 191.8 308.999 305.64 308.999Z" fill="url(#paint0_linear_109_1245)"/>
<path opacity="0.2" d="M305.639 375C474.44 375 611.279 360.217 611.279 341.982C611.279 323.746 474.44 308.963 305.639 308.963C136.839 308.963 0 323.746 0 341.982C0 360.217 136.839 375 305.639 375Z" fill="url(#paint1_linear_109_1245)"/>
<path opacity="0.2" d="M211.033 364.74C317.304 364.74 403.454 355.432 403.454 343.949C403.454 332.466 317.304 323.157 211.033 323.157C104.762 323.157 18.6125 332.466 18.6125 343.949C18.6125 355.432 104.762 364.74 211.033 364.74Z" fill="black"/>
<path opacity="0.2" d="M487.74 343.843C542.63 343.843 587.128 339.04 587.128 333.114C587.128 327.189 542.63 322.385 487.74 322.385C432.849 322.385 388.352 327.189 388.352 333.114C388.352 339.04 432.849 343.843 487.74 343.843Z" fill="black"/>
<path d="M525.177 131.387H458.474V335.672H552.854V159.125C552.858 151.777 549.945 144.729 544.755 139.528C539.566 134.327 532.524 131.399 525.177 131.387Z" fill="#2F998F"/>
<path d="M490.648 98.195C489.733 98.195 488.958 97.9913 488.321 97.584C487.684 97.1723 487.203 96.6003 486.878 95.868C486.553 95.1357 486.39 94.2863 486.39 93.32C486.39 92.3537 486.553 91.5043 486.878 90.772C487.203 90.0397 487.684 89.4698 488.321 89.0625C488.958 88.6508 489.733 88.445 490.648 88.445C491.709 88.445 492.582 88.7202 493.267 89.2705C493.956 89.8208 494.426 90.5813 494.678 91.552L493.904 91.7405C493.696 90.9345 493.315 90.3062 492.76 89.8555C492.21 89.4048 491.506 89.1795 490.648 89.1795C489.889 89.1795 489.252 89.3572 488.737 89.7125C488.221 90.0635 487.833 90.5575 487.573 91.1945C487.317 91.8272 487.19 92.5617 487.19 93.398C487.19 94.2083 487.322 94.919 487.586 95.53C487.85 96.1367 488.24 96.6112 488.756 96.9535C489.276 97.2915 489.907 97.4605 490.648 97.4605C491.506 97.4605 492.21 97.2352 492.76 96.7845C493.315 96.3338 493.696 95.7055 493.904 94.8995L494.678 95.088C494.426 96.0587 493.956 96.8192 493.267 97.3695C492.582 97.9198 491.709 98.195 490.648 98.195ZM498.981 98.195C498.301 98.195 497.713 98.039 497.219 97.727C496.73 97.415 496.355 96.9795 496.095 96.4205C495.839 95.8572 495.711 95.2093 495.711 94.477C495.711 93.7447 495.841 93.1012 496.101 92.5465C496.366 91.9875 496.743 91.5542 497.232 91.2465C497.726 90.9388 498.309 90.785 498.981 90.785C499.666 90.785 500.253 90.941 500.742 91.253C501.236 91.5607 501.611 91.994 501.867 92.553C502.123 93.1077 502.25 93.749 502.25 94.477C502.25 95.218 502.12 95.868 501.86 96.427C501.605 96.986 501.23 97.4215 500.736 97.7335C500.246 98.0412 499.661 98.195 498.981 98.195ZM498.981 97.467C499.523 97.467 499.978 97.3435 500.346 97.0965C500.714 96.8452 500.989 96.4963 501.171 96.05C501.358 95.6037 501.451 95.0793 501.451 94.477C501.451 93.554 501.241 92.8303 500.82 92.306C500.4 91.7773 499.787 91.513 498.981 91.513C498.435 91.513 497.978 91.6365 497.609 91.8835C497.241 92.1305 496.966 92.4772 496.784 92.9235C496.602 93.3655 496.511 93.8833 496.511 94.477C496.511 95.0837 496.604 95.6123 496.79 96.063C496.981 96.5093 497.261 96.856 497.629 97.103C497.997 97.3457 498.448 97.467 498.981 97.467ZM510.48 90.7915C510.935 90.7915 511.338 90.889 511.689 91.084C512.04 91.2747 512.31 91.5498 512.501 91.9095C512.696 92.2692 512.794 92.6895 512.794 93.1705L512.781 98H512.033L512.046 93.281C512.046 92.9127 511.972 92.592 511.825 92.319C511.678 92.0417 511.476 91.8293 511.221 91.682C510.965 91.5347 510.677 91.461 510.356 91.461C510.061 91.461 509.782 91.5282 509.518 91.6625C509.253 91.7925 509.037 92.0027 508.868 92.293C508.699 92.5833 508.614 92.9538 508.614 93.4045L508.601 98H507.86L507.873 93.3525C507.873 92.9712 507.802 92.6375 507.659 92.3515C507.516 92.0655 507.314 91.8467 507.054 91.695C506.798 91.539 506.502 91.461 506.164 91.461C505.821 91.461 505.518 91.5412 505.254 91.7015C504.994 91.8618 504.79 92.0893 504.643 92.384C504.5 92.6787 504.428 93.0188 504.428 93.4045V98H503.681V90.98H504.363V91.7145C504.58 91.4242 504.857 91.1988 505.195 91.0385C505.533 90.8738 505.908 90.7915 506.32 90.7915C506.779 90.7915 507.188 90.8933 507.548 91.097C507.912 91.3007 508.185 91.5997 508.367 91.994C508.566 91.617 508.85 91.3223 509.219 91.11C509.591 90.8977 510.012 90.7915 510.48 90.7915ZM517.63 90.785C518.25 90.785 518.787 90.9453 519.242 91.266C519.697 91.5867 520.044 92.0287 520.282 92.592C520.525 93.151 520.646 93.7793 520.646 94.477C520.646 95.1877 520.525 95.8247 520.282 96.388C520.04 96.947 519.686 97.389 519.223 97.714C518.759 98.0347 518.204 98.195 517.559 98.195C517.052 98.195 516.601 98.0845 516.207 97.8635C515.812 97.6382 515.487 97.324 515.232 96.921V101.12H514.484V90.98H515.167V92.15C515.422 91.7167 515.758 91.3808 516.174 91.1425C516.59 90.9042 517.076 90.785 517.63 90.785ZM517.513 97.48C518.016 97.48 518.441 97.35 518.787 97.09C519.138 96.83 519.403 96.4747 519.58 96.024C519.758 95.569 519.847 95.0533 519.847 94.477C519.847 93.9007 519.76 93.3893 519.587 92.943C519.413 92.4923 519.151 92.1392 518.8 91.8835C518.449 91.6278 518.016 91.5 517.5 91.5C516.998 91.5 516.571 91.6257 516.22 91.877C515.869 92.1283 515.604 92.4793 515.427 92.93C515.253 93.3763 515.167 93.892 515.167 94.477C515.167 95.062 515.253 95.582 515.427 96.037C515.604 96.4877 515.869 96.8408 516.22 97.0965C516.571 97.3522 517.002 97.48 517.513 97.48ZM527.335 92.2215C527.46 92.5508 527.523 93.0188 527.523 93.6255V98H526.841V96.778C526.572 97.233 526.201 97.584 525.729 97.831C525.257 98.0737 524.715 98.195 524.104 98.195C523.584 98.195 523.142 98.1018 522.778 97.9155C522.414 97.7292 522.141 97.48 521.959 97.168C521.777 96.8517 521.686 96.505 521.686 96.128C521.686 95.569 521.853 95.1248 522.187 94.7955C522.525 94.4662 522.973 94.2365 523.532 94.1065C523.909 94.0242 524.31 93.9527 524.735 93.892C525.164 93.8313 525.699 93.7598 526.34 93.6775C526.401 93.6688 526.468 93.6623 526.542 93.658C526.615 93.6493 526.693 93.6385 526.776 93.6255C526.776 92.8975 526.62 92.3623 526.308 92.02C525.996 91.6777 525.48 91.5065 524.761 91.5065C523.669 91.5065 522.988 91.9983 522.72 92.982L521.953 92.7675C522.113 92.1305 522.436 91.6408 522.921 91.2985C523.406 90.9562 524.028 90.785 524.787 90.785C525.428 90.785 525.97 90.9107 526.412 91.162C526.854 91.4133 527.161 91.7665 527.335 92.2215ZM524.143 97.506C524.611 97.506 525.027 97.4215 525.391 97.2525C525.755 97.0792 526.048 96.8387 526.269 96.531C526.494 96.219 526.637 95.8528 526.698 95.4325C526.75 95.1508 526.776 94.7782 526.776 94.3145L526.509 94.3405C525.85 94.4098 525.317 94.4727 524.91 94.529C524.503 94.5853 524.128 94.6568 523.786 94.7435C523.409 94.8432 523.092 95.0035 522.837 95.2245C522.581 95.4412 522.453 95.7445 522.453 96.1345C522.453 96.3685 522.509 96.5895 522.622 96.7975C522.735 97.0055 522.917 97.1767 523.168 97.311C523.424 97.441 523.749 97.506 524.143 97.506ZM530.387 91.4675C530.582 91.2855 530.821 91.1468 531.102 91.0515C531.388 90.9562 531.672 90.9085 531.954 90.9085C532.149 90.9085 532.331 90.9323 532.5 90.98V91.6885C532.305 91.6452 532.121 91.6235 531.947 91.6235C531.479 91.6235 531.076 91.7665 530.738 92.0525C530.513 92.2475 530.344 92.4793 530.231 92.748C530.119 93.0123 530.045 93.2853 530.01 93.567C529.98 93.8487 529.965 94.1672 529.965 94.5225V98H529.211V90.98H529.893V92.085C530.036 91.8337 530.201 91.6278 530.387 91.4675ZM534.019 94.7045C534.054 95.5842 534.284 96.2645 534.708 96.7455C535.137 97.2265 535.729 97.467 536.483 97.467C537.02 97.467 537.493 97.3413 537.9 97.09C538.307 96.8387 538.63 96.4747 538.868 95.998L539.544 96.297C539.263 96.8993 538.855 97.3673 538.322 97.701C537.789 98.0303 537.181 98.195 536.496 98.195C535.829 98.195 535.248 98.0455 534.754 97.7465C534.26 97.4432 533.879 97.0142 533.61 96.4595C533.346 95.9048 533.213 95.2527 533.213 94.503C533.213 93.7403 533.346 93.0795 533.61 92.5205C533.874 91.9615 534.251 91.5325 534.741 91.2335C535.235 90.9345 535.816 90.785 536.483 90.785C537.163 90.785 537.746 90.941 538.231 91.253C538.717 91.5607 539.083 92.0092 539.33 92.5985C539.581 93.1878 539.703 93.8898 539.694 94.7045H534.019ZM536.496 91.4935C535.772 91.4935 535.198 91.7145 534.773 92.1565C534.349 92.5942 534.102 93.2182 534.032 94.0285H538.888C538.814 93.2008 538.574 92.5725 538.166 92.1435C537.759 91.7102 537.202 91.4935 536.496 91.4935ZM490.089 114.195C489.452 114.195 488.873 114.089 488.353 113.876C487.837 113.664 487.411 113.363 487.073 112.973C486.739 112.579 486.518 112.115 486.41 111.582L487.177 111.452C487.285 111.868 487.476 112.228 487.749 112.531C488.022 112.83 488.36 113.062 488.763 113.226C489.17 113.387 489.618 113.467 490.108 113.467C490.606 113.467 491.048 113.387 491.434 113.226C491.824 113.066 492.127 112.839 492.344 112.544C492.561 112.249 492.669 111.909 492.669 111.523C492.669 111.181 492.587 110.897 492.422 110.672C492.262 110.447 492.069 110.275 491.844 110.158C491.623 110.041 491.373 109.942 491.096 109.859L488.743 109.157C487.43 108.767 486.774 108.035 486.774 106.96C486.774 106.466 486.906 106.029 487.17 105.647C487.439 105.266 487.811 104.971 488.288 104.763C488.765 104.551 489.304 104.445 489.907 104.445C490.518 104.445 491.068 104.558 491.558 104.783C492.052 105.008 492.455 105.327 492.767 105.738C493.083 106.15 493.287 106.631 493.378 107.181L492.604 107.318C492.543 106.893 492.387 106.521 492.136 106.2C491.885 105.875 491.562 105.624 491.168 105.446C490.778 105.268 490.349 105.179 489.881 105.179C489.439 105.179 489.042 105.257 488.691 105.413C488.34 105.565 488.065 105.775 487.866 106.044C487.671 106.308 487.573 106.605 487.573 106.934C487.573 107.255 487.66 107.522 487.833 107.734C488.011 107.942 488.223 108.104 488.47 108.221C488.717 108.334 489.007 108.438 489.341 108.533L491.226 109.092C491.59 109.201 491.924 109.331 492.227 109.482C492.535 109.634 492.81 109.877 493.053 110.21C493.3 110.54 493.423 110.969 493.423 111.497C493.423 112.048 493.282 112.527 493.001 112.934C492.719 113.341 492.327 113.653 491.824 113.87C491.321 114.087 490.743 114.195 490.089 114.195ZM496.29 107.662V111.549V111.933C496.29 112.15 496.299 112.323 496.316 112.453C496.333 112.579 496.372 112.698 496.433 112.81C496.541 113.018 496.695 113.17 496.895 113.265C497.094 113.356 497.345 113.402 497.649 113.402C497.891 113.402 498.164 113.376 498.468 113.324V114C498.169 114.065 497.87 114.098 497.571 114.098C497.146 114.098 496.773 114.024 496.453 113.876C496.132 113.725 495.898 113.491 495.751 113.174C495.66 112.984 495.601 112.791 495.575 112.596C495.549 112.397 495.536 112.141 495.536 111.829V111.562V107.662H493.963V106.98H495.536V105.03H496.29V106.98H498.468V107.662H496.29ZM505.067 108.221C505.193 108.551 505.255 109.019 505.255 109.625V114H504.573V112.778C504.304 113.233 503.934 113.584 503.461 113.831C502.989 114.074 502.447 114.195 501.836 114.195C501.316 114.195 500.874 114.102 500.51 113.915C500.146 113.729 499.873 113.48 499.691 113.168C499.509 112.852 499.418 112.505 499.418 112.128C499.418 111.569 499.585 111.125 499.919 110.795C500.257 110.466 500.705 110.236 501.264 110.106C501.641 110.024 502.042 109.953 502.467 109.892C502.896 109.831 503.431 109.76 504.072 109.677C504.133 109.669 504.2 109.662 504.274 109.658C504.348 109.649 504.426 109.638 504.508 109.625C504.508 108.897 504.352 108.362 504.04 108.02C503.728 107.678 503.212 107.506 502.493 107.506C501.401 107.506 500.721 107.998 500.452 108.982L499.685 108.767C499.845 108.13 500.168 107.641 500.653 107.298C501.139 106.956 501.761 106.785 502.519 106.785C503.16 106.785 503.702 106.911 504.144 107.162C504.586 107.413 504.894 107.766 505.067 108.221ZM501.875 113.506C502.343 113.506 502.759 113.421 503.123 113.252C503.487 113.079 503.78 112.839 504.001 112.531C504.226 112.219 504.369 111.853 504.43 111.432C504.482 111.151 504.508 110.778 504.508 110.314L504.241 110.34C503.583 110.41 503.05 110.473 502.642 110.529C502.235 110.585 501.86 110.657 501.518 110.743C501.141 110.843 500.825 111.003 500.569 111.224C500.313 111.441 500.185 111.744 500.185 112.134C500.185 112.368 500.242 112.589 500.354 112.797C500.467 113.005 500.649 113.177 500.9 113.311C501.156 113.441 501.481 113.506 501.875 113.506ZM508.49 107.662V111.549V111.933C508.49 112.15 508.499 112.323 508.516 112.453C508.534 112.579 508.573 112.698 508.633 112.81C508.742 113.018 508.895 113.17 509.095 113.265C509.294 113.356 509.545 113.402 509.849 113.402C510.091 113.402 510.364 113.376 510.668 113.324V114C510.369 114.065 510.07 114.098 509.771 114.098C509.346 114.098 508.973 114.024 508.653 113.876C508.332 113.725 508.098 113.491 507.951 113.174C507.86 112.984 507.801 112.791 507.775 112.596C507.749 112.397 507.736 112.141 507.736 111.829V111.562V107.662H506.163V106.98H507.736V105.03H508.49V106.98H510.668V107.662H508.49ZM512.886 105.563H512.139V104.607H512.886V105.563ZM512.886 114H512.139V106.98H512.886V114ZM517.719 114.195C517.039 114.195 516.452 114.039 515.958 113.727C515.468 113.415 515.093 112.979 514.833 112.42C514.578 111.857 514.45 111.209 514.45 110.477C514.45 109.745 514.58 109.101 514.84 108.546C515.104 107.987 515.481 107.554 515.971 107.246C516.465 106.939 517.048 106.785 517.719 106.785C518.404 106.785 518.991 106.941 519.481 107.253C519.975 107.561 520.35 107.994 520.605 108.553C520.861 109.108 520.989 109.749 520.989 110.477C520.989 111.218 520.859 111.868 520.599 112.427C520.343 112.986 519.968 113.421 519.474 113.733C518.985 114.041 518.4 114.195 517.719 114.195ZM517.719 113.467C518.261 113.467 518.716 113.343 519.084 113.096C519.453 112.845 519.728 112.496 519.91 112.05C520.096 111.604 520.189 111.079 520.189 110.477C520.189 109.554 519.979 108.83 519.559 108.306C519.138 107.777 518.525 107.513 517.719 107.513C517.173 107.513 516.716 107.636 516.348 107.883C515.979 108.13 515.704 108.477 515.522 108.923C515.34 109.365 515.249 109.883 515.249 110.477C515.249 111.084 515.342 111.612 515.529 112.063C515.719 112.509 515.999 112.856 516.367 113.103C516.736 113.346 517.186 113.467 517.719 113.467ZM525.487 106.817C526.111 106.817 526.633 106.965 527.053 107.259C527.478 107.554 527.794 107.955 528.002 108.462C528.21 108.965 528.314 109.53 528.314 110.158V114H527.56V110.347C527.56 109.446 527.378 108.752 527.014 108.267C526.655 107.782 526.113 107.539 525.389 107.539C524.653 107.539 524.098 107.782 523.725 108.267C523.357 108.752 523.173 109.4 523.173 110.21V114H522.419V106.98H523.101V108.033C523.357 107.63 523.691 107.327 524.102 107.123C524.514 106.919 524.975 106.817 525.487 106.817ZM532.591 114.182C532.054 114.182 531.575 114.106 531.155 113.954C530.735 113.798 530.392 113.575 530.128 113.285C529.864 112.99 529.69 112.641 529.608 112.238L530.375 112.108C530.488 112.529 530.743 112.862 531.142 113.109C531.545 113.352 532.039 113.473 532.624 113.473C533.01 113.473 533.345 113.419 533.631 113.311C533.917 113.198 534.136 113.038 534.288 112.83C534.444 112.618 534.522 112.371 534.522 112.089C534.522 111.842 534.468 111.647 534.359 111.504C534.251 111.361 534.047 111.229 533.748 111.107C533.454 110.982 532.986 110.832 532.344 110.659C531.677 110.481 531.164 110.308 530.804 110.139C530.449 109.966 530.195 109.771 530.043 109.554C529.896 109.337 529.822 109.064 529.822 108.735C529.822 108.354 529.933 108.016 530.154 107.721C530.375 107.426 530.685 107.197 531.083 107.032C531.482 106.867 531.939 106.785 532.455 106.785C532.971 106.785 533.436 106.872 533.852 107.045C534.273 107.214 534.611 107.452 534.866 107.76C535.122 108.068 535.269 108.421 535.308 108.819L534.541 108.962C534.494 108.663 534.372 108.403 534.177 108.182C533.982 107.961 533.729 107.792 533.417 107.675C533.109 107.554 532.758 107.493 532.364 107.493C532.017 107.493 531.71 107.545 531.441 107.649C531.172 107.749 530.962 107.89 530.81 108.072C530.663 108.254 530.589 108.462 530.589 108.696C530.589 108.908 530.65 109.086 530.771 109.229C530.893 109.368 531.101 109.498 531.395 109.619C531.694 109.74 532.126 109.872 532.689 110.015C533.374 110.189 533.902 110.366 534.275 110.548C534.648 110.73 534.912 110.943 535.068 111.185C535.228 111.424 535.308 111.727 535.308 112.095C535.308 112.529 535.2 112.901 534.983 113.213C534.767 113.525 534.453 113.766 534.041 113.935C533.634 114.1 533.15 114.182 532.591 114.182Z" fill="#184D48"/>
<path d="M486.257 335.672H430.798V159.125C430.798 151.779 433.712 144.733 438.9 139.533C444.089 134.333 451.128 131.403 458.474 131.387C462.116 131.387 465.722 132.105 469.087 133.499C472.451 134.893 475.508 136.936 478.082 139.512C480.657 142.088 482.698 145.146 484.091 148.511C485.483 151.876 486.198 155.483 486.196 159.125L486.257 335.672Z" fill="white"/>
<path d="M450.636 289.413C450.636 288.248 450.869 287.095 451.321 286.022C451.773 284.948 452.435 283.976 453.269 283.163V280.666H459.322C461.642 280.666 463.866 281.588 465.506 283.228C467.147 284.868 468.068 287.093 468.068 289.413C468.068 291.732 467.147 293.957 465.506 295.597C463.866 297.237 461.642 298.159 459.322 298.159H453.269V295.662C452.435 294.849 451.773 293.877 451.321 292.803C450.869 291.73 450.636 290.577 450.636 289.413Z" fill="#184D48"/>
<path d="M444.507 289.413C444.504 291.146 445.016 292.842 445.977 294.284C446.937 295.727 448.305 296.852 449.905 297.518C451.506 298.183 453.268 298.359 454.969 298.023C456.669 297.686 458.232 296.853 459.459 295.628C460.686 294.404 461.522 292.843 461.861 291.143C462.2 289.443 462.028 287.68 461.365 286.078C460.702 284.476 459.579 283.107 458.138 282.144C456.697 281.18 455.002 280.666 453.269 280.666C452.119 280.664 450.98 280.889 449.917 281.328C448.854 281.766 447.888 282.41 447.074 283.223C446.261 284.035 445.615 285 445.175 286.062C444.734 287.124 444.507 288.263 444.507 289.413Z" fill="#23736B"/>
<path d="M541.853 178.554H500.421V210.468H541.853V178.554Z" fill="#123A36"/>
<path d="M427.877 343.888H410.294C406.33 343.884 402.529 342.308 399.726 339.505C396.923 336.702 395.347 332.902 395.343 328.938V246.906C395.343 244.097 394.227 241.403 392.24 239.416C390.254 237.43 387.56 236.314 384.75 236.314H378.501C377.774 236.314 377.078 236.025 376.564 235.511C376.051 234.998 375.762 234.301 375.762 233.575C375.762 232.848 376.051 232.152 376.564 231.638C377.078 231.124 377.774 230.836 378.501 230.836H384.75C389.022 230.844 393.117 232.544 396.137 235.565C399.158 238.585 400.858 242.68 400.866 246.952V329.044C400.87 331.555 401.87 333.962 403.645 335.737C405.421 337.513 407.828 338.512 410.339 338.516H427.923C430.434 338.512 432.841 337.513 434.616 335.737C436.392 333.962 437.391 331.555 437.395 329.044V301.518C437.399 297.647 438.939 293.935 441.677 291.197C444.414 288.459 448.126 286.92 451.998 286.916C452.724 286.916 453.421 287.204 453.935 287.718C454.448 288.232 454.737 288.928 454.737 289.655C454.737 290.381 454.448 291.078 453.935 291.591C453.421 292.105 452.724 292.394 451.998 292.394C449.59 292.394 447.28 293.35 445.578 295.053C443.875 296.755 442.919 299.065 442.919 301.473V328.983C442.911 330.95 442.515 332.895 441.755 334.709C440.994 336.523 439.884 338.169 438.487 339.553C437.09 340.937 435.434 342.033 433.614 342.777C431.793 343.521 429.844 343.898 427.877 343.888Z" fill="#2F998F"/>
<path d="M362.93 223.663H378.682C380.436 223.663 382.118 224.36 383.358 225.6C384.598 226.84 385.295 228.522 385.295 230.276V237.645C385.295 239.399 384.598 241.081 383.358 242.321C382.118 243.561 380.436 244.258 378.682 244.258H362.93V223.663Z" fill="#184D48"/>
<path d="M104.881 220.697L94.2886 206.624C93.0998 205.048 91.5611 203.77 89.7938 202.89C88.0264 202.01 86.0788 201.553 84.1046 201.555H75.0253C72.4889 201.555 70.0564 202.563 68.2629 204.356C66.4694 206.15 65.4618 208.582 65.4618 211.119C65.4618 213.656 66.4689 216.091 68.262 217.886C70.055 219.682 72.4875 220.693 75.0253 220.697H104.881Z" fill="#DDE2E2"/>
<path d="M111.766 273.191H85.0579C80.0443 273.191 75.0797 274.178 70.4476 276.097C65.8156 278.016 61.6069 280.828 58.0617 284.373C54.5165 287.918 51.7043 292.127 49.7856 296.759C47.867 301.391 46.8795 306.356 46.8795 311.369C46.8795 316.383 47.867 321.347 49.7856 325.98C51.7043 330.612 54.5165 334.82 58.0617 338.366C61.6069 341.911 65.8156 344.723 70.4476 346.642C75.0797 348.56 80.0443 349.548 85.0579 349.548H111.766C121.892 349.548 131.603 345.525 138.762 338.366C145.922 331.206 149.945 321.495 149.945 311.369C149.945 301.244 145.922 291.533 138.762 284.373C131.603 277.213 121.892 273.191 111.766 273.191Z" fill="#0B211F"/>
<path d="M257.035 273.191H230.327C225.313 273.191 220.348 274.178 215.716 276.097C211.084 278.016 206.876 280.828 203.33 284.373C199.785 287.918 196.973 292.127 195.054 296.759C193.136 301.391 192.148 306.356 192.148 311.369C192.148 316.383 193.136 321.347 195.054 325.98C196.973 330.612 199.785 334.82 203.33 338.366C206.876 341.911 211.084 344.723 215.716 346.642C220.348 348.56 225.313 349.548 230.327 349.548H257.035C267.16 349.548 276.871 345.525 284.031 338.366C291.191 331.206 295.213 321.495 295.213 311.369C295.213 301.244 291.191 291.533 284.031 284.373C276.871 277.213 267.16 273.191 257.035 273.191Z" fill="#0B211F"/>
<path d="M361.629 311.369C361.628 306.294 360.613 301.27 358.643 296.592C356.673 291.915 353.789 287.678 350.158 284.131V273.221H323.48C318.467 273.221 313.502 274.209 308.87 276.127C304.238 278.046 300.029 280.858 296.484 284.403C292.939 287.948 290.127 292.157 288.208 296.789C286.289 301.421 285.302 306.386 285.302 311.4C285.302 316.413 286.289 321.378 288.208 326.01C290.127 330.642 292.939 334.851 296.484 338.396C300.029 341.941 304.238 344.753 308.87 346.672C313.502 348.59 318.467 349.578 323.48 349.578H350.189V338.668C353.821 335.111 356.704 330.864 358.669 326.175C360.634 321.487 361.64 316.453 361.629 311.369Z" fill="#0B211F"/>
<path d="M216.36 311.369C216.362 306.293 215.349 301.268 213.379 296.59C211.409 291.912 208.523 287.676 204.89 284.131V273.221H178.212C173.198 273.221 168.233 274.209 163.601 276.127C158.969 278.046 154.76 280.858 151.215 284.403C147.67 287.948 144.858 292.157 142.939 296.789C141.021 301.421 140.033 306.386 140.033 311.4C140.033 316.413 141.021 321.378 142.939 326.01C144.858 330.642 147.67 334.851 151.215 338.396C154.76 341.941 158.969 344.753 163.601 346.672C168.233 348.59 173.198 349.578 178.212 349.578H204.92V338.668C208.555 335.113 211.44 330.866 213.405 326.177C215.37 321.488 216.374 316.453 216.36 311.369Z" fill="#0B211F"/>
<path d="M289.887 240.813C289.887 240.813 302.22 249.03 307.698 270.941C313.175 292.853 307.698 323.45 307.698 323.45H44.8518C41.4311 323.446 38.1518 322.084 35.7344 319.664C33.317 317.244 31.9592 313.963 31.9592 310.542V290.961C31.9589 288.688 32.4064 286.437 33.2762 284.336C34.146 282.236 35.421 280.327 37.0284 278.719C38.9571 276.788 40.4035 274.429 41.2503 271.834C45.0566 260.097 50.9576 249.146 58.6674 239.512L127.867 153.092C131.273 148.837 135.594 145.404 140.508 143.046C145.422 140.689 150.804 139.467 156.255 139.473H268.884L289.887 193.268V240.813Z" fill="#DDE2E2"/>
<path d="M367.046 240.778C367.046 240.778 379.363 248.994 384.841 270.906C390.319 292.817 384.841 323.414 384.841 323.414H148.023C144.602 323.41 141.323 322.049 138.905 319.629C136.488 317.208 135.13 313.927 135.13 310.507V290.926C135.13 288.652 135.578 286.401 136.447 284.301C137.317 282.2 138.592 280.292 140.2 278.684C142.128 276.752 143.575 274.393 144.421 271.799C148.242 260.058 154.158 249.107 161.884 239.476L231.083 153.057C234.49 148.802 238.81 145.368 243.725 143.011C248.639 140.653 254.021 139.432 259.471 139.438H327.899C333.257 139.436 338.491 141.051 342.916 144.072C347.341 147.093 350.751 151.38 352.701 156.37L362.657 181.883C365.584 189.378 367.087 197.353 367.091 205.399L367.046 240.778Z" fill="white"/>
<path opacity="0.2" d="M194.221 220.697H189.455V283.693H194.221V220.697Z" fill="#0E2C29"/>
<path d="M156.255 139.473C150.804 139.467 145.422 140.689 140.508 143.046C135.594 145.404 131.273 148.837 127.867 153.092L73.7087 220.733H289.887V193.268L268.883 139.473H156.255Z" fill="#23736B"/>
<path d="M384.841 270.906C379.363 248.994 367.046 240.778 367.046 240.778V205.399C367.042 197.353 365.538 189.378 362.612 181.883L352.655 156.37C350.706 151.38 347.295 147.093 342.87 144.072C338.445 141.051 333.212 139.436 327.854 139.438H259.426C253.975 139.432 248.594 140.653 243.679 143.011C238.765 145.368 234.445 148.802 231.038 153.057L227.331 157.763L176.88 220.773H189.455L225.621 172.774C229.133 168.116 233.678 164.336 238.897 161.732C244.117 159.127 249.87 157.768 255.703 157.763H320.166C323.973 157.764 327.705 158.814 330.954 160.797C334.202 162.781 336.842 165.621 338.582 169.006L347.268 185.924C348.408 188.141 348.908 190.632 348.713 193.117C348.518 195.602 347.635 197.984 346.163 199.997L265.237 310.598H234.201V323.384H384.841C384.841 323.384 390.38 292.817 384.841 270.906Z" fill="#2F998F"/>
<path d="M350.189 349.548C371.274 349.548 388.367 332.455 388.367 311.369C388.367 290.284 371.274 273.191 350.189 273.191C329.103 273.191 312.01 290.284 312.01 311.369C312.01 332.455 329.103 349.548 350.189 349.548Z" fill="#0E2C29"/>
<path d="M350.189 333.114C362.198 333.114 371.934 323.379 371.934 311.369C371.934 299.36 362.198 289.624 350.189 289.624C338.179 289.624 328.444 299.36 328.444 311.369C328.444 323.379 338.179 333.114 350.189 333.114Z" fill="#DDE2E2"/>
<path d="M368.462 315.281C370.601 305.201 364.163 295.295 354.083 293.156C344.003 291.018 334.097 297.455 331.959 307.535C329.82 317.615 336.257 327.521 346.337 329.66C356.417 331.799 366.323 325.361 368.462 315.281Z" fill="#0E2C29"/>
<path d="M356.287 311.369C356.287 312.566 355.932 313.737 355.267 314.732C354.602 315.727 353.656 316.503 352.55 316.961C351.444 317.42 350.227 317.539 349.053 317.306C347.879 317.072 346.8 316.496 345.954 315.649C345.107 314.803 344.531 313.724 344.297 312.55C344.064 311.376 344.184 310.159 344.642 309.053C345.1 307.947 345.876 307.002 346.871 306.337C347.867 305.671 349.037 305.316 350.234 305.316C351.839 305.316 353.379 305.954 354.514 307.089C355.649 308.224 356.287 309.764 356.287 311.369Z" fill="#D1D1D1"/>
<path d="M370.496 308.888H360.448C360.098 308.886 359.756 308.781 359.466 308.586C359.176 308.39 358.95 308.113 358.817 307.789C358.684 307.465 358.65 307.109 358.72 306.766C358.789 306.423 358.959 306.108 359.207 305.861L366.304 298.764L362.794 295.253L355.697 302.35C355.449 302.6 355.133 302.77 354.788 302.839C354.444 302.908 354.087 302.873 353.762 302.738C353.438 302.603 353.16 302.375 352.966 302.082C352.772 301.79 352.669 301.446 352.67 301.095V291.047H347.707V301.095C347.709 301.446 347.606 301.79 347.411 302.082C347.217 302.375 346.94 302.603 346.615 302.738C346.291 302.873 345.933 302.908 345.589 302.839C345.244 302.77 344.928 302.6 344.68 302.35L337.583 295.253L334.073 298.764L341.17 305.861C341.418 306.108 341.588 306.423 341.657 306.766C341.727 307.109 341.693 307.465 341.56 307.789C341.427 308.113 341.202 308.39 340.911 308.586C340.621 308.781 340.279 308.886 339.929 308.888H329.851V313.851H339.914C340.267 313.845 340.614 313.945 340.91 314.14C341.205 314.334 341.434 314.613 341.568 314.94C341.703 315.267 341.735 315.627 341.661 315.973C341.587 316.318 341.411 316.634 341.155 316.877L334.058 323.99L337.568 327.5L344.665 320.388C344.913 320.139 345.229 319.969 345.574 319.9C345.918 319.831 346.275 319.866 346.6 320.001C346.924 320.135 347.202 320.363 347.396 320.656C347.59 320.949 347.693 321.293 347.692 321.644V331.692H352.655V321.644C352.654 321.293 352.756 320.949 352.951 320.656C353.145 320.363 353.422 320.135 353.747 320.001C354.071 319.866 354.429 319.831 354.773 319.9C355.118 319.969 355.434 320.139 355.682 320.388L362.779 327.5L366.289 323.99L359.192 316.877C358.936 316.634 358.76 316.318 358.686 315.973C358.612 315.627 358.644 315.267 358.778 314.94C358.912 314.613 359.142 314.334 359.437 314.14C359.733 313.945 360.08 313.845 360.433 313.851H370.481L370.496 308.888ZM353.987 309.796V312.943L351.762 315.137H348.615L346.39 312.913V309.765L348.615 307.571H351.762L353.987 309.796Z" fill="#DDE2E2"/>
<path d="M354.063 311.369C354.063 312.121 353.84 312.855 353.422 313.479C353.005 314.104 352.412 314.591 351.718 314.878C351.024 315.166 350.26 315.241 349.523 315.094C348.787 314.948 348.11 314.586 347.579 314.055C347.047 313.524 346.686 312.847 346.539 312.11C346.393 311.373 346.468 310.61 346.755 309.916C347.043 309.222 347.53 308.629 348.154 308.211C348.779 307.794 349.513 307.571 350.264 307.571C351.27 307.575 352.234 307.977 352.946 308.688C353.657 309.399 354.059 310.363 354.063 311.369Z" fill="#0E2C29"/>
<path d="M228.753 168.552L189.409 220.697H322.285L347.646 186.514L338.567 168.87C336.809 165.512 334.164 162.701 330.92 160.743C327.675 158.785 323.956 157.754 320.166 157.763H250.558C246.336 157.748 242.168 158.715 238.384 160.587C234.6 162.46 231.303 165.186 228.753 168.552Z" fill="#123A36"/>
<path opacity="0.1" d="M344.59 180.642L338.537 168.93C336.279 164.528 332.522 161.077 327.944 159.2L266.462 220.697H304.58L344.59 180.642Z" fill="url(#paint2_linear_109_1245)"/>
<path opacity="0.1" d="M192.133 220.697H246.851L309.846 157.687H255.128L192.133 220.697Z" fill="url(#paint3_linear_109_1245)"/>
<path d="M218.448 157.687H128.064L78.4149 220.697H169.48L218.448 157.687Z" fill="#123A36"/>
<path opacity="0.1" d="M209.596 169.081L218.448 157.687H191.407L128.412 220.697H157.98L209.596 169.081Z" fill="url(#paint4_linear_109_1245)"/>
<path opacity="0.1" d="M176.214 157.687H133.753L106.863 184.577L78.4149 220.697H113.219L176.214 157.687Z" fill="url(#paint5_linear_109_1245)"/>
<path d="M347.646 186.514L261.211 301.897H233.731V310.598H265.237L346.648 199.225C347.974 197.412 348.77 195.266 348.947 193.026C349.123 190.787 348.673 188.542 347.646 186.544V186.514Z" fill="#66AFB8"/>
<path d="M347.646 186.514L261.211 301.897H233.731V310.598H265.237L346.648 199.225C347.974 197.412 348.77 195.266 348.947 193.026C349.123 190.787 348.673 188.542 347.646 186.544V186.514Z" fill="url(#paint6_radial_109_1245)"/>
<path d="M204.92 349.548C226.005 349.548 243.098 332.455 243.098 311.369C243.098 290.284 226.005 273.191 204.92 273.191C183.834 273.191 166.741 290.284 166.741 311.369C166.741 332.455 183.834 349.548 204.92 349.548Z" fill="#0E2C29"/>
<path d="M204.92 333.114C216.929 333.114 226.665 323.379 226.665 311.369C226.665 299.36 216.929 289.624 204.92 289.624C192.91 289.624 183.175 299.36 183.175 311.369C183.175 323.379 192.91 333.114 204.92 333.114Z" fill="#DDE2E2"/>
<path d="M223.331 314.497C225.037 304.335 218.182 294.714 208.019 293.008C197.857 291.301 188.236 298.157 186.53 308.319C184.824 318.481 191.679 328.102 201.841 329.808C212.003 331.514 221.625 324.659 223.331 314.497Z" fill="#0E2C29"/>
<path d="M211.033 311.369C211.033 312.566 210.678 313.737 210.013 314.732C209.348 315.727 208.403 316.503 207.297 316.961C206.191 317.42 204.974 317.539 203.799 317.306C202.625 317.072 201.547 316.496 200.7 315.649C199.854 314.803 199.277 313.724 199.044 312.55C198.81 311.376 198.93 310.159 199.388 309.053C199.846 307.947 200.622 307.002 201.618 306.337C202.613 305.671 203.783 305.316 204.98 305.316C206.586 305.316 208.125 305.954 209.26 307.089C210.395 308.224 211.033 309.764 211.033 311.369Z" fill="#D1D1D1"/>
<path d="M225.242 308.888H215.179C214.829 308.886 214.488 308.781 214.197 308.586C213.907 308.39 213.681 308.113 213.548 307.789C213.415 307.465 213.382 307.109 213.451 306.766C213.521 306.423 213.69 306.108 213.939 305.861L221.036 298.764L217.525 295.253L210.428 302.35C210.18 302.6 209.864 302.77 209.52 302.839C209.175 302.908 208.818 302.873 208.493 302.738C208.169 302.603 207.892 302.375 207.697 302.082C207.503 301.79 207.4 301.446 207.401 301.095V291.047H202.438V301.095C202.44 301.446 202.337 301.79 202.142 302.082C201.948 302.375 201.671 302.603 201.346 302.738C201.022 302.873 200.665 302.908 200.32 302.839C199.976 302.77 199.659 302.6 199.412 302.35L192.315 295.253L188.804 298.764L195.901 305.861C196.149 306.108 196.319 306.423 196.388 306.766C196.458 307.109 196.424 307.465 196.291 307.789C196.159 308.113 195.933 308.39 195.642 308.586C195.352 308.781 195.01 308.886 194.66 308.888H184.582V313.851H194.63C194.983 313.845 195.33 313.945 195.626 314.14C195.921 314.334 196.15 314.613 196.285 314.94C196.419 315.267 196.451 315.627 196.377 315.973C196.303 316.318 196.127 316.634 195.871 316.877L188.774 323.99L192.284 327.5L199.381 320.388C199.629 320.139 199.945 319.969 200.29 319.9C200.634 319.831 200.992 319.866 201.316 320.001C201.641 320.135 201.918 320.363 202.112 320.656C202.307 320.949 202.409 321.293 202.408 321.644V331.692H207.371V321.644C207.37 321.293 207.473 320.949 207.667 320.656C207.861 320.363 208.139 320.135 208.463 320.001C208.788 319.866 209.145 319.831 209.489 319.9C209.834 319.969 210.15 320.139 210.398 320.388L217.495 327.5L221.005 323.99L213.908 316.877C213.652 316.634 213.476 316.318 213.402 315.973C213.328 315.627 213.36 315.267 213.494 314.94C213.629 314.613 213.858 314.334 214.153 314.14C214.449 313.945 214.796 313.845 215.149 313.851H225.212L225.242 308.888ZM208.718 309.796V312.943L206.494 315.137H203.346L201.122 312.913V309.765L203.346 307.571H206.494L208.718 309.796Z" fill="#DDE2E2"/>
<path d="M208.794 311.369C208.794 312.121 208.571 312.855 208.154 313.479C207.736 314.104 207.143 314.591 206.449 314.878C205.755 315.166 204.991 315.241 204.254 315.094C203.518 314.948 202.841 314.586 202.31 314.055C201.779 313.524 201.417 312.847 201.27 312.11C201.124 311.373 201.199 310.61 201.486 309.916C201.774 309.222 202.261 308.629 202.885 308.211C203.51 307.794 204.244 307.571 204.995 307.571C206.003 307.571 206.969 307.971 207.681 308.684C208.393 309.396 208.794 310.362 208.794 311.369Z" fill="#0E2C29"/>
<path d="M114.127 260.858L126.535 246.982C129.236 243.95 132.549 241.525 136.256 239.866C139.962 238.208 143.977 237.353 148.038 237.358H174.852L165.379 250.069C162.864 253.433 159.598 256.164 155.841 258.045C152.085 259.926 147.941 260.905 143.74 260.903L114.127 260.858Z" fill="white"/>
<path d="M73.7088 257.438L79.8979 271.36H106.364L114.127 260.858H122.117L110.253 277.307H75.7819L66.8842 256.076L73.7088 257.438Z" fill="#66AFB8"/>
<path d="M73.7088 257.438L79.8979 271.36H106.364L114.127 260.858H122.117L110.253 277.307H75.7819L66.8842 256.076L73.7088 257.438Z" fill="url(#paint7_radial_109_1245)"/>
<path d="M75.2372 260.555L63.1314 233.847C63.1314 233.847 53.1139 237.282 49.5125 245.499C45.911 253.716 47.3637 256.999 47.3637 256.999C47.3637 256.999 67.4744 265.05 75.2372 260.555Z" fill="white"/>
<path d="M123.342 310.477H112.22C111.527 310.479 110.841 310.344 110.2 310.08C109.56 309.816 108.977 309.429 108.487 308.94C107.996 308.45 107.607 307.869 107.341 307.229C107.076 306.589 106.939 305.903 106.939 305.211C106.939 303.81 107.495 302.467 108.486 301.476C109.476 300.486 110.819 299.929 112.22 299.929H123.342C124.743 299.929 126.086 300.486 127.077 301.476C128.067 302.467 128.623 303.81 128.623 305.211C128.623 305.903 128.487 306.589 128.221 307.229C127.955 307.869 127.566 308.45 127.076 308.94C126.585 309.429 126.003 309.816 125.362 310.08C124.721 310.344 124.035 310.479 123.342 310.477Z" fill="#ED7E3A"/>
<path d="M51.2224 310.477H40.0851C39.3898 310.483 38.7001 310.351 38.056 310.089C37.4118 309.827 36.8259 309.44 36.3321 308.95C35.8383 308.461 35.4464 307.878 35.1789 307.236C34.9114 306.594 34.7737 305.906 34.7737 305.211C34.7897 303.817 35.3578 302.486 36.3535 301.51C37.3491 300.534 38.6911 299.993 40.0851 300.005H51.2224C52.6231 300.005 53.9663 300.561 54.9567 301.552C55.9471 302.542 56.5035 303.886 56.5035 305.286C56.4797 306.671 55.9128 307.991 54.925 308.962C53.9372 309.933 52.6075 310.477 51.2224 310.477Z" fill="#ED7E3A"/>
<path d="M321.846 157.687H317.079V220.682H321.846V157.687Z" fill="#0E2C29"/>
<path d="M114.127 260.858H75.2372L79.8979 271.36H106.364L114.127 260.858Z" fill="#123A36"/>
<path opacity="0.2" d="M367.046 240.778C367.046 240.778 354.032 237.358 336.918 246.256C326.45 251.847 317.806 260.323 312.01 270.679C318.249 256.228 328.77 244.039 342.153 235.754C359.676 225.313 367.046 227.991 367.046 227.991V240.778Z" fill="#0E2C29"/>
<path opacity="0.2" d="M165.379 250.069L174.852 237.403C174.852 237.403 166.408 237.691 161.445 242.473C156.482 247.254 150.489 258.573 137.99 255.32C125.491 252.066 114.127 260.904 114.127 260.904H143.725C147.929 260.907 152.075 259.929 155.834 258.048C159.594 256.168 162.862 253.435 165.379 250.069Z" fill="#0E2C29"/>
<path opacity="0.2" d="M74.9648 260.661C70.8866 258.07 66.5445 255.919 62.0117 254.245C56.4733 252.233 52.0547 248.056 50.9198 243.047C50.3929 243.825 49.9323 244.645 49.5428 245.499C45.8959 253.716 47.394 256.999 47.394 256.999C47.394 256.999 67.0355 264.868 74.9648 260.661Z" fill="#0E2C29"/>
<path opacity="0.2" d="M347.646 186.574L257.02 294.648H233.747V301.957H261.211L347.646 186.574Z" fill="#0E2C29"/>
<path d="M189.455 220.697L200.047 206.624C201.234 205.05 202.771 203.773 204.535 202.893C206.3 202.014 208.244 201.556 210.216 201.555H219.295C220.553 201.553 221.798 201.799 222.96 202.279C224.122 202.758 225.178 203.463 226.068 204.351C226.957 205.239 227.663 206.294 228.145 207.455C228.626 208.617 228.874 209.861 228.874 211.119C228.874 212.377 228.626 213.622 228.145 214.784C227.664 215.946 226.958 217.002 226.069 217.892C225.179 218.781 224.123 219.487 222.961 219.968C221.799 220.45 220.553 220.697 219.295 220.697H189.455Z" fill="white"/>
<path d="M223.805 211.119C223.805 208.582 222.797 206.15 221.004 204.356C219.21 202.563 216.778 201.555 214.241 201.555H210.307C208.335 201.556 206.391 202.014 204.626 202.893C202.862 203.773 201.325 205.05 200.138 206.624L189.546 220.697H214.241C216.779 220.693 219.212 219.682 221.005 217.886C222.798 216.091 223.805 213.656 223.805 211.119Z" fill="#DDE2E2"/>
<path opacity="0.2" d="M364.428 259.375H350.158C348.553 259.375 347.013 258.737 345.878 257.602C344.743 256.467 344.105 254.928 344.105 253.322C344.105 251.717 344.743 250.177 345.878 249.042C347.013 247.907 348.553 247.269 350.158 247.269H364.428C366.033 247.269 367.573 247.907 368.708 249.042C369.843 250.177 370.481 251.717 370.481 253.322C370.481 254.928 369.843 256.467 368.708 257.602C367.573 258.737 366.033 259.375 364.428 259.375Z" fill="white"/>
<path d="M400.821 253.307H395.343V286.658H400.821V253.307Z" fill="url(#paint8_radial_109_1245)"/>
<path d="M400.821 293.044H395.343V328.998H400.821V293.044Z" fill="url(#paint9_radial_109_1245)"/>
<path d="M427.877 338.471H410.294V343.949H427.877V338.471Z" fill="url(#paint10_radial_109_1245)"/>
<path d="M442.828 301.488H437.35V328.998H442.828V301.488Z" fill="url(#paint11_radial_109_1245)"/>
<path d="M458.474 217.035C456.743 217.035 455.083 216.349 453.857 215.126C452.632 213.903 451.941 212.244 451.937 210.513V186.589C451.941 184.858 452.632 183.199 453.857 181.977C455.083 180.754 456.743 180.067 458.474 180.067C460.204 180.067 461.863 180.755 463.086 181.978C464.309 183.201 464.996 184.86 464.996 186.589V210.513C464.996 212.243 464.309 213.902 463.086 215.125C461.863 216.348 460.204 217.035 458.474 217.035Z" fill="#123A36"/>
<path d="M537.964 224.798H504.295C503.267 224.798 502.282 224.39 501.555 223.664C500.829 222.937 500.421 221.952 500.421 220.924C500.419 220.414 500.517 219.909 500.711 219.437C500.905 218.965 501.19 218.537 501.55 218.175C501.91 217.814 502.338 217.527 502.809 217.332C503.28 217.136 503.785 217.035 504.295 217.035H537.964C538.474 217.035 538.979 217.136 539.45 217.332C539.921 217.527 540.348 217.814 540.708 218.175C541.068 218.537 541.353 218.965 541.547 219.437C541.741 219.909 541.839 220.414 541.837 220.924C541.837 221.952 541.429 222.937 540.703 223.664C539.976 224.39 538.991 224.798 537.964 224.798Z" fill="#123A36"/>
<path d="M537.964 237.418H504.295C503.785 237.418 503.28 237.318 502.809 237.122C502.338 236.926 501.91 236.64 501.55 236.278C501.19 235.917 500.905 235.488 500.711 235.016C500.517 234.545 500.419 234.039 500.421 233.529C500.419 233.02 500.518 232.515 500.711 232.045C500.905 231.574 501.191 231.146 501.551 230.786C501.911 230.426 502.339 230.14 502.81 229.946C503.281 229.752 503.785 229.654 504.295 229.656H537.964C538.473 229.654 538.978 229.752 539.448 229.946C539.919 230.14 540.347 230.426 540.707 230.786C541.067 231.146 541.353 231.574 541.547 232.045C541.741 232.515 541.839 233.02 541.837 233.529C541.839 234.039 541.741 234.545 541.547 235.016C541.353 235.488 541.068 235.917 540.708 236.278C540.348 236.64 539.921 236.926 539.45 237.122C538.979 237.318 538.474 237.418 537.964 237.418Z" fill="#123A36"/>
<path d="M533.908 181.581L515.25 193.232H520.789L510.181 204.869L528.839 193.232H523.301L533.908 181.581Z" fill="#FDDE10"/>
<path opacity="0.2" d="M509.772 178.554L500.421 187.921V210.483H503.447L535.361 178.554H509.772Z" fill="url(#paint12_linear_109_1245)"/>
<path opacity="0.2" d="M541.853 199.043V181.233L512.587 210.483H530.413L541.853 199.043Z" fill="url(#paint13_linear_109_1245)"/>
<path d="M552.914 247.224H486.257V253.307H552.914V247.224Z" fill="url(#paint14_radial_109_1245)"/>
<path d="M393.784 224.798L399.398 219.184V201" stroke="white" stroke-width="0.91" stroke-miterlimit="10" stroke-linecap="round"/>
<path d="M38.6173 186.574V201.555L56.5035 211.119" stroke="white" stroke-width="0.91" stroke-miterlimit="10" stroke-linecap="round"/>
<path d="M28.0853 123.428L32.2921 131.977L41.7345 133.354L34.9099 139.997L36.5139 149.41L28.0853 144.961L19.6416 149.41L21.2456 139.997L14.421 133.354L23.8634 131.977L28.0853 123.428Z" fill="#FDDE10"/>
<path d="M20.8985 164.32C20.8985 165.013 20.814 165.65 20.645 166.231C20.476 166.807 20.2268 167.31 19.8975 167.739L20.801 168.642L20.2745 169.182L19.371 168.285C18.656 168.892 17.7482 169.195 16.6475 169.195C15.7332 169.195 14.9575 168.991 14.3205 168.584C13.6835 168.172 13.2025 167.6 12.8775 166.868C12.5525 166.136 12.39 165.286 12.39 164.32C12.39 163.354 12.5525 162.504 12.8775 161.772C13.2025 161.04 13.6835 160.47 14.3205 160.062C14.9575 159.651 15.7332 159.445 16.6475 159.445C17.5575 159.445 18.331 159.651 18.968 160.062C19.605 160.47 20.086 161.04 20.411 161.772C20.736 162.504 20.8985 163.354 20.8985 164.32ZM16.6475 168.46C17.5228 168.46 18.2487 168.22 18.825 167.739L17.837 166.757L18.3765 166.218L19.332 167.173C19.5877 166.814 19.7783 166.393 19.904 165.912C20.034 165.431 20.099 164.901 20.099 164.32C20.099 163.497 19.969 162.775 19.709 162.155C19.449 161.531 19.0612 161.046 18.5455 160.699C18.0298 160.353 17.3972 160.179 16.6475 160.179C15.8935 160.179 15.2565 160.355 14.7365 160.706C14.2208 161.057 13.833 161.549 13.573 162.181C13.3173 162.81 13.1895 163.542 13.1895 164.378C13.1895 165.189 13.3195 165.902 13.5795 166.517C13.8438 167.128 14.2338 167.605 14.7495 167.947C15.2695 168.289 15.9022 168.46 16.6475 168.46ZM27.2145 161.98H27.9685V169H27.286V167.947C27.0303 168.35 26.6966 168.653 26.285 168.857C25.8733 169.061 25.4118 169.163 24.9005 169.163C24.2765 169.163 23.7521 169.015 23.3275 168.72C22.9071 168.426 22.593 168.027 22.385 167.524C22.177 167.017 22.073 166.45 22.073 165.821V161.98H22.827V165.633C22.827 166.534 23.0068 167.228 23.3665 167.713C23.7305 168.198 24.2743 168.441 24.998 168.441C25.7346 168.441 26.2871 168.198 26.6555 167.713C27.0281 167.228 27.2145 166.58 27.2145 165.769V161.98ZM30.6596 160.563H29.9121V159.607H30.6596V160.563ZM30.6596 169H29.9121V161.98H30.6596V169ZM35.4796 169.195C34.795 169.195 34.21 169.041 33.7246 168.733C33.2393 168.421 32.871 167.988 32.6196 167.433C32.3683 166.874 32.2361 166.227 32.2231 165.49C32.2361 164.74 32.3683 164.088 32.6196 163.533C32.8753 162.979 33.2458 162.55 33.7311 162.246C34.2165 161.939 34.8015 161.785 35.4861 161.785C35.9368 161.785 36.355 161.861 36.7406 162.012C37.1263 162.16 37.4578 162.372 37.7351 162.649C38.0168 162.922 38.2248 163.247 38.3591 163.624L37.6311 163.891C37.4535 163.458 37.174 163.12 36.7926 162.877C36.4113 162.634 35.9736 162.513 35.4796 162.513C34.678 162.513 34.0691 162.782 33.6531 163.319C33.2415 163.852 33.0313 164.576 33.0226 165.49C33.0313 166.097 33.1266 166.623 33.3086 167.069C33.495 167.511 33.7701 167.856 34.1341 168.103C34.5025 168.346 34.951 168.467 35.4796 168.467C35.9736 168.467 36.4026 168.352 36.7666 168.122C37.135 167.893 37.4188 167.559 37.6181 167.121L38.3591 167.375C38.0818 167.973 37.6983 168.426 37.2086 168.733C36.7233 169.041 36.147 169.195 35.4796 169.195ZM40.4765 169H39.7225V159.64H40.4765V165.36L43.798 161.98H44.8445L41.367 165.49L45.3385 169H44.175L40.4765 165.62V169ZM51.775 169.195C51.138 169.195 50.5595 169.089 50.0395 168.876C49.5239 168.664 49.097 168.363 48.759 167.973C48.4254 167.579 48.2044 167.115 48.096 166.582L48.863 166.452C48.9714 166.868 49.162 167.228 49.435 167.531C49.708 167.83 50.046 168.062 50.449 168.226C50.8564 168.387 51.3049 168.467 51.7945 168.467C52.2929 168.467 52.7349 168.387 53.1205 168.226C53.5105 168.066 53.8139 167.839 54.0305 167.544C54.2472 167.249 54.3555 166.909 54.3555 166.523C54.3555 166.181 54.2732 165.897 54.1085 165.672C53.9482 165.447 53.7554 165.275 53.53 165.158C53.309 165.041 53.0599 164.942 52.7825 164.859L50.4295 164.157C49.1165 163.767 48.46 163.035 48.46 161.96C48.46 161.466 48.5922 161.029 48.8565 160.647C49.1252 160.266 49.4979 159.971 49.9745 159.763C50.4512 159.551 50.9907 159.445 51.593 159.445C52.204 159.445 52.7544 159.558 53.244 159.783C53.738 160.008 54.141 160.327 54.453 160.738C54.7694 161.15 54.973 161.631 55.064 162.181L54.2905 162.318C54.2299 161.893 54.0739 161.521 53.8225 161.2C53.5712 160.875 53.2484 160.624 52.854 160.446C52.464 160.268 52.035 160.179 51.567 160.179C51.125 160.179 50.7285 160.257 50.3775 160.413C50.0265 160.565 49.7514 160.775 49.552 161.044C49.357 161.308 49.2595 161.605 49.2595 161.934C49.2595 162.255 49.3462 162.522 49.5195 162.734C49.6972 162.942 49.9095 163.104 50.1565 163.221C50.4035 163.334 50.6939 163.438 51.0275 163.533L52.9125 164.092C53.2765 164.201 53.6102 164.331 53.9135 164.482C54.2212 164.634 54.4964 164.877 54.739 165.21C54.986 165.54 55.1095 165.969 55.1095 166.497C55.1095 167.048 54.9687 167.527 54.687 167.934C54.4054 168.341 54.0132 168.653 53.5105 168.87C53.0079 169.087 52.4294 169.195 51.775 169.195ZM57.307 169H56.5595V159.445H57.307V169ZM62.1401 169.195C61.4598 169.195 60.8726 169.039 60.3786 168.727C59.8889 168.415 59.5141 167.979 59.2541 167.42C58.9984 166.857 58.8706 166.209 58.8706 165.477C58.8706 164.745 59.0006 164.101 59.2606 163.546C59.5249 162.987 59.9019 162.554 60.3916 162.246C60.8856 161.939 61.4684 161.785 62.1401 161.785C62.8248 161.785 63.4119 161.941 63.9016 162.253C64.3956 162.561 64.7704 162.994 65.0261 163.553C65.2818 164.108 65.4096 164.749 65.4096 165.477C65.4096 166.218 65.2796 166.868 65.0196 167.427C64.7639 167.986 64.3891 168.421 63.8951 168.733C63.4054 169.041 62.8204 169.195 62.1401 169.195ZM62.1401 168.467C62.6818 168.467 63.1368 168.343 63.5051 168.096C63.8734 167.845 64.1486 167.496 64.3306 167.05C64.5169 166.604 64.6101 166.079 64.6101 165.477C64.6101 164.554 64.3999 163.83 63.9796 163.306C63.5593 162.777 62.9461 162.513 62.1401 162.513C61.5941 162.513 61.1369 162.636 60.7686 162.883C60.4003 163.13 60.1251 163.477 59.9431 163.923C59.7611 164.365 59.6701 164.883 59.6701 165.477C59.6701 166.084 59.7633 166.612 59.9496 167.063C60.1403 167.509 60.4198 167.856 60.7881 168.103C61.1564 168.346 61.6071 168.467 62.1401 168.467ZM68.3867 162.662V166.549V166.933C68.3867 167.15 68.3954 167.323 68.4127 167.453C68.43 167.579 68.469 167.698 68.5297 167.81C68.638 168.018 68.7919 168.17 68.9912 168.265C69.1905 168.356 69.4419 168.402 69.7452 168.402C69.9879 168.402 70.2609 168.376 70.5642 168.324V169C70.2652 169.065 69.9662 169.098 69.6672 169.098C69.2425 169.098 68.8699 169.024 68.5492 168.876C68.2285 168.725 67.9945 168.491 67.8472 168.174C67.7562 167.984 67.6977 167.791 67.6717 167.596C67.6457 167.397 67.6327 167.141 67.6327 166.829V166.562V162.662H66.0597V161.98H67.6327V160.03H68.3867V161.98H70.5642V162.662H68.3867ZM17.902 180.021C18.409 180.242 18.8033 180.558 19.085 180.97C19.371 181.382 19.514 181.867 19.514 182.426C19.514 182.95 19.3948 183.407 19.1565 183.797C18.9225 184.187 18.5975 184.486 18.1815 184.694C17.7655 184.898 17.2932 185 16.7645 185H12.91V175.64H16.4915C16.9725 175.64 17.408 175.744 17.798 175.952C18.188 176.156 18.4935 176.437 18.7145 176.797C18.9398 177.152 19.0525 177.551 19.0525 177.993C19.0525 178.422 18.9485 178.818 18.7405 179.182C18.5325 179.542 18.253 179.822 17.902 180.021ZM13.664 176.361V179.715H16.485C16.81 179.715 17.1068 179.64 17.3755 179.488C17.6485 179.336 17.8652 179.128 18.0255 178.864C18.1858 178.595 18.266 178.296 18.266 177.967C18.266 177.651 18.188 177.371 18.032 177.128C17.8803 176.886 17.668 176.697 17.395 176.563C17.1263 176.429 16.823 176.361 16.485 176.361H13.664ZM16.5175 184.265C16.9378 184.265 17.3127 184.194 17.642 184.051C17.9757 183.908 18.2378 183.7 18.4285 183.427C18.6192 183.154 18.7145 182.831 18.7145 182.458C18.7145 182.086 18.6257 181.746 18.448 181.438C18.2747 181.13 18.0363 180.888 17.733 180.71C17.4297 180.528 17.096 180.437 16.732 180.437H13.664V184.265H16.5175ZM23.686 185.195C23.0057 185.195 22.4185 185.039 21.9245 184.727C21.4348 184.415 21.06 183.979 20.8 183.42C20.5443 182.857 20.4165 182.209 20.4165 181.477C20.4165 180.745 20.5465 180.101 20.8065 179.546C21.0708 178.987 21.4478 178.554 21.9375 178.246C22.4315 177.939 23.0143 177.785 23.686 177.785C24.3707 177.785 24.9578 177.941 25.4475 178.253C25.9415 178.561 26.3163 178.994 26.572 179.553C26.8277 180.108 26.9555 180.749 26.9555 181.477C26.9555 182.218 26.8255 182.868 26.5655 183.427C26.3098 183.986 25.935 184.421 25.441 184.733C24.9513 185.041 24.3663 185.195 23.686 185.195ZM23.686 184.467C24.2277 184.467 24.6827 184.343 25.051 184.096C25.4193 183.845 25.6945 183.496 25.8765 183.05C26.0628 182.604 26.156 182.079 26.156 181.477C26.156 180.554 25.9458 179.83 25.5255 179.306C25.1052 178.777 24.492 178.513 23.686 178.513C23.14 178.513 22.6828 178.636 22.3145 178.883C21.9462 179.13 21.671 179.477 21.489 179.923C21.307 180.365 21.216 180.883 21.216 181.477C21.216 182.084 21.3092 182.612 21.4955 183.063C21.6862 183.509 21.9657 183.856 22.334 184.103C22.7023 184.346 23.153 184.467 23.686 184.467ZM31.2651 185.195C30.5848 185.195 29.9976 185.039 29.5036 184.727C29.0139 184.415 28.6391 183.979 28.3791 183.42C28.1234 182.857 27.9956 182.209 27.9956 181.477C27.9956 180.745 28.1256 180.101 28.3856 179.546C28.6499 178.987 29.0269 178.554 29.5166 178.246C30.0106 177.939 30.5934 177.785 31.2651 177.785C31.9498 177.785 32.5369 177.941 33.0266 178.253C33.5206 178.561 33.8954 178.994 34.1511 179.553C34.4068 180.108 34.5346 180.749 34.5346 181.477C34.5346 182.218 34.4046 182.868 34.1446 183.427C33.8889 183.986 33.5141 184.421 33.0201 184.733C32.5304 185.041 31.9454 185.195 31.2651 185.195ZM31.2651 184.467C31.8068 184.467 32.2618 184.343 32.6301 184.096C32.9984 183.845 33.2736 183.496 33.4556 183.05C33.6419 182.604 33.7351 182.079 33.7351 181.477C33.7351 180.554 33.5249 179.83 33.1046 179.306C32.6843 178.777 32.0711 178.513 31.2651 178.513C30.7191 178.513 30.2619 178.636 29.8936 178.883C29.5253 179.13 29.2501 179.477 29.0681 179.923C28.8861 180.365 28.7951 180.883 28.7951 181.477C28.7951 182.084 28.8883 182.612 29.0746 183.063C29.2653 183.509 29.5448 183.856 29.9131 184.103C30.2814 184.346 30.7321 184.467 31.2651 184.467ZM36.7187 185H35.9647V175.64H36.7187V181.36L40.0402 177.98H41.0867L37.6092 181.49L41.5807 185H40.4172L36.7187 181.62V185ZM43.1137 176.563H42.3662V175.607H43.1137V176.563ZM43.1137 185H42.3662V177.98H43.1137V185ZM48.1352 177.817C48.7592 177.817 49.2814 177.965 49.7017 178.259C50.1264 178.554 50.4427 178.955 50.6507 179.462C50.8587 179.965 50.9627 180.53 50.9627 181.158V185H50.2087V181.347C50.2087 180.446 50.0267 179.752 49.6627 179.267C49.3031 178.782 48.7614 178.539 48.0377 178.539C47.3011 178.539 46.7464 178.782 46.3737 179.267C46.0054 179.752 45.8212 180.4 45.8212 181.21V185H45.0672V177.98H45.7497V179.033C46.0054 178.63 46.3391 178.327 46.7507 178.123C47.1624 177.919 47.6239 177.817 48.1352 177.817ZM57.7358 177.98H58.4183V184.753C58.4183 185.225 58.3945 185.615 58.3468 185.923C58.2342 186.733 57.933 187.334 57.4433 187.724C56.9537 188.118 56.2647 188.315 55.3763 188.315C54.8087 188.315 54.28 188.189 53.7903 187.938C53.3007 187.691 52.9085 187.299 52.6138 186.762L53.2898 186.359C53.4935 186.77 53.7817 187.074 54.1543 187.269C54.5313 187.468 54.9408 187.568 55.3828 187.568C55.9418 187.568 56.3882 187.464 56.7218 187.256C57.0555 187.048 57.296 186.738 57.4433 186.326C57.5907 185.914 57.6622 185.39 57.6578 184.753V183.94C57.4022 184.339 57.0772 184.649 56.6828 184.87C56.2928 185.087 55.8465 185.195 55.3438 185.195C54.6982 185.195 54.1435 185.035 53.6798 184.714C53.2162 184.389 52.863 183.947 52.6203 183.388C52.3777 182.825 52.2563 182.188 52.2563 181.477C52.2563 180.779 52.3755 180.151 52.6138 179.592C52.8565 179.029 53.2053 178.587 53.6603 178.266C54.1153 177.945 54.6527 177.785 55.2723 177.785C55.827 177.785 56.3123 177.904 56.7283 178.142C57.1443 178.381 57.4802 178.717 57.7358 179.15V177.98ZM55.3893 184.48C55.9007 184.48 56.3318 184.352 56.6828 184.096C57.0338 183.841 57.296 183.488 57.4693 183.037C57.647 182.582 57.7358 182.062 57.7358 181.477C57.7358 180.892 57.647 180.376 57.4693 179.93C57.296 179.479 57.0338 179.128 56.6828 178.877C56.3318 178.626 55.905 178.5 55.4023 178.5C54.8867 178.5 54.4533 178.628 54.1023 178.883C53.7513 179.139 53.4892 179.492 53.3158 179.943C53.1425 180.389 53.0558 180.901 53.0558 181.477C53.0558 182.053 53.1447 182.569 53.3223 183.024C53.5 183.475 53.7622 183.83 54.1088 184.09C54.4598 184.35 54.8867 184.48 55.3893 184.48Z" fill="#184D48"/>
<path d="M266.553 92H265.676L263.908 88.3535H260.658V92H259.91V82.64H263.44C263.648 82.64 263.858 82.6573 264.07 82.692C264.529 82.7613 264.928 82.9282 265.266 83.1925C265.604 83.4525 265.862 83.7818 266.04 84.1805C266.222 84.5792 266.312 85.0168 266.312 85.4935C266.312 86.1088 266.167 86.6527 265.877 87.125C265.591 87.593 265.188 87.9288 264.668 88.1325L266.553 92ZM260.658 87.619H263.427C263.626 87.619 263.819 87.6017 264.005 87.567C264.33 87.502 264.607 87.3677 264.837 87.164C265.067 86.9603 265.238 86.7133 265.351 86.423C265.468 86.1327 265.526 85.8228 265.526 85.4935C265.526 85.1642 265.468 84.8543 265.351 84.564C265.238 84.2737 265.067 84.0288 264.837 83.8295C264.607 83.6258 264.33 83.4915 264.005 83.4265C263.827 83.3875 263.635 83.368 263.427 83.368H260.658V87.619ZM268.4 88.7045C268.435 89.5842 268.665 90.2645 269.089 90.7455C269.518 91.2265 270.11 91.467 270.864 91.467C271.401 91.467 271.873 91.3413 272.281 91.09C272.688 90.8387 273.011 90.4747 273.249 89.998L273.925 90.297C273.644 90.8993 273.236 91.3673 272.703 91.701C272.17 92.0303 271.561 92.195 270.877 92.195C270.209 92.195 269.629 92.0455 269.135 91.7465C268.641 91.4432 268.259 91.0142 267.991 90.4595C267.726 89.9048 267.594 89.2527 267.594 88.503C267.594 87.7403 267.726 87.0795 267.991 86.5205C268.255 85.9615 268.632 85.5325 269.122 85.2335C269.616 84.9345 270.196 84.785 270.864 84.785C271.544 84.785 272.127 84.941 272.612 85.253C273.098 85.5607 273.464 86.0092 273.711 86.5985C273.962 87.1878 274.083 87.8898 274.075 88.7045H268.4ZM270.877 85.4935C270.153 85.4935 269.579 85.7145 269.154 86.1565C268.73 86.5942 268.483 87.2182 268.413 88.0285H273.269C273.195 87.2008 272.955 86.5725 272.547 86.1435C272.14 85.7102 271.583 85.4935 270.877 85.4935ZM280.644 86.2215C280.77 86.5508 280.833 87.0188 280.833 87.6255V92H280.15V90.778C279.881 91.233 279.511 91.584 279.039 91.831C278.566 92.0737 278.025 92.195 277.414 92.195C276.894 92.195 276.452 92.1018 276.088 91.9155C275.724 91.7292 275.451 91.48 275.269 91.168C275.087 90.8517 274.996 90.505 274.996 90.128C274.996 89.569 275.162 89.1248 275.496 88.7955C275.834 88.4662 276.283 88.2365 276.842 88.1065C277.219 88.0242 277.619 87.9527 278.044 87.892C278.473 87.8313 279.008 87.7598 279.65 87.6775C279.71 87.6688 279.777 87.6623 279.851 87.658C279.925 87.6493 280.003 87.6385 280.085 87.6255C280.085 86.8975 279.929 86.3623 279.617 86.02C279.305 85.6777 278.789 85.5065 278.07 85.5065C276.978 85.5065 276.298 85.9983 276.029 86.982L275.262 86.7675C275.422 86.1305 275.745 85.6408 276.231 85.2985C276.716 84.9562 277.338 84.785 278.096 84.785C278.737 84.785 279.279 84.9107 279.721 85.162C280.163 85.4133 280.471 85.7665 280.644 86.2215ZM277.453 91.506C277.921 91.506 278.337 91.4215 278.701 91.2525C279.065 91.0792 279.357 90.8387 279.578 90.531C279.803 90.219 279.946 89.8528 280.007 89.4325C280.059 89.1508 280.085 88.7782 280.085 88.3145L279.819 88.3405C279.16 88.4098 278.627 88.4727 278.22 88.529C277.812 88.5853 277.437 88.6568 277.095 88.7435C276.718 88.8432 276.402 89.0035 276.146 89.2245C275.89 89.4412 275.763 89.7445 275.763 90.1345C275.763 90.3685 275.819 90.5895 275.932 90.7975C276.044 91.0055 276.226 91.1767 276.478 91.311C276.733 91.441 277.058 91.506 277.453 91.506ZM285.114 92.182C284.577 92.182 284.098 92.1062 283.677 91.9545C283.257 91.7985 282.915 91.5753 282.65 91.285C282.386 90.9903 282.213 90.6415 282.13 90.2385L282.897 90.1085C283.01 90.5288 283.266 90.8625 283.664 91.1095C284.067 91.3522 284.561 91.4735 285.146 91.4735C285.532 91.4735 285.868 91.4193 286.154 91.311C286.44 91.1983 286.659 91.038 286.81 90.83C286.966 90.6177 287.044 90.3707 287.044 90.089C287.044 89.842 286.99 89.647 286.882 89.504C286.774 89.361 286.57 89.2288 286.271 89.1075C285.976 88.9818 285.508 88.8323 284.867 88.659C284.2 88.4813 283.686 88.308 283.326 88.139C282.971 87.9657 282.718 87.7707 282.566 87.554C282.419 87.3373 282.345 87.0643 282.345 86.735C282.345 86.3537 282.455 86.0157 282.676 85.721C282.897 85.4263 283.207 85.1967 283.606 85.032C284.005 84.8673 284.462 84.785 284.977 84.785C285.493 84.785 285.959 84.8717 286.375 85.045C286.795 85.214 287.133 85.4523 287.389 85.76C287.645 86.0677 287.792 86.4208 287.831 86.8195L287.064 86.9625C287.016 86.6635 286.895 86.4035 286.7 86.1825C286.505 85.9615 286.251 85.7925 285.939 85.6755C285.632 85.5542 285.281 85.4935 284.886 85.4935C284.54 85.4935 284.232 85.5455 283.963 85.6495C283.695 85.7492 283.485 85.89 283.333 86.072C283.186 86.254 283.112 86.462 283.112 86.696C283.112 86.9083 283.173 87.086 283.294 87.229C283.415 87.3677 283.623 87.4977 283.918 87.619C284.217 87.7403 284.648 87.8725 285.211 88.0155C285.896 88.1888 286.425 88.3665 286.797 88.5485C287.17 88.7305 287.434 88.9428 287.59 89.1855C287.751 89.4238 287.831 89.7272 287.831 90.0955C287.831 90.5288 287.723 90.9015 287.506 91.2135C287.289 91.5255 286.975 91.766 286.563 91.935C286.156 92.0997 285.673 92.182 285.114 92.182ZM292.154 92.195C291.473 92.195 290.886 92.039 290.392 91.727C289.903 91.415 289.528 90.9795 289.268 90.4205C289.012 89.8572 288.884 89.2093 288.884 88.477C288.884 87.7447 289.014 87.1012 289.274 86.5465C289.539 85.9875 289.916 85.5542 290.405 85.2465C290.899 84.9388 291.482 84.785 292.154 84.785C292.838 84.785 293.426 84.941 293.915 85.253C294.409 85.5607 294.784 85.994 295.04 86.553C295.295 87.1077 295.423 87.749 295.423 88.477C295.423 89.218 295.293 89.868 295.033 90.427C294.778 90.986 294.403 91.4215 293.909 91.7335C293.419 92.0412 292.834 92.195 292.154 92.195ZM292.154 91.467C292.695 91.467 293.15 91.3435 293.519 91.0965C293.887 90.8452 294.162 90.4963 294.344 90.05C294.531 89.6037 294.624 89.0793 294.624 88.477C294.624 87.554 294.414 86.8303 293.993 86.306C293.573 85.7773 292.96 85.513 292.154 85.513C291.608 85.513 291.151 85.6365 290.782 85.8835C290.414 86.1305 290.139 86.4772 289.957 86.9235C289.775 87.3655 289.684 87.8833 289.684 88.477C289.684 89.0837 289.777 89.6123 289.963 90.063C290.154 90.5093 290.433 90.856 290.802 91.103C291.17 91.3457 291.621 91.467 292.154 91.467ZM299.921 84.8175C300.545 84.8175 301.068 84.9648 301.488 85.2595C301.913 85.5542 302.229 85.955 302.437 86.462C302.645 86.9647 302.749 87.5302 302.749 88.1585V92H301.995V88.347C301.995 87.4457 301.813 86.7523 301.449 86.267C301.089 85.7817 300.548 85.539 299.824 85.539C299.087 85.539 298.533 85.7817 298.16 86.267C297.792 86.7523 297.607 87.4002 297.607 88.2105V92H296.853V84.98H297.536V86.033C297.792 85.63 298.125 85.3267 298.537 85.123C298.949 84.9193 299.41 84.8175 299.921 84.8175ZM309.691 86.2215C309.817 86.5508 309.879 87.0188 309.879 87.6255V92H309.197V90.778C308.928 91.233 308.558 91.584 308.085 91.831C307.613 92.0737 307.071 92.195 306.46 92.195C305.94 92.195 305.498 92.1018 305.134 91.9155C304.77 91.7292 304.497 91.48 304.315 91.168C304.133 90.8517 304.042 90.505 304.042 90.128C304.042 89.569 304.209 89.1248 304.543 88.7955C304.881 88.4662 305.329 88.2365 305.888 88.1065C306.265 88.0242 306.666 87.9527 307.091 87.892C307.52 87.8313 308.055 87.7598 308.696 87.6775C308.757 87.6688 308.824 87.6623 308.898 87.658C308.972 87.6493 309.05 87.6385 309.132 87.6255C309.132 86.8975 308.976 86.3623 308.664 86.02C308.352 85.6777 307.836 85.5065 307.117 85.5065C306.025 85.5065 305.345 85.9983 305.076 86.982L304.309 86.7675C304.469 86.1305 304.792 85.6408 305.277 85.2985C305.763 84.9562 306.385 84.785 307.143 84.785C307.784 84.785 308.326 84.9107 308.768 85.162C309.21 85.4133 309.518 85.7665 309.691 86.2215ZM306.499 91.506C306.967 91.506 307.383 91.4215 307.747 91.2525C308.111 91.0792 308.404 90.8387 308.625 90.531C308.85 90.219 308.993 89.8528 309.054 89.4325C309.106 89.1508 309.132 88.7782 309.132 88.3145L308.865 88.3405C308.207 88.4098 307.674 88.4727 307.266 88.529C306.859 88.5853 306.484 88.6568 306.142 88.7435C305.765 88.8432 305.449 89.0035 305.193 89.2245C304.937 89.4412 304.809 89.7445 304.809 90.1345C304.809 90.3685 304.866 90.5895 304.978 90.7975C305.091 91.0055 305.273 91.1767 305.524 91.311C305.78 91.441 306.105 91.506 306.499 91.506ZM314.713 84.785C315.333 84.785 315.87 84.9453 316.325 85.266C316.78 85.5867 317.127 86.0287 317.365 86.592C317.608 87.151 317.729 87.7793 317.729 88.477C317.729 89.1877 317.608 89.8247 317.365 90.388C317.123 90.947 316.769 91.389 316.306 91.714C315.842 92.0347 315.287 92.195 314.642 92.195C314.113 92.195 313.645 92.0737 313.238 91.831C312.835 91.5883 312.505 91.2482 312.25 90.8105V92H311.567V82.64H312.315V86.046C312.575 85.643 312.906 85.3332 313.309 85.1165C313.712 84.8955 314.18 84.785 314.713 84.785ZM314.596 91.48C315.099 91.48 315.524 91.35 315.87 91.09C316.221 90.83 316.486 90.4747 316.663 90.024C316.841 89.569 316.93 89.0533 316.93 88.477C316.93 87.9007 316.843 87.3893 316.67 86.943C316.496 86.4923 316.234 86.1392 315.883 85.8835C315.532 85.6278 315.099 85.5 314.583 85.5C314.081 85.5 313.654 85.6257 313.303 85.877C312.952 86.1283 312.687 86.4793 312.51 86.93C312.336 87.3763 312.25 87.892 312.25 88.477C312.25 89.062 312.336 89.582 312.51 90.037C312.687 90.4877 312.952 90.8408 313.303 91.0965C313.654 91.3522 314.085 91.48 314.596 91.48ZM320.037 92H319.289V82.445H320.037V92ZM322.406 88.7045C322.441 89.5842 322.67 90.2645 323.095 90.7455C323.524 91.2265 324.116 91.467 324.87 91.467C325.407 91.467 325.879 91.3413 326.287 91.09C326.694 90.8387 327.017 90.4747 327.255 89.998L327.931 90.297C327.649 90.8993 327.242 91.3673 326.709 91.701C326.176 92.0303 325.567 92.195 324.883 92.195C324.215 92.195 323.635 92.0455 323.141 91.7465C322.647 91.4432 322.265 91.0142 321.997 90.4595C321.732 89.9048 321.6 89.2527 321.6 88.503C321.6 87.7403 321.732 87.0795 321.997 86.5205C322.261 85.9615 322.638 85.5325 323.128 85.2335C323.622 84.9345 324.202 84.785 324.87 84.785C325.55 84.785 326.133 84.941 326.618 85.253C327.103 85.5607 327.47 86.0092 327.717 86.5985C327.968 87.1878 328.089 87.8898 328.081 88.7045H322.406ZM324.883 85.4935C324.159 85.4935 323.585 85.7145 323.16 86.1565C322.735 86.5942 322.488 87.2182 322.419 88.0285H327.275C327.201 87.2008 326.96 86.5725 326.553 86.1435C326.146 85.7102 325.589 85.4935 324.883 85.4935ZM259.91 108V98.64H263.44C263.648 98.64 263.858 98.6573 264.07 98.692C264.529 98.7613 264.928 98.9282 265.266 99.1925C265.604 99.4525 265.862 99.7818 266.04 100.18C266.222 100.579 266.312 101.017 266.312 101.493C266.312 101.974 266.222 102.414 266.04 102.813C265.862 103.212 265.604 103.541 265.266 103.801C264.928 104.061 264.529 104.228 264.07 104.301C263.858 104.336 263.648 104.353 263.44 104.353H260.658V108H259.91ZM263.427 103.619C263.626 103.619 263.819 103.602 264.005 103.567C264.33 103.502 264.607 103.368 264.837 103.164C265.067 102.96 265.238 102.713 265.351 102.423C265.468 102.133 265.526 101.823 265.526 101.493C265.526 101.164 265.468 100.854 265.351 100.564C265.238 100.274 265.067 100.029 264.837 99.8295C264.607 99.6258 264.33 99.4915 264.005 99.4265C263.827 99.3875 263.635 99.368 263.427 99.368H260.658V103.619H263.427ZM268.793 101.468C268.988 101.285 269.226 101.147 269.508 101.051C269.794 100.956 270.077 100.908 270.359 100.908C270.554 100.908 270.736 100.932 270.905 100.98V101.688C270.71 101.645 270.526 101.623 270.353 101.623C269.885 101.623 269.482 101.766 269.144 102.052C268.918 102.247 268.749 102.479 268.637 102.748C268.524 103.012 268.45 103.285 268.416 103.567C268.385 103.849 268.37 104.167 268.37 104.522V108H267.616V100.98H268.299V102.085C268.442 101.834 268.606 101.628 268.793 101.468ZM273.013 99.563H272.266V98.6075H273.013V99.563ZM273.013 108H272.266V100.98H273.013V108ZM277.833 108.195C277.148 108.195 276.563 108.041 276.078 107.733C275.593 107.421 275.224 106.988 274.973 106.433C274.722 105.874 274.59 105.227 274.577 104.49C274.59 103.74 274.722 103.088 274.973 102.533C275.229 101.979 275.599 101.55 276.085 101.246C276.57 100.939 277.155 100.785 277.84 100.785C278.29 100.785 278.708 100.861 279.094 101.012C279.48 101.16 279.811 101.372 280.089 101.649C280.37 101.922 280.578 102.247 280.713 102.624L279.985 102.891C279.807 102.458 279.527 102.12 279.146 101.877C278.765 101.634 278.327 101.513 277.833 101.513C277.031 101.513 276.423 101.782 276.007 102.319C275.595 102.852 275.385 103.576 275.376 104.49C275.385 105.097 275.48 105.623 275.662 106.069C275.848 106.511 276.124 106.856 276.488 107.103C276.856 107.346 277.304 107.467 277.833 107.467C278.327 107.467 278.756 107.352 279.12 107.122C279.488 106.893 279.772 106.559 279.972 106.121L280.713 106.375C280.435 106.973 280.052 107.426 279.562 107.733C279.077 108.041 278.5 108.195 277.833 108.195ZM282.763 99.563H282.016V98.6075H282.763V99.563ZM282.763 108H282.016V100.98H282.763V108ZM287.785 100.817C288.409 100.817 288.931 100.965 289.351 101.259C289.776 101.554 290.092 101.955 290.3 102.462C290.508 102.965 290.612 103.53 290.612 104.158V108H289.858V104.347C289.858 103.446 289.676 102.752 289.312 102.267C288.952 101.782 288.411 101.539 287.687 101.539C286.95 101.539 286.396 101.782 286.023 102.267C285.655 102.752 285.471 103.4 285.471 104.21V108H284.717V100.98H285.399V102.033C285.655 101.63 285.988 101.327 286.4 101.123C286.812 100.919 287.273 100.817 287.785 100.817ZM297.385 100.98H298.068V107.753C298.068 108.225 298.044 108.615 297.996 108.923C297.884 109.733 297.582 110.334 297.093 110.724C296.603 111.118 295.914 111.315 295.026 111.315C294.458 111.315 293.929 111.189 293.44 110.938C292.95 110.691 292.558 110.299 292.263 109.762L292.939 109.359C293.143 109.77 293.431 110.074 293.804 110.269C294.181 110.468 294.59 110.568 295.032 110.568C295.591 110.568 296.038 110.464 296.371 110.256C296.705 110.048 296.945 109.738 297.093 109.326C297.24 108.914 297.312 108.39 297.307 107.753V106.94C297.052 107.339 296.727 107.649 296.332 107.87C295.942 108.087 295.496 108.195 294.993 108.195C294.348 108.195 293.793 108.035 293.329 107.714C292.866 107.389 292.512 106.947 292.27 106.388C292.027 105.825 291.906 105.188 291.906 104.477C291.906 103.779 292.025 103.151 292.263 102.592C292.506 102.029 292.855 101.587 293.31 101.266C293.765 100.945 294.302 100.785 294.922 100.785C295.476 100.785 295.962 100.904 296.378 101.142C296.794 101.381 297.13 101.717 297.385 102.15V100.98ZM295.039 107.48C295.55 107.48 295.981 107.352 296.332 107.096C296.683 106.841 296.945 106.488 297.119 106.037C297.296 105.582 297.385 105.062 297.385 104.477C297.385 103.892 297.296 103.376 297.119 102.93C296.945 102.479 296.683 102.128 296.332 101.877C295.981 101.626 295.554 101.5 295.052 101.5C294.536 101.5 294.103 101.628 293.752 101.883C293.401 102.139 293.139 102.492 292.965 102.943C292.792 103.389 292.705 103.901 292.705 104.477C292.705 105.053 292.794 105.569 292.972 106.024C293.149 106.475 293.412 106.83 293.758 107.09C294.109 107.35 294.536 107.48 295.039 107.48Z" fill="#184D48"/>
<path d="M378.097 146.716L385.966 133.082L393.835 146.716H378.097Z" fill="#FDDE10"/>
<path d="M378.097 162.968L385.966 149.334L393.835 162.968H378.097Z" fill="#FDDE10"/>
<path d="M375.648 183.195C374.733 183.195 373.958 182.991 373.321 182.584C372.684 182.172 372.203 181.6 371.878 180.868C371.553 180.136 371.39 179.286 371.39 178.32C371.39 177.354 371.553 176.504 371.878 175.772C372.203 175.04 372.684 174.47 373.321 174.062C373.958 173.651 374.733 173.445 375.648 173.445C376.709 173.445 377.582 173.72 378.267 174.27C378.956 174.821 379.426 175.581 379.678 176.552L378.904 176.74C378.696 175.934 378.315 175.306 377.76 174.855C377.21 174.405 376.506 174.179 375.648 174.179C374.889 174.179 374.252 174.357 373.737 174.712C373.221 175.063 372.833 175.557 372.573 176.194C372.317 176.827 372.19 177.562 372.19 178.398C372.19 179.208 372.322 179.919 372.586 180.53C372.85 181.137 373.24 181.611 373.756 181.953C374.276 182.291 374.907 182.46 375.648 182.46C376.506 182.46 377.21 182.235 377.76 181.784C378.315 181.334 378.696 180.705 378.904 179.899L379.678 180.088C379.426 181.059 378.956 181.819 378.267 182.369C377.582 182.92 376.709 183.195 375.648 183.195ZM384.169 175.817C384.793 175.817 385.316 175.965 385.736 176.259C386.161 176.554 386.477 176.955 386.685 177.462C386.893 177.965 386.997 178.53 386.997 179.158V183H386.243V179.347C386.243 178.446 386.061 177.752 385.697 177.267C385.337 176.782 384.796 176.539 384.072 176.539C383.335 176.539 382.781 176.782 382.408 177.267C382.04 177.752 381.855 178.4 381.855 179.21V183H381.101V173.64H381.784V177.033C382.04 176.63 382.373 176.327 382.785 176.123C383.197 175.919 383.658 175.817 384.169 175.817ZM393.939 177.221C394.065 177.551 394.128 178.019 394.128 178.625V183H393.445V181.778C393.176 182.233 392.806 182.584 392.334 182.831C391.861 183.074 391.32 183.195 390.709 183.195C390.189 183.195 389.747 183.102 389.383 182.915C389.019 182.729 388.746 182.48 388.564 182.168C388.382 181.852 388.291 181.505 388.291 181.128C388.291 180.569 388.457 180.125 388.791 179.795C389.129 179.466 389.578 179.236 390.137 179.106C390.514 179.024 390.914 178.953 391.339 178.892C391.768 178.831 392.303 178.76 392.945 178.677C393.005 178.669 393.072 178.662 393.146 178.658C393.22 178.649 393.298 178.638 393.38 178.625C393.38 177.897 393.224 177.362 392.912 177.02C392.6 176.678 392.084 176.506 391.365 176.506C390.273 176.506 389.593 176.998 389.324 177.982L388.557 177.767C388.717 177.13 389.04 176.641 389.526 176.298C390.011 175.956 390.633 175.785 391.391 175.785C392.032 175.785 392.574 175.911 393.016 176.162C393.458 176.413 393.766 176.766 393.939 177.221ZM390.748 182.506C391.216 182.506 391.632 182.421 391.996 182.252C392.36 182.079 392.652 181.839 392.873 181.531C393.098 181.219 393.241 180.853 393.302 180.432C393.354 180.151 393.38 179.778 393.38 179.314L393.114 179.34C392.455 179.41 391.922 179.473 391.515 179.529C391.107 179.585 390.732 179.657 390.39 179.743C390.013 179.843 389.697 180.003 389.441 180.224C389.185 180.441 389.058 180.744 389.058 181.134C389.058 181.368 389.114 181.589 389.227 181.797C389.339 182.005 389.521 182.177 389.773 182.311C390.028 182.441 390.353 182.506 390.748 182.506ZM396.992 176.468C397.187 176.285 397.425 176.147 397.707 176.051C397.993 175.956 398.277 175.908 398.558 175.908C398.753 175.908 398.935 175.932 399.104 175.98V176.688C398.909 176.645 398.725 176.623 398.552 176.623C398.084 176.623 397.681 176.766 397.343 177.052C397.117 177.247 396.948 177.479 396.836 177.748C396.723 178.012 396.649 178.285 396.615 178.567C396.584 178.849 396.569 179.167 396.569 179.522V183H395.815V175.98H396.498V177.085C396.641 176.834 396.805 176.628 396.992 176.468ZM405.17 175.98H405.853V182.753C405.853 183.225 405.829 183.615 405.781 183.923C405.669 184.733 405.368 185.334 404.878 185.724C404.388 186.118 403.699 186.315 402.811 186.315C402.243 186.315 401.715 186.189 401.225 185.938C400.735 185.691 400.343 185.299 400.048 184.762L400.724 184.359C400.928 184.77 401.216 185.074 401.589 185.269C401.966 185.468 402.375 185.568 402.817 185.568C403.376 185.568 403.823 185.464 404.156 185.256C404.49 185.048 404.731 184.738 404.878 184.326C405.025 183.914 405.097 183.39 405.092 182.753V181.94C404.837 182.339 404.512 182.649 404.117 182.87C403.727 183.087 403.281 183.195 402.778 183.195C402.133 183.195 401.578 183.035 401.114 182.714C400.651 182.389 400.298 181.947 400.055 181.388C399.812 180.825 399.691 180.188 399.691 179.477C399.691 178.779 399.81 178.151 400.048 177.592C400.291 177.029 400.64 176.587 401.095 176.266C401.55 175.945 402.087 175.785 402.707 175.785C403.262 175.785 403.747 175.904 404.163 176.142C404.579 176.381 404.915 176.717 405.17 177.15V175.98ZM402.824 182.48C403.335 182.48 403.766 182.352 404.117 182.096C404.468 181.841 404.731 181.488 404.904 181.037C405.082 180.582 405.17 180.062 405.17 179.477C405.17 178.892 405.082 178.376 404.904 177.93C404.731 177.479 404.468 177.128 404.117 176.877C403.766 176.626 403.34 176.5 402.837 176.5C402.321 176.5 401.888 176.628 401.537 176.883C401.186 177.139 400.924 177.492 400.75 177.943C400.577 178.389 400.49 178.901 400.49 179.477C400.49 180.053 400.579 180.569 400.757 181.024C400.935 181.475 401.197 181.83 401.543 182.09C401.894 182.35 402.321 182.48 402.824 182.48ZM408.089 179.704C408.123 180.584 408.353 181.264 408.778 181.745C409.207 182.226 409.798 182.467 410.552 182.467C411.09 182.467 411.562 182.341 411.969 182.09C412.377 181.839 412.699 181.475 412.938 180.998L413.614 181.297C413.332 181.899 412.925 182.367 412.392 182.701C411.859 183.03 411.25 183.195 410.565 183.195C409.898 183.195 409.317 183.046 408.823 182.746C408.329 182.443 407.948 182.014 407.679 181.459C407.415 180.905 407.283 180.253 407.283 179.503C407.283 178.74 407.415 178.079 407.679 177.52C407.944 176.961 408.321 176.532 408.81 176.233C409.304 175.934 409.885 175.785 410.552 175.785C411.233 175.785 411.815 175.941 412.301 176.253C412.786 176.561 413.152 177.009 413.399 177.598C413.651 178.188 413.772 178.89 413.763 179.704H408.089ZM410.565 176.493C409.842 176.493 409.267 176.714 408.843 177.156C408.418 177.594 408.171 178.218 408.102 179.028H412.957C412.884 178.201 412.643 177.572 412.236 177.143C411.828 176.71 411.272 176.493 410.565 176.493ZM372.658 199H371.91V189.64H377.195V190.387H372.658V193.943H376.415V194.697H372.658V199ZM383.364 193.221C383.489 193.551 383.552 194.019 383.552 194.625V199H382.87V197.778C382.601 198.233 382.231 198.584 381.758 198.831C381.286 199.074 380.744 199.195 380.133 199.195C379.613 199.195 379.171 199.102 378.807 198.915C378.443 198.729 378.17 198.48 377.988 198.168C377.806 197.852 377.715 197.505 377.715 197.128C377.715 196.569 377.882 196.125 378.216 195.795C378.554 195.466 379.002 195.236 379.561 195.106C379.938 195.024 380.339 194.953 380.764 194.892C381.193 194.831 381.728 194.76 382.369 194.677C382.43 194.669 382.497 194.662 382.571 194.658C382.644 194.649 382.722 194.638 382.805 194.625C382.805 193.897 382.649 193.362 382.337 193.02C382.025 192.678 381.509 192.506 380.79 192.506C379.698 192.506 379.017 192.998 378.749 193.982L377.982 193.767C378.142 193.13 378.465 192.641 378.95 192.298C379.436 191.956 380.057 191.785 380.816 191.785C381.457 191.785 381.999 191.911 382.441 192.162C382.883 192.413 383.19 192.766 383.364 193.221ZM380.172 198.506C380.64 198.506 381.056 198.421 381.42 198.252C381.784 198.079 382.077 197.839 382.298 197.531C382.523 197.219 382.666 196.853 382.727 196.432C382.779 196.151 382.805 195.778 382.805 195.314L382.538 195.34C381.88 195.41 381.347 195.473 380.939 195.529C380.532 195.585 380.157 195.657 379.815 195.743C379.438 195.843 379.121 196.003 378.866 196.224C378.61 196.441 378.482 196.744 378.482 197.134C378.482 197.368 378.539 197.589 378.651 197.797C378.764 198.005 378.946 198.177 379.197 198.311C379.453 198.441 379.778 198.506 380.172 198.506ZM387.834 199.182C387.296 199.182 386.817 199.106 386.397 198.954C385.977 198.798 385.634 198.575 385.37 198.285C385.106 197.99 384.932 197.641 384.85 197.238L385.617 197.108C385.73 197.529 385.985 197.862 386.384 198.109C386.787 198.352 387.281 198.473 387.866 198.473C388.252 198.473 388.588 198.419 388.874 198.311C389.16 198.198 389.378 198.038 389.53 197.83C389.686 197.618 389.764 197.371 389.764 197.089C389.764 196.842 389.71 196.647 389.602 196.504C389.493 196.361 389.29 196.229 388.991 196.107C388.696 195.982 388.228 195.832 387.587 195.659C386.919 195.481 386.406 195.308 386.046 195.139C385.691 194.966 385.437 194.771 385.286 194.554C385.138 194.337 385.065 194.064 385.065 193.735C385.065 193.354 385.175 193.016 385.396 192.721C385.617 192.426 385.927 192.197 386.326 192.032C386.724 191.867 387.181 191.785 387.697 191.785C388.213 191.785 388.679 191.872 389.095 192.045C389.515 192.214 389.853 192.452 390.109 192.76C390.364 193.068 390.512 193.421 390.551 193.819L389.784 193.962C389.736 193.663 389.615 193.403 389.42 193.182C389.225 192.961 388.971 192.792 388.659 192.675C388.351 192.554 388 192.493 387.606 192.493C387.259 192.493 386.952 192.545 386.683 192.649C386.414 192.749 386.204 192.89 386.053 193.072C385.905 193.254 385.832 193.462 385.832 193.696C385.832 193.908 385.892 194.086 386.014 194.229C386.135 194.368 386.343 194.498 386.638 194.619C386.937 194.74 387.368 194.872 387.931 195.015C388.616 195.189 389.144 195.366 389.517 195.548C389.89 195.73 390.154 195.943 390.31 196.185C390.47 196.424 390.551 196.727 390.551 197.095C390.551 197.529 390.442 197.901 390.226 198.213C390.009 198.525 389.695 198.766 389.283 198.935C388.876 199.1 388.393 199.182 387.834 199.182ZM393.541 192.662V196.549V196.933C393.541 197.15 393.55 197.323 393.567 197.453C393.584 197.579 393.623 197.698 393.684 197.81C393.792 198.018 393.946 198.17 394.145 198.265C394.345 198.356 394.596 198.402 394.899 198.402C395.142 198.402 395.415 198.376 395.718 198.324V199C395.419 199.065 395.12 199.098 394.821 199.098C394.397 199.098 394.024 199.024 393.703 198.876C393.383 198.725 393.149 198.491 393.001 198.174C392.91 197.984 392.852 197.791 392.826 197.596C392.8 197.397 392.787 197.141 392.787 196.829V196.562V192.662H391.214V191.98H392.787V190.03H393.541V191.98H395.718V192.662H393.541Z" fill="#184D48"/>
<path d="M242.342 83.9782H181.117C178.869 83.9782 177.046 85.8006 177.046 88.0487V104.21C177.046 106.458 178.869 108.28 181.117 108.28H242.342C244.59 108.28 246.412 106.458 246.412 104.21V88.0487C246.412 85.8006 244.59 83.9782 242.342 83.9782Z" fill="white"/>
<path d="M189.757 103.635H183.704C183.187 103.635 182.69 103.429 182.324 103.063C181.958 102.697 181.752 102.201 181.752 101.683V90.5909C181.752 90.0732 181.958 89.5767 182.324 89.2106C182.69 88.8445 183.187 88.6389 183.704 88.6389H189.757C190.275 88.6389 190.772 88.8445 191.138 89.2106C191.504 89.5767 191.709 90.0732 191.709 90.5909V101.683C191.709 102.201 191.504 102.697 191.138 103.063C190.772 103.429 190.275 103.635 189.757 103.635Z" fill="#2F998F"/>
<path d="M203.074 103.635H197.021C196.503 103.635 196.007 103.429 195.64 103.063C195.274 102.697 195.069 102.201 195.069 101.683V90.5909C195.069 90.0732 195.274 89.5767 195.64 89.2106C196.007 88.8445 196.503 88.6389 197.021 88.6389H203.074C203.591 88.6389 204.088 88.8445 204.454 89.2106C204.82 89.5767 205.026 90.0732 205.026 90.5909V101.683C205.026 102.201 204.82 102.697 204.454 103.063C204.088 103.429 203.591 103.635 203.074 103.635Z" fill="#2F998F"/>
<path d="M216.36 103.635H210.307C209.789 103.635 209.293 103.429 208.927 103.063C208.56 102.697 208.355 102.201 208.355 101.683V90.5909C208.355 90.0732 208.56 89.5767 208.927 89.2106C209.293 88.8445 209.789 88.6389 210.307 88.6389H216.36C216.879 88.6389 217.377 88.844 217.745 89.2097C218.114 89.5753 218.323 90.0718 218.327 90.5909V101.683C218.323 102.202 218.114 102.698 217.745 103.064C217.377 103.43 216.879 103.635 216.36 103.635Z" fill="#2F998F"/>
<path d="M229.721 103.635H223.669C223.151 103.635 222.654 103.429 222.288 103.063C221.922 102.697 221.717 102.201 221.717 101.683V90.5909C221.717 90.0732 221.922 89.5767 222.288 89.2106C222.654 88.8445 223.151 88.6389 223.669 88.6389H229.721C230.239 88.6389 230.736 88.8445 231.102 89.2106C231.468 89.5767 231.674 90.0732 231.674 90.5909V101.683C231.674 102.201 231.468 102.697 231.102 103.063C230.736 103.429 230.239 103.635 229.721 103.635Z" fill="#2F998F"/>
<defs>
<linearGradient id="paint0_linear_109_1245" x1="480.667" y1="-63.7905" x2="253.483" y2="433.663" gradientUnits="userSpaceOnUse">
<stop stop-color="#6CDCFF"/>
<stop offset="0.609375" stop-color="#A6EAFF" stop-opacity="0.363438"/>
<stop offset="1" stop-color="#C5F1FF" stop-opacity="0.03"/>
</linearGradient>
<linearGradient id="paint1_linear_109_1245" x1="172" y1="282.5" x2="532" y2="416.5" gradientUnits="userSpaceOnUse">
<stop stop-color="#001B3A"/>
<stop offset="1" stop-color="#002550" stop-opacity="0.14"/>
</linearGradient>
<linearGradient id="paint2_linear_109_1245" x1="266.432" y1="189.949" x2="344.59" y2="189.949" gradientUnits="userSpaceOnUse">
<stop stop-color="#BCD9D2"/>
<stop offset="1" stop-color="#BCD9D2" stop-opacity="0.1"/>
</linearGradient>
<linearGradient id="paint3_linear_109_1245" x1="20790.8" y1="16273.8" x2="29947.7" y2="16273.8" gradientUnits="userSpaceOnUse">
<stop stop-color="#BCD9D2"/>
<stop offset="1" stop-color="#BCD9D2" stop-opacity="0.1"/>
</linearGradient>
<linearGradient id="paint4_linear_109_1245" x1="12092.4" y1="16273.8" x2="17449.6" y2="16273.8" gradientUnits="userSpaceOnUse">
<stop stop-color="#BCD9D2"/>
<stop offset="1" stop-color="#BCD9D2" stop-opacity="0.1"/>
</linearGradient>
<linearGradient id="paint5_linear_109_1245" x1="9842.69" y1="16273.8" x2="16163.5" y2="16273.8" gradientUnits="userSpaceOnUse">
<stop stop-color="#BCD9D2"/>
<stop offset="1" stop-color="#BCD9D2" stop-opacity="0.1"/>
</linearGradient>
<radialGradient id="paint6_radial_109_1245" cx="0" cy="0" r="1" gradientUnits="userSpaceOnUse" gradientTransform="translate(27958.9 36794.9) scale(4559.4 4908.75)">
<stop stop-color="#BCD9D2"/>
<stop offset="1" stop-color="#BCD9D2" stop-opacity="0.1"/>
</radialGradient>
<radialGradient id="paint7_radial_109_1245" cx="0" cy="0" r="1" gradientUnits="userSpaceOnUse" gradientTransform="translate(6168.41 6773.39) scale(763.864 293.617)">
<stop stop-color="#BCD9D2"/>
<stop offset="1" stop-color="#BCD9D2" stop-opacity="0.1"/>
</radialGradient>
<radialGradient id="paint8_radial_109_1245" cx="0" cy="0" r="1" gradientUnits="userSpaceOnUse" gradientTransform="translate(398.082 271.643) scale(14.0578 11.9491)">
<stop stop-color="#BCD9D2"/>
<stop offset="1" stop-color="#66AFB8" stop-opacity="0.1"/>
</radialGradient>
<radialGradient id="paint9_radial_109_1245" cx="0" cy="0" r="1" gradientUnits="userSpaceOnUse" gradientTransform="translate(2099.44 8116.21) scale(69.7329 302.079)">
<stop stop-color="#BCD9D2"/>
<stop offset="1" stop-color="#66AFB8" stop-opacity="0.1"/>
</radialGradient>
<radialGradient id="paint10_radial_109_1245" cx="0" cy="0" r="1" gradientUnits="userSpaceOnUse" gradientTransform="translate(6124.43 2289.84) scale(75.6094 23.5547)">
<stop stop-color="#BCD9D2"/>
<stop offset="1" stop-color="#66AFB8" stop-opacity="0.1"/>
</radialGradient>
<radialGradient id="paint11_radial_109_1245" cx="0" cy="0" r="1" gradientUnits="userSpaceOnUse" gradientTransform="translate(2293.52 9629.39) scale(35.8798 180.192)">
<stop stop-color="#BCD9D2"/>
<stop offset="1" stop-color="#66AFB8" stop-opacity="0.1"/>
</radialGradient>
<linearGradient id="paint12_linear_109_1245" x1="13733" y1="8457.39" x2="14539.7" y2="8457.39" gradientUnits="userSpaceOnUse">
<stop stop-color="#BCD9D2"/>
<stop offset="1" stop-color="#BCD9D2" stop-opacity="0.1"/>
</linearGradient>
<linearGradient id="paint13_linear_109_1245" x1="11831.6" y1="7791.33" x2="12397.1" y2="7791.33" gradientUnits="userSpaceOnUse">
<stop stop-color="#BCD9D2"/>
<stop offset="1" stop-color="#BCD9D2" stop-opacity="0.1"/>
</linearGradient>
<radialGradient id="paint14_radial_109_1245" cx="0" cy="0" r="1" gradientUnits="userSpaceOnUse" gradientTransform="translate(26575.2 2048.63) scale(1042.52 95.1406)">
<stop stop-color="#BCD9D2"/>
<stop offset="1" stop-color="#BCD9D2" stop-opacity="0.1"/>
</radialGradient>
</defs>
</svg>
