<svg width="1536" height="505" viewBox="0 0 1536 505" fill="none" xmlns="http://www.w3.org/2000/svg">
<path d="M211.782 386.403C210.517 382.839 208.421 379.626 205.666 377.029C202.911 374.432 199.577 372.525 195.938 371.467C192.299 370.408 188.459 370.227 184.737 370.94C181.014 371.652 177.514 373.237 174.526 375.564C172.358 372.543 169.59 369.997 166.395 368.086C163.2 366.175 159.646 364.938 155.952 364.452C154.583 359.809 152.201 355.527 148.975 351.911C145.75 348.296 141.763 345.438 137.298 343.542C132.834 341.647 128.005 340.76 123.157 340.947C118.308 341.134 113.562 342.389 109.258 344.622C107.306 341.639 104.648 339.179 101.52 337.46C98.3908 335.742 94.8865 334.816 91.3148 334.765C87.7432 334.714 84.2137 335.54 81.037 337.169C77.8602 338.797 75.1336 341.18 73.0969 344.107C70.495 342.423 67.5322 341.374 64.4484 341.044C61.3645 340.714 58.246 341.113 55.3453 342.208C52.4447 343.303 49.8432 345.064 47.7515 347.348C45.6597 349.632 44.1364 352.376 43.3049 355.356H42.3929C36.2922 355.351 30.4358 357.746 26.0936 362.02C21.7514 366.294 19.2737 372.103 19.1977 378.187C18.6014 378.072 17.996 378.011 17.3889 378.005C15.0472 378.009 12.7878 378.867 11.0356 380.417C9.2834 381.966 8.15896 384.1 7.87366 386.418L211.782 386.403Z" fill="#009245"/>
<g style="mix-blend-mode:multiply" opacity="0.5">
<g style="mix-blend-mode:multiply" opacity="0.5">
<path d="M86.792 339.892C102.25 339.892 115.277 351.399 119.442 367.18C123.386 367.833 127.144 369.322 130.461 371.548C133.778 373.773 136.578 376.684 138.67 380.082C142.845 376.336 148.254 374.248 153.87 374.215C158.06 374.298 162.155 375.469 165.753 377.611C169.352 379.754 172.328 382.795 174.39 386.434H211.751C210.487 382.869 208.39 379.656 205.636 377.059C202.881 374.462 199.546 372.556 195.907 371.497C192.268 370.438 188.429 370.257 184.706 370.97C180.983 371.682 177.484 373.267 174.496 375.594C172.327 372.573 169.56 370.028 166.365 368.116C163.17 366.205 159.615 364.968 155.922 364.482C154.553 359.839 152.17 355.557 148.945 351.942C145.72 348.327 141.732 345.468 137.268 343.573C132.804 341.677 127.974 340.791 123.126 340.977C118.278 341.164 113.531 342.419 109.227 344.653C107.366 341.809 104.863 339.44 101.919 337.735C98.9741 336.031 95.6701 335.037 92.2715 334.836C88.8729 334.634 85.4741 335.229 82.3476 336.573C79.221 337.917 76.4537 339.973 74.2672 342.576C78.2061 340.812 82.4742 339.897 86.792 339.892Z" fill="#009245"/>
</g>
</g>
<path d="M1212.95 386.403C1211.69 382.839 1209.6 379.626 1206.84 377.029C1204.09 374.432 1200.76 372.525 1197.12 371.466C1193.48 370.407 1189.64 370.227 1185.92 370.939C1182.2 371.652 1178.7 373.237 1175.71 375.564C1173.53 372.541 1170.75 369.996 1167.55 368.085C1164.34 366.174 1160.78 364.938 1157.08 364.452C1155.71 359.809 1153.33 355.527 1150.1 351.911C1146.88 348.296 1142.89 345.438 1138.42 343.542C1133.96 341.647 1129.13 340.76 1124.28 340.947C1119.43 341.134 1114.69 342.389 1110.38 344.622C1108.43 341.639 1105.77 339.179 1102.65 337.46C1099.52 335.742 1096.01 334.816 1092.44 334.765C1088.87 334.714 1085.34 335.54 1082.16 337.169C1078.99 338.797 1076.26 341.18 1074.22 344.107C1071.63 342.41 1068.66 341.349 1065.58 341.012C1062.49 340.675 1059.37 341.072 1056.46 342.169C1053.56 343.266 1050.96 345.032 1048.87 347.324C1046.78 349.616 1045.26 352.368 1044.45 355.356H1043.52C1037.42 355.355 1031.57 357.751 1027.22 362.024C1022.88 366.297 1020.4 372.104 1020.32 378.187C1019.73 378.072 1019.13 378.011 1018.53 378.005C1016.19 378.006 1013.92 378.862 1012.17 380.412C1010.41 381.961 1009.29 384.098 1009 386.418L1212.95 386.403Z" fill="#009245"/>
<g style="mix-blend-mode:multiply" opacity="0.5">
<g style="mix-blend-mode:multiply" opacity="0.5">
<path d="M1087.98 339.892C1103.42 339.892 1116.46 351.399 1120.61 367.18C1124.56 367.832 1128.32 369.322 1131.63 371.547C1134.95 373.773 1137.75 376.683 1139.84 380.081C1144.02 376.336 1149.43 374.248 1155.04 374.215C1159.23 374.298 1163.33 375.469 1166.93 377.612C1170.53 379.754 1173.51 382.794 1175.58 386.434H1212.92C1211.66 382.87 1209.57 379.657 1206.81 377.059C1204.06 374.462 1200.73 372.555 1197.09 371.496C1193.45 370.438 1189.61 370.257 1185.89 370.969C1182.17 371.682 1178.67 373.267 1175.68 375.594C1173.51 372.569 1170.74 370.021 1167.54 368.104C1164.34 366.188 1160.78 364.945 1157.08 364.452C1155.71 359.809 1153.33 355.526 1150.1 351.911C1146.88 348.296 1142.89 345.438 1138.42 343.542C1133.96 341.647 1129.13 340.76 1124.28 340.947C1119.43 341.134 1114.69 342.389 1110.38 344.622C1108.52 341.779 1106.02 339.41 1103.08 337.705C1100.13 336 1096.83 335.007 1093.43 334.805C1090.03 334.603 1086.63 335.198 1083.5 336.542C1080.38 337.886 1077.61 339.942 1075.42 342.545C1079.38 340.79 1083.65 339.886 1087.98 339.892Z" fill="#009245"/>
</g>
</g>
<path d="M1535.56 340.438V386.418H1320.83C1321.25 382.953 1322.93 379.762 1325.54 377.446C1328.16 375.131 1331.54 373.852 1335.04 373.851C1335.94 373.852 1336.83 373.938 1337.72 374.109C1337.83 365.034 1341.53 356.372 1348.01 349.999C1354.49 343.625 1363.23 340.054 1372.33 340.059H1373.69C1374.92 335.602 1377.18 331.497 1380.3 328.077C1383.41 324.658 1387.3 322.021 1391.63 320.382C1395.96 318.743 1400.62 318.149 1405.23 318.646C1409.83 319.144 1414.26 320.72 1418.14 323.247C1418.7 322.453 1419.29 321.689 1419.93 320.958C1420.31 320.503 1420.69 320.078 1421.09 319.639C1421.87 318.786 1422.7 317.981 1423.58 317.228C1424.9 316.101 1426.3 315.087 1427.79 314.196C1428.29 313.893 1428.79 313.59 1429.31 313.317L1430.83 312.529C1431.85 312.03 1432.89 311.589 1433.96 311.21C1434.01 311.216 1434.05 311.216 1434.1 311.21C1435.22 310.817 1436.36 310.488 1437.52 310.224C1438.11 310.088 1438.7 309.967 1439.3 309.876C1439.89 309.785 1440.5 309.679 1441.11 309.633C1441.71 309.588 1442.2 309.497 1442.75 309.466H1443.28H1444.8C1450.21 309.463 1455.54 310.807 1460.29 313.374C1465.05 315.942 1469.09 319.653 1472.05 324.172C1482.78 318.587 1495.21 317.159 1506.93 320.162C1518.66 323.165 1528.85 330.387 1535.56 340.438Z" fill="#009245"/>
<g style="mix-blend-mode:multiply" opacity="0.5">
<g style="mix-blend-mode:multiply" opacity="0.5">
<path d="M1535.56 340.438V368.317C1528.28 369.045 1521.42 372.06 1515.97 376.928C1512.85 371.857 1508.67 367.513 1503.72 364.192C1498.77 360.87 1493.17 358.648 1487.28 357.675C1481.08 334.162 1461.63 317.001 1438.64 317.001C1432.21 317.006 1425.86 318.365 1419.99 320.988C1420.37 320.533 1420.75 320.109 1421.15 319.669C1421.94 318.835 1422.77 318.016 1423.64 317.258C1424.96 316.136 1426.37 315.122 1427.85 314.226C1428.35 313.923 1428.85 313.62 1429.37 313.347L1430.89 312.559C1431.91 312.074 1432.94 311.649 1434.02 311.24C1434.07 311.246 1434.11 311.246 1434.16 311.24C1435.28 310.855 1436.42 310.526 1437.58 310.255C1438.17 310.118 1438.76 309.997 1439.36 309.906C1439.95 309.815 1440.56 309.709 1441.17 309.663C1441.77 309.618 1442.26 309.527 1442.81 309.497H1443.34H1444.86C1450.27 309.494 1455.6 310.837 1460.36 313.405C1465.11 315.972 1469.16 319.683 1472.11 324.202C1482.84 318.632 1495.24 317.209 1506.95 320.205C1518.66 323.202 1528.85 330.407 1535.56 340.438Z" fill="#009245"/>
</g>
</g>
<path d="M159.478 120.83V215.126H156.089V202.027L142.743 191.749L156.317 120.83H159.478Z" fill="#CCCCCC"/>
<g style="mix-blend-mode:multiply" opacity="0.5">
<path d="M159.478 120.83H156.317V215.126H159.478V120.83Z" fill="#B3B3B3"/>
</g>
<path d="M75.9088 261.288L157.791 214.14L159.478 217.066L148.124 223.615L145.859 240.276L77.4896 264.017L75.9088 261.288Z" fill="#CCCCCC"/>
<g style="mix-blend-mode:multiply" opacity="0.5">
<path d="M157.789 214.144L75.9119 261.292L77.4927 264.022L159.37 216.875L157.789 214.144Z" fill="#B3B3B3"/>
</g>
<path d="M239.658 263.243L157.791 216.096L159.478 213.17L170.848 219.704L186.443 213.322L241.239 260.515L239.658 263.243Z" fill="#CCCCCC"/>
<g style="mix-blend-mode:multiply" opacity="0.5">
<path d="M159.369 213.359L157.788 216.09L239.666 263.238L241.247 260.507L159.369 213.359Z" fill="#B3B3B3"/>
</g>
<path d="M166.577 396.182H149.006L155.298 217.93H160.269L166.577 396.182Z" fill="#CCCCCC"/>
<g style="mix-blend-mode:multiply" opacity="0.5">
<path d="M166.577 396.182H157.791V217.93H160.269L166.577 396.182Z" fill="#B3B3B3"/>
</g>
<path d="M165.68 215.687C165.68 217.255 165.214 218.788 164.34 220.091C163.467 221.395 162.225 222.412 160.773 223.012C159.32 223.612 157.722 223.769 156.18 223.463C154.637 223.157 153.221 222.402 152.109 221.293C150.997 220.184 150.24 218.771 149.934 217.233C149.627 215.695 149.784 214.101 150.386 212.652C150.988 211.204 152.007 209.965 153.314 209.094C154.621 208.223 156.158 207.758 157.73 207.758C159.839 207.758 161.861 208.593 163.352 210.08C164.843 211.567 165.68 213.584 165.68 215.687Z" fill="white"/>
<g style="mix-blend-mode:multiply" opacity="0.5">
<path d="M160.862 208.364C161.394 209.444 161.67 210.632 161.667 211.836C161.673 213.144 161.352 214.434 160.735 215.589C160.118 216.744 159.224 217.728 158.132 218.453C157.04 219.179 155.785 219.623 154.479 219.746C153.172 219.869 151.856 219.667 150.647 219.158C151.212 220.31 152.047 221.308 153.083 222.067C154.119 222.826 155.323 223.323 156.594 223.516C157.865 223.708 159.163 223.591 160.378 223.174C161.593 222.756 162.689 222.051 163.571 221.119C164.453 220.187 165.095 219.055 165.443 217.821C165.791 216.587 165.833 215.288 165.567 214.034C165.3 212.78 164.733 211.609 163.914 210.622C163.094 209.634 162.047 208.86 160.862 208.364Z" fill="#A1BFCA"/>
</g>
<g style="mix-blend-mode:screen" opacity="0.5">
<path d="M157.457 211.654C157.46 211.999 157.36 212.338 157.17 212.627C156.979 212.915 156.708 213.141 156.388 213.275C156.069 213.41 155.717 213.446 155.377 213.381C155.037 213.315 154.724 213.151 154.478 212.907C154.232 212.664 154.064 212.354 153.996 212.015C153.927 211.676 153.961 211.325 154.093 211.006C154.224 210.686 154.448 210.413 154.736 210.221C155.024 210.028 155.362 209.926 155.709 209.926C156.17 209.926 156.612 210.107 156.94 210.431C157.267 210.755 157.453 211.194 157.457 211.654Z" fill="#58C662"/>
</g>
<path d="M219.306 8.47961V141.236H214.533V122.816L195.73 108.339L214.837 8.47961H219.306Z" fill="white"/>
<g style="mix-blend-mode:multiply" opacity="0.5">
<path d="M219.306 8.47961H214.852V141.251H219.306V8.47961Z" fill="#A1BFCA"/>
</g>
<path d="M101.627 206.242L216.919 139.871L219.306 143.995L203.3 153.197L200.123 176.68L103.862 210.092L101.627 206.242Z" fill="white"/>
<g style="mix-blend-mode:multiply" opacity="0.5">
<path d="M216.914 139.855L101.627 206.241L103.854 210.088L219.14 143.702L216.914 139.855Z" fill="#A1BFCA"/>
</g>
<path d="M332.196 209.001L216.919 142.615L219.306 138.492L235.296 147.694L257.275 138.719L334.43 205.15L332.196 209.001Z" fill="white"/>
<g style="mix-blend-mode:multiply" opacity="0.5">
<path d="M219.14 138.785L216.913 142.631L332.2 209.017L334.426 205.17L219.14 138.785Z" fill="#A1BFCA"/>
</g>
<path d="M229.292 396.182H204.531L213.423 145.208H220.415L229.292 396.182Z" fill="white"/>
<g style="mix-blend-mode:multiply" opacity="0.5">
<path d="M229.292 396.182H216.919V145.208H220.415L229.292 396.182Z" fill="#A1BFCA"/>
</g>
<path d="M224.839 149.935C229.214 145.571 229.214 138.497 224.839 134.134C220.464 129.77 213.371 129.77 208.997 134.134C204.622 138.497 204.622 145.571 208.997 149.935C213.371 154.298 220.464 154.298 224.839 149.935Z" fill="white"/>
<g style="mix-blend-mode:multiply" opacity="0.5">
<path d="M221.236 131.73C222.072 133.432 222.46 135.317 222.364 137.21C222.267 139.102 221.689 140.938 220.684 142.546C219.679 144.154 218.28 145.48 216.618 146.399C214.957 147.318 213.089 147.8 211.189 147.8C209.702 147.796 208.231 147.502 206.857 146.936C207.646 148.561 208.819 149.971 210.276 151.045C211.732 152.118 213.427 152.823 215.217 153.099C217.006 153.375 218.836 153.213 220.549 152.628C222.263 152.043 223.808 151.052 225.052 149.74C226.296 148.428 227.203 146.834 227.694 145.096C228.184 143.357 228.245 141.526 227.869 139.759C227.494 137.993 226.694 136.343 225.539 134.952C224.384 133.562 222.907 132.472 221.236 131.776V131.73Z" fill="#A1BFCA"/>
</g>
<g style="mix-blend-mode:screen" opacity="0.5">
<path d="M216.433 136.369C216.433 136.853 216.289 137.325 216.019 137.727C215.75 138.129 215.367 138.441 214.919 138.626C214.471 138.81 213.978 138.858 213.503 138.762C213.027 138.667 212.591 138.433 212.25 138.09C211.908 137.747 211.676 137.311 211.584 136.836C211.491 136.362 211.542 135.871 211.729 135.425C211.917 134.979 212.233 134.599 212.637 134.333C213.042 134.066 213.516 133.926 214.001 133.929C214.647 133.933 215.266 134.192 215.721 134.649C216.177 135.106 216.433 135.725 216.433 136.369Z" fill="#58C662"/>
</g>
<path d="M1536 383.321H0V505H1536V383.321Z" fill="white"/>
<g style="mix-blend-mode:multiply" opacity="0.7">
<path d="M1244.25 421.317C1364.24 421.317 1461.5 418.744 1461.5 415.571C1461.5 412.398 1364.24 409.825 1244.25 409.825C1124.26 409.825 1027 412.398 1027 415.571C1027 418.744 1124.26 421.317 1244.25 421.317Z" fill="#B3B3B3"/>
</g>
<path d="M1199.64 284.695C1200.32 285.751 1200.66 286.983 1200.64 288.237C1200.61 289.49 1200.22 290.708 1199.5 291.736C1198.78 292.764 1197.77 293.557 1196.6 294.013C1195.43 294.469 1194.15 294.569 1192.92 294.299C1191.69 294.03 1190.57 293.403 1189.7 292.499C1188.83 291.595 1188.25 290.453 1188.03 289.219C1187.81 287.985 1187.96 286.713 1188.47 285.565C1188.97 284.417 1189.81 283.444 1190.87 282.77C1192.29 281.866 1194.01 281.561 1195.65 281.922C1197.3 282.283 1198.73 283.28 1199.64 284.695Z" fill="#A1BFCA"/>
<path d="M1204.2 303.827C1203.41 304.323 1202.45 304.488 1201.54 304.287C1200.62 304.086 1199.83 303.533 1199.32 302.75L1194.01 294.443L1183.04 277.266C1182.54 276.478 1182.37 275.523 1182.57 274.611C1182.77 273.699 1183.33 272.904 1184.12 272.4C1184.68 272.036 1185.33 271.841 1186 271.839C1186.61 271.833 1187.2 271.98 1187.74 272.267C1188.27 272.553 1188.72 272.969 1189.04 273.476L1202.47 294.443L1205.32 298.991C1205.81 299.783 1205.96 300.733 1205.75 301.638C1205.54 302.542 1204.98 303.327 1204.2 303.827Z" fill="white"/>
<g style="mix-blend-mode:multiply">
<path d="M1204.2 303.827C1203.41 304.323 1202.45 304.489 1201.54 304.287C1200.62 304.086 1199.83 303.534 1199.32 302.75L1194.01 294.443H1202.42L1205.28 298.991C1205.77 299.778 1205.93 300.724 1205.72 301.628C1205.52 302.531 1204.98 303.32 1204.2 303.827Z" fill="#4D4D4D"/>
</g>
<path d="M1201.16 310.164H1139.39V294.898L1139.6 294.761L1168.14 276.084C1168.14 276.084 1187.48 280.905 1196.6 294.761C1199.61 299.332 1201.2 304.692 1201.16 310.164Z" fill="black"/>
<path d="M1294.24 221.508C1294.24 221.508 1327.39 229.998 1331.98 276.311L1313.12 317.895H1376.75L1391.4 261.955C1391.4 261.955 1365.68 195.357 1294.24 221.508Z" fill="black"/>
<path d="M1146.36 300.294H1376.75L1331.98 375.534H1196.14L1146.36 314.909V300.294Z" fill="black"/>
<path d="M1322.38 195.584C1288.62 192.916 1242.96 203.665 1203.7 220.462C1160.15 239.109 1124.41 265.169 1121.46 288.682C1121.46 288.879 1121.46 289.061 1121.46 289.258C1121.21 291.735 1121.35 294.237 1121.88 296.671C1121.89 296.784 1121.92 296.896 1121.95 297.005C1122.68 300.262 1123.66 303.46 1124.87 306.571L1125.75 308.769C1142.17 348.033 1192.45 385.782 1192.45 385.782H1318.72C1353.1 385.782 1402.44 308.981 1407.68 285.862C1412.92 262.743 1390.61 200.966 1322.38 195.584ZM1366.38 287.772C1364.03 295.185 1356.35 312.786 1344.36 331.736C1328.72 356.583 1317.61 364.861 1314.44 366.058H1211.8C1202.8 357.983 1194.26 349.403 1186.23 340.362C1173.11 325.43 1166.67 314.712 1163.43 307.859C1162.24 305.305 1161.79 302.472 1162.13 299.676C1162.46 296.881 1163.57 294.234 1165.33 292.032C1173.89 281.572 1190.67 267.67 1214.41 255.163C1245.15 238.957 1279.59 229.3 1306.49 229.3C1309.88 229.3 1313.17 229.452 1316.3 229.74C1324.25 230.338 1331.96 232.763 1338.81 236.827C1345.67 240.89 1351.49 246.481 1355.82 253.162C1361.87 262.056 1365.69 272.265 1366.98 282.936C1367.1 284.571 1366.9 286.215 1366.38 287.772Z" fill="white"/>
<g style="mix-blend-mode:multiply" opacity="0.5">
<path d="M1376.69 280.192C1375.32 268.342 1371.15 256.984 1364.53 247.052C1354.09 231.498 1339.48 222.721 1321.24 220.962C1317.83 220.629 1314.22 220.462 1310.51 220.462C1281.03 220.462 1243.32 231.225 1209.66 249.266C1183.65 263.183 1165.27 278.691 1155.89 290.334C1153.96 292.792 1152.74 295.732 1152.37 298.832C1152 301.933 1152.49 305.076 1153.78 307.92C1157.26 315.5 1164.31 327.476 1178.69 344.076C1187.47 354.156 1196.82 363.723 1206.71 372.729H1319.19C1322.64 371.38 1334.8 362.117 1351.96 334.51C1365.08 313.286 1373.48 293.745 1376.08 285.468C1376.63 283.766 1376.83 281.973 1376.69 280.192ZM1366.38 287.772C1364.03 295.185 1356.35 312.786 1344.36 331.736C1328.72 356.583 1317.61 364.861 1314.44 366.058H1211.8C1202.8 357.983 1194.26 349.403 1186.23 340.362C1173.11 325.43 1166.67 314.712 1163.43 307.859C1162.24 305.305 1161.79 302.472 1162.13 299.676C1162.46 296.881 1163.57 294.234 1165.33 292.032C1173.89 281.572 1190.67 267.67 1214.41 255.163C1245.15 238.957 1279.59 229.3 1306.49 229.3C1309.88 229.3 1313.17 229.452 1316.3 229.74C1324.25 230.338 1331.96 232.763 1338.81 236.827C1345.67 240.89 1351.49 246.481 1355.82 253.162C1361.87 262.056 1365.69 272.265 1366.98 282.936C1367.1 284.571 1366.9 286.215 1366.38 287.772Z" fill="#A1BFCA"/>
</g>
<path d="M1282.28 259.636L1290.38 262.396L1276.1 304.084L1268 301.323C1266.75 300.897 1265.72 299.992 1265.14 298.808C1264.55 297.624 1264.47 296.258 1264.89 295.01L1275.97 262.69C1276.41 261.453 1277.31 260.439 1278.5 259.867C1279.68 259.295 1281.04 259.212 1282.28 259.636Z" fill="black"/>
<path d="M1274.5 308.754C1272.88 308.199 1271.55 307.027 1270.8 305.495C1270.05 303.964 1269.93 302.197 1270.49 300.582L1283.8 261.727C1284.36 260.115 1285.53 258.788 1287.07 258.037C1288.6 257.287 1290.37 257.175 1291.99 257.725C1293.61 258.28 1294.94 259.452 1295.69 260.984C1296.45 262.515 1296.56 264.282 1296.01 265.896L1282.69 304.751C1282.13 306.364 1280.96 307.691 1279.42 308.442C1277.89 309.192 1276.12 309.304 1274.5 308.754Z" fill="white"/>
<path d="M1394.52 358.433L1377.28 347.821V324.93C1377.28 323.229 1376.6 321.598 1375.4 320.395C1374.19 319.193 1372.56 318.517 1370.85 318.517H1358.69C1357.98 318.517 1357.27 318.687 1356.64 319.014C1356 319.341 1355.46 319.815 1355.04 320.397L1344.4 335.178C1344.08 335.542 1343.76 335.921 1343.46 336.33L1313.23 378.869C1312.15 380.388 1310.71 381.627 1309.05 382.481C1307.39 383.336 1305.55 383.781 1303.68 383.781H1202.06C1200.27 383.777 1198.51 383.366 1196.9 382.577C1195.3 381.789 1193.9 380.645 1192.81 379.233L1146.44 319.411C1144.34 316.727 1141.45 314.777 1138.17 313.845C1134.89 312.912 1131.4 313.046 1128.2 314.227C1126.78 311.195 1125.95 309.103 1125.95 309.103L1114.46 319.502L1113.7 319.79C1112.46 320.278 1111.38 321.071 1110.54 322.095C1109.48 323.428 1108.9 325.078 1108.89 326.779C1108.89 326.779 1079.41 342.97 1071.2 350.504C1069.15 352.455 1067.61 354.884 1066.73 357.573C1065.86 360.261 1065.66 363.125 1066.17 365.907L1066.52 367.757L1069.12 381.871C1069.12 382.265 1069.27 382.644 1069.36 383.023C1070.31 386.691 1072.45 389.942 1075.44 392.266C1078.44 394.59 1082.13 395.855 1085.93 395.863H1386.83C1388.51 395.848 1390.17 395.471 1391.69 394.76C1393.22 394.048 1394.57 393.018 1395.66 391.74C1397.32 389.823 1398.42 387.481 1398.82 384.978L1400.92 372.532C1401.41 369.812 1401.06 367.008 1399.92 364.49C1398.77 361.973 1396.89 359.86 1394.52 358.433Z" fill="black"/>
<path d="M1075.76 369.439V381.567C1075.75 381.992 1075.58 382.399 1075.28 382.699C1074.98 383 1074.57 383.17 1074.15 383.174H1069.19C1069.1 382.795 1069.02 382.416 1068.95 382.022L1066.35 367.908H1074.15C1074.56 367.904 1074.96 368.062 1075.26 368.347C1075.57 368.633 1075.74 369.025 1075.76 369.439Z" fill="#333333"/>
<path d="M1112.34 324.99L1108.79 326.809C1108.79 325.105 1109.37 323.451 1110.44 322.125C1110.85 322.06 1111.26 322.03 1111.68 322.034C1112.06 321.959 1112.47 322.038 1112.8 322.254C1113.13 322.469 1113.36 322.805 1113.45 323.189C1113.53 323.573 1113.47 323.976 1113.26 324.312C1113.06 324.648 1112.73 324.892 1112.34 324.99Z" fill="#FBB03B"/>
<path d="M1395.72 391.831C1394.63 393.111 1393.28 394.142 1391.75 394.853C1390.23 395.565 1388.57 395.94 1386.89 395.954H1085.76C1081.67 395.959 1077.72 394.495 1074.63 391.831H1395.72Z" fill="#333333"/>
<path d="M1120.19 416.814C1142.16 416.814 1159.97 399.052 1159.97 377.141C1159.97 355.229 1142.16 337.467 1120.19 337.467C1098.22 337.467 1080.41 355.229 1080.41 377.141C1080.41 399.052 1098.22 416.814 1120.19 416.814Z" fill="#1A1A1A"/>
<path d="M1120.19 412.372C1139.7 412.372 1155.51 396.598 1155.51 377.14C1155.51 357.682 1139.7 341.909 1120.19 341.909C1100.68 341.909 1084.86 357.682 1084.86 377.14C1084.86 396.598 1100.68 412.372 1120.19 412.372Z" fill="black"/>
<path d="M1155.45 374.957C1155.52 376.27 1155.52 377.586 1155.45 378.899C1155.36 379.956 1155.5 381.019 1155.84 382.021C1156.19 383.023 1156.75 383.941 1157.47 384.715C1158.2 385.489 1159.08 386.103 1160.06 386.517C1161.04 386.93 1162.1 387.134 1163.16 387.116C1163.59 387.116 1164.01 386.964 1164.35 386.687C1164.68 386.41 1164.9 386.025 1164.98 385.6C1166.97 375.209 1165.27 364.451 1160.17 355.177C1155.07 345.903 1146.88 338.693 1137.02 334.789C1127.17 330.885 1116.25 330.53 1106.16 333.786C1096.07 337.041 1087.43 343.704 1081.73 352.627C1081.43 353.098 1081.26 353.642 1081.24 354.201C1081.22 354.76 1081.35 355.314 1081.62 355.806C1081.89 356.297 1082.29 356.707 1082.77 356.993C1083.25 357.279 1083.8 357.431 1084.36 357.432H1086.35C1087.7 357.42 1089.02 357.12 1090.24 356.552C1091.45 355.984 1092.53 355.163 1093.41 354.143C1096.91 350.078 1101.29 346.865 1106.23 344.75C1111.17 342.635 1116.52 341.673 1121.89 341.939C1139.04 342.788 1154.42 357.948 1155.45 374.957Z" fill="#333333"/>
<path d="M1120.19 400.699C1133.23 400.699 1143.81 390.152 1143.81 377.14C1143.81 364.129 1133.23 353.582 1120.19 353.582C1107.14 353.582 1096.57 364.129 1096.57 377.14C1096.57 390.152 1107.14 400.699 1120.19 400.699Z" fill="white"/>
<path d="M1141.1 377.125C1141.1 382.248 1139.2 387.19 1135.77 391.006C1132.35 394.822 1127.63 397.244 1122.53 397.81C1117.42 398.376 1112.29 397.046 1108.1 394.074C1103.92 391.102 1100.98 386.696 1099.85 381.699C1098.72 376.702 1099.47 371.464 1101.96 366.987C1104.46 362.509 1108.52 359.106 1113.38 357.428C1118.23 355.749 1123.53 355.913 1128.27 357.889C1133.01 359.864 1136.85 363.512 1139.07 368.135C1140.41 370.943 1141.11 374.015 1141.1 377.125Z" fill="black"/>
<path d="M1136.91 385.372C1137.61 385.66 1138.34 385.903 1139.07 386.13C1137 390.421 1133.52 393.88 1129.22 395.939C1129 395.211 1128.75 394.499 1128.47 393.801C1126.94 390.146 1124.81 386.771 1122.16 383.811C1120.88 384.205 1119.51 384.205 1118.23 383.811C1115.59 386.771 1113.45 390.146 1111.92 393.801C1111.65 394.499 1111.39 395.211 1111.17 395.939C1106.87 393.88 1103.39 390.421 1101.31 386.13C1102.05 385.903 1102.83 385.66 1103.48 385.372C1107.16 383.863 1110.54 381.741 1113.5 379.096C1113.1 377.822 1113.1 376.459 1113.5 375.185C1110.54 372.54 1107.15 370.408 1103.48 368.878C1102.77 368.605 1102.05 368.348 1101.31 368.135C1103.39 363.841 1106.87 360.377 1111.17 358.312C1111.39 359.043 1111.64 359.762 1111.93 360.465C1113.46 364.121 1115.59 367.498 1118.23 370.455C1119.51 370.076 1120.88 370.076 1122.16 370.455C1124.81 367.498 1126.93 364.121 1128.46 360.465C1128.75 359.767 1128.99 359.055 1129.22 358.312C1133.52 360.378 1136.99 363.842 1139.07 368.135C1138.34 368.348 1137.55 368.605 1136.91 368.878C1133.24 370.404 1129.85 372.536 1126.89 375.185C1127.27 376.461 1127.27 377.82 1126.89 379.096C1129.85 381.744 1133.23 383.867 1136.91 385.372Z" fill="#333333"/>
<path d="M1124.58 377.125C1124.58 377.993 1124.33 378.841 1123.85 379.564C1123.37 380.286 1122.68 380.85 1121.88 381.184C1121.08 381.518 1120.19 381.607 1119.34 381.439C1118.49 381.272 1117.7 380.856 1117.09 380.244C1116.47 379.632 1116.05 378.851 1115.88 378.001C1115.71 377.151 1115.8 376.269 1116.13 375.467C1116.46 374.666 1117.02 373.981 1117.75 373.499C1118.47 373.017 1119.32 372.759 1120.19 372.759C1121.35 372.759 1122.47 373.219 1123.29 374.037C1124.11 374.856 1124.58 375.966 1124.58 377.125Z" fill="white"/>
<path d="M1121.8 377.125C1121.82 377.349 1121.8 377.574 1121.73 377.787C1121.65 377.999 1121.54 378.195 1121.39 378.361C1121.24 378.527 1121.05 378.66 1120.85 378.751C1120.64 378.841 1120.42 378.888 1120.2 378.888C1119.97 378.888 1119.75 378.841 1119.54 378.751C1119.34 378.66 1119.15 378.527 1119 378.361C1118.85 378.195 1118.74 377.999 1118.67 377.787C1118.6 377.574 1118.57 377.349 1118.59 377.125C1118.63 376.728 1118.82 376.359 1119.11 376.091C1119.41 375.823 1119.8 375.674 1120.2 375.674C1120.6 375.674 1120.98 375.823 1121.28 376.091C1121.57 376.359 1121.76 376.728 1121.8 377.125Z" fill="#333333"/>
<g style="mix-blend-mode:multiply" opacity="0.7">
<path d="M1136.91 368.878C1137.61 368.605 1138.34 368.348 1139.07 368.135C1136.99 363.842 1133.52 360.378 1129.22 358.312C1128.99 359.055 1128.75 359.828 1128.46 360.465C1132.12 362.271 1135.09 365.227 1136.91 368.878ZM1128.47 393.801C1128.75 394.499 1129 395.211 1129.22 395.939C1133.52 393.88 1137 390.421 1139.07 386.13C1138.34 385.903 1137.55 385.66 1136.91 385.372C1135.09 389.024 1132.13 391.983 1128.47 393.801ZM1101.31 368.135C1102.05 368.348 1102.83 368.605 1103.48 368.878C1105.29 365.221 1108.26 362.263 1111.93 360.465C1111.64 359.762 1111.39 359.043 1111.17 358.312C1106.87 360.377 1103.39 363.841 1101.31 368.135ZM1103.48 385.372C1102.77 385.66 1102.05 385.903 1101.31 386.13C1103.39 390.421 1106.87 393.88 1111.17 395.939C1111.39 395.211 1111.65 394.499 1111.92 393.801C1108.26 391.992 1105.29 389.03 1103.48 385.372Z" fill="#4D4D4D"/>
</g>
<path d="M1383 416.814C1404.96 416.814 1422.77 399.052 1422.77 377.141C1422.77 355.229 1404.96 337.467 1383 337.467C1361.03 337.467 1343.22 355.229 1343.22 377.141C1343.22 399.052 1361.03 416.814 1383 416.814Z" fill="#1A1A1A"/>
<path d="M1383 412.372C1402.51 412.372 1418.32 396.598 1418.32 377.14C1418.32 357.682 1402.51 341.909 1383 341.909C1363.49 341.909 1347.67 357.682 1347.67 377.14C1347.67 396.598 1363.49 412.372 1383 412.372Z" fill="black"/>
<path d="M1347.75 374.957C1347.67 376.27 1347.67 377.586 1347.75 378.899C1347.82 379.954 1347.68 381.013 1347.32 382.01C1346.97 383.006 1346.41 383.919 1345.69 384.691C1344.96 385.462 1344.08 386.076 1343.11 386.493C1342.14 386.911 1341.09 387.123 1340.03 387.116C1339.59 387.115 1339.18 386.963 1338.84 386.686C1338.51 386.409 1338.29 386.024 1338.22 385.6C1336.23 375.214 1337.94 364.464 1343.04 355.197C1348.15 345.931 1356.33 338.727 1366.18 334.824C1376.03 330.921 1386.94 330.564 1397.03 333.813C1407.11 337.062 1415.75 343.714 1421.45 352.627C1421.76 353.096 1421.93 353.639 1421.96 354.199C1421.98 354.759 1421.85 355.314 1421.58 355.807C1421.31 356.299 1420.92 356.71 1420.43 356.996C1419.95 357.283 1419.4 357.433 1418.84 357.432H1416.85C1415.5 357.422 1414.18 357.122 1412.96 356.555C1411.74 355.987 1410.66 355.164 1409.79 354.143C1406.29 350.08 1401.9 346.868 1396.97 344.753C1392.03 342.638 1386.67 341.676 1381.31 341.939C1364.15 342.788 1348.78 357.948 1347.75 374.957Z" fill="#333333"/>
<path d="M1383 400.699C1396.04 400.699 1406.62 390.152 1406.62 377.14C1406.62 364.129 1396.04 353.582 1383 353.582C1369.95 353.582 1359.38 364.129 1359.38 377.14C1359.38 390.152 1369.95 400.699 1383 400.699Z" fill="white"/>
<path d="M1362.1 377.125C1362.1 382.248 1364 387.19 1367.42 391.006C1370.85 394.822 1375.57 397.244 1380.67 397.81C1385.78 398.376 1390.91 397.046 1395.1 394.074C1399.28 391.102 1402.22 386.696 1403.35 381.699C1404.48 376.702 1403.73 371.464 1401.23 366.987C1398.74 362.509 1394.68 359.106 1389.82 357.428C1384.97 355.749 1379.67 355.913 1374.93 357.889C1370.19 359.864 1366.35 363.512 1364.13 368.135C1362.79 370.943 1362.09 374.015 1362.1 377.125Z" fill="black"/>
<path d="M1376.31 379.172C1372.79 382.341 1368.65 384.737 1364.15 386.206C1366.21 390.504 1369.69 393.969 1374 396.03C1375.47 391.539 1377.87 387.407 1381.05 383.902C1382.34 384.266 1383.7 384.266 1384.99 383.902C1388.16 387.407 1390.57 391.539 1392.04 396.03C1396.35 393.969 1399.82 390.504 1401.89 386.206C1397.39 384.737 1393.24 382.341 1389.73 379.172C1390.11 377.891 1390.11 376.527 1389.73 375.246C1393.24 372.072 1397.38 369.675 1401.89 368.211C1399.82 363.914 1396.35 360.449 1392.04 358.388C1390.56 362.876 1388.16 367.007 1384.99 370.516C1383.7 370.137 1382.34 370.137 1381.05 370.516C1377.88 367.007 1375.48 362.876 1374 358.388C1369.69 360.449 1366.21 363.914 1364.15 368.211C1368.65 369.675 1372.8 372.072 1376.31 375.246C1375.93 376.527 1375.93 377.891 1376.31 379.172Z" fill="#333333"/>
<g style="mix-blend-mode:multiply" opacity="0.7">
<g style="mix-blend-mode:multiply" opacity="0.7">
<path d="M1399.72 368.878C1400.43 368.605 1401.14 368.348 1401.87 368.135C1399.8 363.842 1396.33 360.378 1392.02 358.312C1391.8 359.055 1391.55 359.828 1391.26 360.465C1394.93 362.271 1397.9 365.227 1399.72 368.878ZM1391.28 393.801C1391.55 394.499 1391.81 395.211 1392.02 395.954C1396.33 393.884 1399.8 390.421 1401.87 386.13C1401.14 385.903 1400.43 385.66 1399.72 385.372C1397.9 389.027 1394.94 391.988 1391.28 393.801ZM1364.13 368.135C1364.86 368.348 1365.58 368.605 1366.29 368.878C1368.11 365.227 1371.08 362.271 1374.74 360.465C1374.45 359.762 1374.19 359.043 1373.98 358.312C1369.67 360.373 1366.2 363.838 1364.13 368.135ZM1366.29 385.372C1365.58 385.66 1364.86 385.903 1364.13 386.13C1366.2 390.424 1369.68 393.888 1373.98 395.954C1374.2 395.211 1374.45 394.438 1374.73 393.801C1371.07 391.988 1368.1 389.027 1366.29 385.372Z" fill="#4D4D4D"/>
</g>
</g>
<path d="M1378.62 377.125C1378.62 377.993 1378.87 378.842 1379.35 379.565C1379.83 380.288 1380.52 380.852 1381.32 381.185C1382.13 381.519 1383.01 381.607 1383.86 381.438C1384.72 381.27 1385.5 380.852 1386.12 380.238C1386.73 379.625 1387.15 378.843 1387.32 377.991C1387.49 377.14 1387.4 376.258 1387.07 375.457C1386.73 374.655 1386.17 373.971 1385.44 373.491C1384.72 373.011 1383.87 372.756 1383 372.759C1381.84 372.759 1380.72 373.219 1379.9 374.038C1379.08 374.857 1378.62 375.967 1378.62 377.125Z" fill="white"/>
<path d="M1381.4 377.125C1381.38 377.447 1381.46 377.767 1381.63 378.043C1381.79 378.319 1382.04 378.539 1382.33 378.675C1382.63 378.81 1382.95 378.854 1383.27 378.802C1383.59 378.749 1383.89 378.602 1384.12 378.38C1384.35 378.158 1384.52 377.87 1384.58 377.555C1384.65 377.24 1384.62 376.912 1384.5 376.613C1384.38 376.315 1384.17 376.059 1383.9 375.88C1383.64 375.701 1383.32 375.607 1383 375.609C1382.59 375.612 1382.19 375.771 1381.9 376.052C1381.6 376.334 1381.42 376.718 1381.4 377.125Z" fill="#333333"/>
<path d="M1369.98 327.476H1361.21C1360.84 327.476 1360.49 327.329 1360.23 327.068C1359.96 326.806 1359.82 326.451 1359.82 326.082C1359.82 325.714 1359.97 325.363 1360.23 325.105C1360.49 324.847 1360.85 324.702 1361.21 324.702H1369.98C1370.35 324.702 1370.7 324.847 1370.96 325.106C1371.22 325.365 1371.37 325.716 1371.37 326.082C1371.37 326.449 1371.22 326.801 1370.96 327.062C1370.7 327.324 1370.35 327.472 1369.98 327.476Z" fill="white" stroke="#231F20" stroke-width="0.5" stroke-miterlimit="10"/>
<path d="M1169.1 300.34H1156.65C1156.07 300.338 1155.5 300.45 1154.96 300.67C1154.42 300.89 1153.94 301.214 1153.53 301.622C1153.11 302.031 1152.79 302.516 1152.57 303.051C1152.34 303.585 1152.23 304.158 1152.23 304.737V312.407C1152.23 313.883 1152.71 315.318 1153.6 316.501L1164.48 331.115C1164.89 331.669 1165.43 332.119 1166.05 332.43C1166.66 332.74 1167.35 332.903 1168.04 332.904H1179.77L1169.1 300.34Z" fill="black"/>
<path d="M1353.84 305.328L1345.68 342.257C1343.42 352.521 1335.04 359.752 1325.27 359.752H1265.99C1264.44 359.748 1262.9 359.513 1261.43 359.055L1175.74 332.313C1171.78 330.973 1168.23 328.619 1165.46 325.485C1162.69 322.352 1160.79 318.548 1159.95 314.454L1157.91 305.358C1157.65 304.171 1157.68 302.937 1158.01 301.765C1158.33 300.428 1159.09 299.236 1160.17 298.373C1161.24 297.51 1162.57 297.024 1163.95 296.99H1347.87C1349.25 297.029 1350.57 297.517 1351.65 298.379C1352.72 299.242 1353.48 300.431 1353.81 301.765C1354.12 302.932 1354.13 304.156 1353.84 305.328Z" fill="white"/>
<path d="M1265.99 346.578C1265.59 346.578 1265.19 346.517 1264.82 346.396L1179.13 319.654C1176.79 318.926 1174.3 315.106 1172.86 312.513C1172.71 312.286 1172.62 312.023 1172.61 311.752C1172.59 311.481 1172.65 311.211 1172.78 310.97C1172.91 310.73 1173.1 310.529 1173.33 310.387C1173.56 310.245 1173.83 310.168 1174.1 310.164H1336.15C1336.64 310.187 1337.11 310.318 1337.55 310.548C1337.98 310.777 1338.35 311.1 1338.64 311.491C1338.93 311.883 1339.13 312.334 1339.23 312.813C1339.32 313.291 1339.31 313.784 1339.19 314.257L1333.66 339.225C1333.31 341.224 1332.29 343.044 1330.77 344.383C1329.24 345.721 1327.3 346.496 1325.27 346.578H1265.99Z" fill="black"/>
<path d="M1342.02 311.073L1340.16 319.654C1339.99 320.474 1339.54 321.209 1338.88 321.736C1338.23 322.263 1337.42 322.55 1336.58 322.549H1327.74C1323.96 322.55 1320.23 321.623 1316.89 319.851L1306.6 314.363C1306.2 314.151 1305.89 313.793 1305.73 313.362L1305.08 311.543C1304.98 311.267 1304.95 310.972 1305 310.682C1305.04 310.392 1305.15 310.116 1305.32 309.877C1305.49 309.638 1305.71 309.443 1305.97 309.308C1306.23 309.174 1306.52 309.103 1306.81 309.103H1340.42C1340.66 309.104 1340.9 309.16 1341.12 309.265C1341.34 309.37 1341.53 309.522 1341.69 309.711C1341.84 309.9 1341.95 310.12 1342.01 310.355C1342.06 310.591 1342.07 310.836 1342.02 311.073Z" fill="#A1BFCA"/>
<g style="mix-blend-mode:multiply" opacity="0.5">
<path d="M1353.16 300.34C1352.66 299.356 1351.9 298.527 1350.96 297.942C1350.02 297.357 1348.94 297.038 1347.84 297.02H1163.92C1162.81 297.038 1161.73 297.357 1160.8 297.942C1159.86 298.527 1159.1 299.356 1158.6 300.34H1353.16Z" fill="#A1BFCA"/>
</g>
<path d="M1125.68 308.708L1124.79 306.51C1123.58 303.399 1122.61 300.201 1121.88 296.944L1138.09 290.41C1138.09 290.41 1138.41 299.643 1125.68 308.708Z" fill="black"/>
<path d="M1211.56 228.709C1155.32 251.585 1133.94 284.543 1133.94 284.543L1121.46 288.621C1124.41 265.169 1160.15 239.109 1203.7 220.401H1209.96C1210.99 220.357 1212 220.683 1212.8 221.32C1213.61 221.956 1214.16 222.86 1214.35 223.868C1214.55 224.875 1214.37 225.919 1213.86 226.807C1213.34 227.696 1212.53 228.371 1211.56 228.709Z" fill="black"/>
<path d="M88.9049 106.156C100.229 106.156 109.41 96.9994 109.41 85.7048C109.41 74.4101 100.229 65.2539 88.9049 65.2539C77.5804 65.2539 68.4001 74.4101 68.4001 85.7048C68.4001 96.9994 77.5804 106.156 88.9049 106.156Z" fill="white"/>
<path d="M93.5257 76.927C90.9498 78.6026 89.0497 81.1313 88.1601 84.0673C87.3807 87.388 87.3807 90.8433 88.1601 94.1639C88.2817 93.7849 88.3881 93.4059 88.4945 93.0269C90.8809 85.0982 93.0545 78.8068 93.0545 78.8068C93.0545 78.8068 91.3521 85.3863 88.9657 93.315C88.8593 93.694 88.7377 94.073 88.6313 94.452C91.0338 92.7579 92.8036 90.3154 93.6625 87.5087C94.4565 84.0203 94.4096 80.3938 93.5257 76.927Z" fill="#29ABE2"/>
<path d="M86.8528 88.2818C85.6368 84.5524 84.8616 81.9904 84.8616 81.9904C84.8616 81.9904 85.7128 84.1279 86.8984 87.3873C86.9802 86.1912 87.1891 85.0072 87.5216 83.8551C87.5216 83.7338 87.5976 83.6125 87.6432 83.4912C86.7065 82.3121 85.588 81.2887 84.3296 80.4592C83.4595 83.107 83.4118 85.9552 84.1928 88.6305C84.8488 90.356 85.8882 91.9109 87.2328 93.1785C86.9445 91.5627 86.8173 89.9225 86.8528 88.2818Z" fill="#29ABE2"/>
<path d="M104.646 42.0219C111.907 33.3545 110.749 20.4574 102.058 13.2154C93.368 5.97348 80.4369 7.12905 73.1759 15.7965C65.9148 24.4639 67.0734 37.361 75.7637 44.603C84.454 51.8449 97.3851 50.6893 104.646 42.0219Z" fill="white"/>
<path d="M97.7057 30.4919V27.4599H95.1825C95.0261 26.8009 94.7644 26.1713 94.4073 25.5952L96.1857 23.8215L94.0729 21.6991L92.2793 23.4728C91.6999 23.1203 91.0692 22.8595 90.4097 22.6997V20.1831H87.3697V22.6997C86.7053 22.8594 86.0696 23.1202 85.4849 23.4728L83.7065 21.6991L81.5785 23.8215L83.3569 25.5952C83.006 26.1744 82.7446 26.803 82.5817 27.4599H80.1041V30.4919H82.6273C82.7902 31.1488 83.0516 31.7774 83.4025 32.3566L81.6241 34.1455L83.7521 36.2527L85.5305 34.479C86.1152 34.8317 86.7509 35.0924 87.4153 35.2521V37.7687H90.4553V35.1915C91.1148 35.0317 91.7455 34.7709 92.3249 34.4183L94.1185 36.1921L96.2313 34.0848L94.4529 32.296C94.81 31.7199 95.0717 31.0903 95.2281 30.4313L97.7057 30.4919ZM88.9049 32.4324C88.2231 32.4324 87.5566 32.2309 86.9895 31.8535C86.4224 31.476 85.9802 30.9394 85.7186 30.3115C85.457 29.6835 85.3878 28.9924 85.5197 28.3253C85.6516 27.6581 85.9787 27.0449 86.4597 26.563C86.9408 26.0812 87.5541 25.7522 88.2225 25.6177C88.8908 25.4833 89.584 25.5492 90.2148 25.8074C90.8455 26.0655 91.3854 26.5042 91.7664 27.0682C92.1473 27.6321 92.3523 28.2959 92.3553 28.9759C92.3433 29.8807 91.9745 30.7444 91.3287 31.3799C90.6829 32.0155 89.8121 32.3718 88.9049 32.3718V32.4324Z" fill="#29ABE2"/>
<path d="M88.9049 162.915C100.229 162.915 109.41 153.758 109.41 142.464C109.41 131.169 100.229 122.013 88.9049 122.013C77.5804 122.013 68.4001 131.169 68.4001 142.464C68.4001 153.758 77.5804 162.915 88.9049 162.915Z" fill="white"/>
<path d="M90.3488 148.573V151.241H88.0232V148.558C86.4136 148.339 84.8918 147.695 83.6152 146.693L84.8616 144.192C86.1109 145.256 87.6631 145.903 89.3 146.042C90.2424 146.042 90.82 145.693 90.82 145.056C90.82 142.979 84.3752 144.222 84.3752 139.902C84.4088 138.949 84.8014 138.043 85.4747 137.366C86.1481 136.689 87.0527 136.29 88.008 136.248V133.686H90.3336V136.233C91.6934 136.381 93.0026 136.831 94.164 137.552L92.9632 140.084C91.7607 139.356 90.4105 138.906 89.0112 138.765C88.236 138.765 87.7344 139.053 87.7344 139.599C87.7344 141.63 94.1792 140.478 94.1792 144.874C94.24 147.027 92.5528 148.27 90.3488 148.573Z" fill="#29ABE2"/>
</svg>
