<svg width="527" height="78" viewBox="0 0 527 78" fill="none" xmlns="http://www.w3.org/2000/svg">
<path d="M203.954 77.4033C202.691 73.8395 200.596 70.6263 197.843 68.0291C195.09 65.4319 191.756 63.5251 188.118 62.4662C184.48 61.4073 180.642 61.2267 176.92 61.9392C173.198 62.6517 169.7 64.2369 166.714 66.5639C164.532 63.5414 161.753 60.9963 158.548 59.0852C155.344 57.1742 151.78 55.9376 148.078 55.4517C146.71 50.8092 144.327 46.5266 141.102 42.9114C137.877 39.2962 133.889 36.4382 129.425 34.5425C124.961 32.6468 120.131 31.7605 115.283 31.9472C110.435 32.1339 105.688 33.389 101.384 35.6224C99.432 32.6387 96.7747 30.1793 93.6459 28.4605C90.5172 26.7416 87.0128 25.8161 83.4411 25.7652C79.8695 25.7142 76.3401 26.5395 73.1633 28.1685C69.9866 29.7975 67.2599 32.1802 65.2232 35.1069C62.6259 33.4095 59.6629 32.3491 56.5762 32.0122C53.4894 31.6753 50.3666 32.0716 47.4628 33.1686C44.5589 34.2655 41.9565 36.0321 39.868 38.324C37.7796 40.6159 36.2645 43.3681 35.4464 46.3557H34.5192C28.4197 46.3551 22.5656 48.7508 18.2243 53.0239C13.883 57.2971 11.4039 63.1038 11.324 69.1866C10.7329 69.0721 10.1326 69.0112 9.53041 69.0047C7.18608 69.0058 4.92306 69.8618 3.16766 71.4115C1.41225 72.9613 0.285621 75.0978 0 77.4185L203.954 77.4033Z" fill="#009245"/>
<g style="mix-blend-mode:multiply" opacity="0.5">
<g style="mix-blend-mode:multiply" opacity="0.5">
<path d="M78.9791 30.8923C94.4223 30.8923 107.464 42.3988 111.614 58.1803C115.558 58.8324 119.316 60.3217 122.633 62.5475C125.95 64.7732 128.749 67.6835 130.842 71.0815C135.017 67.3358 140.426 65.2483 146.042 65.2146C150.233 65.2984 154.331 66.4692 157.932 68.6116C161.532 70.754 164.512 73.7944 166.577 77.4335H203.923C202.66 73.8697 200.566 70.6566 197.813 68.0593C195.059 65.4621 191.726 63.5553 188.088 62.4964C184.45 61.4375 180.612 61.2568 176.89 61.9693C173.168 62.6818 169.67 64.2671 166.683 66.5941C164.508 63.5695 161.735 61.0206 158.536 59.1044C155.336 57.1882 151.777 55.9451 148.078 55.4515C146.71 50.809 144.327 46.5264 141.102 42.9113C137.877 39.2961 133.889 36.4381 129.425 34.5424C124.961 32.6467 120.131 31.7603 115.283 31.9471C110.435 32.1338 105.688 33.3889 101.384 35.6222C99.5228 32.7788 97.0197 30.4098 94.0752 28.705C91.1308 27.0002 87.8268 26.0071 84.4282 25.8052C81.0296 25.6033 77.6309 26.1982 74.5043 27.5423C71.3778 28.8865 68.6104 30.9424 66.424 33.5453C70.3752 31.7896 74.6535 30.8856 78.9791 30.8923V30.8923Z" fill="#009245"/>
</g>
</g>
<path d="M526.558 31.4382V77.4185H311.828C312.248 73.9534 313.925 70.7616 316.544 68.4461C319.162 66.1305 322.54 64.8516 326.04 64.8508C326.938 64.8517 327.834 64.938 328.715 65.1086C328.835 56.0339 332.535 47.3718 339.013 40.9986C345.491 34.6254 354.226 31.0545 363.325 31.0592H364.693C365.918 26.6021 368.181 22.4966 371.298 19.0771C374.415 15.6577 378.297 13.0211 382.63 11.3823C386.962 9.74342 391.622 9.14868 396.228 9.64647C400.835 10.1443 405.258 11.7205 409.138 14.2467C409.695 13.4527 410.294 12.6886 410.932 11.9576C411.312 11.5028 411.692 11.0783 412.087 10.6387C412.869 9.78609 413.701 8.98116 414.58 8.22827C415.895 7.10134 417.304 6.08708 418.79 5.19627C419.292 4.89307 419.793 4.58985 420.31 4.31697L421.83 3.52866C422.848 3.02977 423.893 2.58942 424.961 2.20975C425.007 2.21618 425.053 2.21618 425.098 2.20975C426.219 1.81748 427.361 1.48846 428.518 1.22431C429.111 1.08787 429.704 0.966623 430.297 0.875663C430.889 0.784703 431.497 0.678577 432.105 0.633097C432.713 0.587617 433.2 0.496633 433.747 0.466313H434.279H435.799C441.21 0.463395 446.535 1.80663 451.294 4.37433C456.053 6.94204 460.095 10.6531 463.053 15.1715C473.784 9.58703 486.208 8.15891 497.932 11.162C509.656 14.1651 519.853 21.3872 526.558 31.4382V31.4382Z" fill="#009245"/>
<g style="mix-blend-mode:multiply" opacity="0.5">
<g style="mix-blend-mode:multiply" opacity="0.5">
<path d="M526.558 31.4382V59.3174C519.278 60.045 512.417 63.0602 506.965 67.9282C503.847 62.857 499.671 58.5135 494.723 55.1917C489.774 51.87 484.168 49.6476 478.283 48.6751C472.081 25.1619 452.625 8.00076 429.643 8.00076C423.214 8.00637 416.859 9.36501 410.993 11.9878C411.373 11.533 411.753 11.1086 412.148 10.6689C412.938 9.83513 413.774 9.0165 414.641 8.2585C415.96 7.13635 417.368 6.12238 418.851 5.2265C419.353 4.9233 419.854 4.62007 420.371 4.34719L421.891 3.55889C422.909 3.07377 423.943 2.6493 425.022 2.23998C425.068 2.24641 425.114 2.24641 425.159 2.23998C426.282 1.85466 427.423 1.52579 428.579 1.25459C429.172 1.11815 429.765 0.99685 430.357 0.90589C430.95 0.81493 431.558 0.708805 432.166 0.663325C432.774 0.617845 433.261 0.526907 433.808 0.496587H434.34H435.86C441.27 0.493669 446.596 1.83685 451.355 4.40456C456.114 6.97227 460.155 10.6834 463.113 15.2018C473.836 9.63176 486.243 8.20851 497.953 11.2052C509.662 14.202 519.85 21.4075 526.558 31.4382V31.4382Z" fill="#009245"/>
</g>
</g>
</svg>
