<svg width="275" height="129" viewBox="0 0 275 129" fill="none" xmlns="http://www.w3.org/2000/svg">
<path d="M91.9105 83.556C88.7063 83.5547 85.5395 84.245 82.6264 85.5795C79.7134 86.9141 77.1226 88.8616 75.031 91.289C72.7496 88.8442 69.9888 86.8958 66.9209 85.5653C63.8531 84.2348 60.544 83.5508 57.2 83.556C56.595 83.556 56.001 83.589 55.407 83.633C54.209 81.1596 52.3333 79.0772 49.9982 77.6279C47.6631 76.1786 44.9646 75.4221 42.2164 75.4463C39.4682 75.4705 36.7834 76.2744 34.4742 77.7646C32.165 79.2547 30.3263 81.3699 29.172 83.864C27.9337 83.5987 26.6709 83.4641 25.4045 83.4625C21.7815 83.4606 18.2444 84.5657 15.267 86.63C12.2895 88.6942 10.014 91.619 8.74501 95.0125C8.22438 94.9156 7.69607 94.8659 7.16651 94.864C5.78212 94.8686 4.41731 95.1914 3.17755 95.8075C1.93778 96.4235 0.856247 97.3164 0.01651 98.417V106.722H114.202C114.202 106.436 114.202 106.172 114.202 105.87C114.202 99.9554 111.854 94.2832 107.674 90.0993C103.494 85.9153 97.8246 83.5618 91.9105 83.556V83.556Z" fill="#009245"/>
<path d="M275 84.579C271.036 85.821 267.496 88.1449 264.781 91.289C262.499 88.8453 259.738 86.8975 256.67 85.5671C253.602 84.2367 250.294 83.5522 246.95 83.556C246.345 83.556 245.751 83.589 245.157 83.633C243.959 81.1596 242.083 79.0772 239.748 77.6279C237.413 76.1786 234.715 75.4221 231.966 75.4463C229.218 75.4705 226.533 76.2744 224.224 77.7646C221.915 79.2547 220.076 81.3699 218.922 83.864C217.684 83.5984 216.421 83.4638 215.154 83.4625C211.532 83.4614 207.995 84.5668 205.018 86.631C202.04 88.6951 199.765 91.6194 198.495 95.0125C197.976 94.9157 197.45 94.866 196.922 94.864C195.495 94.864 194.088 95.2012 192.816 95.8481C191.544 96.495 190.443 97.4332 189.602 98.5865C188.761 99.7397 188.205 101.075 187.978 102.484C187.752 103.893 187.861 105.336 188.298 106.695H275V84.579Z" fill="#009245"/>
<path d="M275 102.031H0V111.645H275V102.031Z" fill="#CCCCCC"/>
<path d="M46.5575 3.03604V105.204H20.5205V3.03604C20.5264 2.22741 20.8528 1.45415 21.4282 0.88597C22.0036 0.317794 22.7809 0.00114645 23.5895 0.00553841H43.483C44.2922 0.00113985 45.0701 0.317613 45.6464 0.885634C46.2226 1.45366 46.5503 2.22691 46.5575 3.03604V3.03604Z" fill="#333333"/>
<g style="mix-blend-mode:multiply">
<path d="M46.5575 35.002H33.2475V36.8775H46.5575V35.002Z" fill="#4D4D4D"/>
</g>
<g style="mix-blend-mode:multiply">
<path d="M46.552 3.03604V4.03704H20.5205V3.03054C20.5264 2.22192 20.8528 1.44865 21.4282 0.880476C22.0036 0.312301 22.7809 -0.00434687 23.5895 4.50851e-05H43.483C43.8839 -0.00212759 44.2813 0.0746773 44.6524 0.226076C45.0236 0.377474 45.3613 0.600495 45.6463 0.882415C45.9313 1.16433 46.158 1.49963 46.3134 1.86915C46.4688 2.23867 46.5499 2.63518 46.552 3.03604V3.03604Z" fill="#4D4D4D"/>
</g>
<g style="mix-blend-mode:multiply">
<path d="M39.116 24.145V42.7735C39.1076 42.9094 39.0725 43.0423 39.0126 43.1646C38.9527 43.2868 38.8693 43.3961 38.7671 43.486C38.6649 43.576 38.5459 43.6448 38.417 43.6887C38.2882 43.7325 38.1519 43.7505 38.016 43.7415H29.051C28.915 43.7512 28.7785 43.7338 28.6493 43.6902C28.5201 43.6467 28.4008 43.5778 28.2984 43.4877C28.1961 43.3977 28.1127 43.2881 28.053 43.1655C27.9934 43.0429 27.9587 42.9097 27.951 42.7735V24.145C27.9594 24.0092 27.9946 23.8763 28.0545 23.754C28.1143 23.6317 28.1978 23.5225 28.3 23.4326C28.4022 23.3426 28.5211 23.2738 28.65 23.2299C28.7789 23.1861 28.9152 23.1681 29.051 23.177H38.0215C38.2946 23.162 38.5627 23.2551 38.7675 23.4363C38.9724 23.6175 39.0976 23.8721 39.116 24.145V24.145Z" fill="#4D4D4D"/>
</g>
<path d="M39.116 20.4105V41.3985C39.116 41.6903 39.0001 41.9701 38.7939 42.1764C38.5876 42.3826 38.3078 42.4985 38.016 42.4985H29.051C28.7593 42.4985 28.4795 42.3826 28.2732 42.1764C28.0669 41.9701 27.951 41.6903 27.951 41.3985V20.4105C27.951 20.1188 28.0669 19.839 28.2732 19.6327C28.4795 19.4264 28.7593 19.3105 29.051 19.3105H38.0215C38.3123 19.312 38.5907 19.4285 38.7958 19.6347C39.0009 19.8408 39.116 20.1198 39.116 20.4105Z" fill="#39B54A"/>
<g style="mix-blend-mode:multiply" opacity="0.7">
<path d="M39.116 35.002H33.2475V36.8775H39.116V35.002Z" fill="#39B54A"/>
</g>
<g style="mix-blend-mode:multiply" opacity="0.7">
<path d="M39.1161 20.4105V25.322H27.9621V20.4105C27.9621 20.1188 28.0779 19.839 28.2842 19.6327C28.4905 19.4264 28.7703 19.3105 29.0621 19.3105H38.0216C38.3123 19.312 38.5907 19.4285 38.7958 19.6347C39.0009 19.8408 39.1161 20.1198 39.1161 20.4105Z" fill="#39B54A"/>
</g>
<path d="M47.4815 101.283H19.591C18.5825 101.283 17.765 102.1 17.765 103.109V105.061C17.765 106.07 18.5825 106.887 19.591 106.887H47.4815C48.49 106.887 49.3075 106.07 49.3075 105.061V103.109C49.3075 102.1 48.49 101.283 47.4815 101.283Z" fill="white"/>
<path d="M46.552 3.08556V3.15155H20.5205V3.08556C20.5198 2.68181 20.5986 2.28187 20.7525 1.90857C20.9063 1.53528 21.1322 1.19595 21.4172 0.909946C21.7021 0.623941 22.0407 0.396864 22.4134 0.241689C22.7861 0.0865141 23.1858 0.00627582 23.5895 0.0055542H43.483C43.8868 0.00627582 44.2864 0.0865141 44.6592 0.241689C45.0319 0.396864 45.3705 0.623941 45.6554 0.909946C45.9404 1.19595 46.1663 1.53528 46.3201 1.90857C46.474 2.28187 46.5528 2.68181 46.552 3.08556V3.08556Z" fill="white"/>
<path d="M33.5334 37.2845C34.9246 37.2845 36.0524 36.1567 36.0524 34.7655C36.0524 33.3743 34.9246 32.2465 33.5334 32.2465C32.1422 32.2465 31.0144 33.3743 31.0144 34.7655C31.0144 36.1567 32.1422 37.2845 33.5334 37.2845Z" fill="black"/>
<path d="M35.101 34.7655C35.0988 35.0758 35.0046 35.3784 34.8303 35.6351C34.656 35.8917 34.4095 36.0909 34.1219 36.2073C33.8344 36.3238 33.5187 36.3523 33.2149 36.2892C32.9111 36.2262 32.6329 36.0744 32.4155 35.8531C32.198 35.6318 32.0512 35.3509 31.9934 35.0461C31.9357 34.7412 31.9698 34.4261 32.0912 34.1407C32.2127 33.8552 32.4162 33.6122 32.6759 33.4424C32.9356 33.2727 33.2398 33.1838 33.55 33.187C33.9648 33.1914 34.3609 33.36 34.6517 33.6558C34.9424 33.9517 35.104 34.3507 35.101 34.7655V34.7655Z" fill="white"/>
<path d="M83.765 84.887H73.315C68.7356 84.8827 64.3449 83.0619 61.1062 79.8243C57.8675 76.5866 56.0454 72.1965 56.0395 67.617V44.737C56.0381 42.3846 55.1029 40.1289 53.4395 38.4655C51.7761 36.8021 49.5205 35.867 47.168 35.8655H33.55C33.2656 35.8655 32.9928 35.7525 32.7917 35.5514C32.5905 35.3503 32.4775 35.0775 32.4775 34.793C32.4775 34.5086 32.5905 34.2358 32.7917 34.0346C32.9928 33.8335 33.2656 33.7205 33.55 33.7205H47.1955C50.1129 33.7205 52.9108 34.8794 54.9737 36.9423C57.0366 39.0052 58.1955 41.8031 58.1955 44.7205V67.6445C58.2014 71.6551 59.7975 75.4996 62.6339 78.335C65.4703 81.1704 69.3155 82.7652 73.326 82.7695H83.776C84.0605 82.7695 84.3333 82.8825 84.5344 83.0836C84.7355 83.2848 84.8485 83.5576 84.8485 83.842C84.8485 84.1265 84.7355 84.3993 84.5344 84.6004C84.3333 84.8015 84.0605 84.9145 83.776 84.9145L83.765 84.887Z" fill="white"/>
<g style="mix-blend-mode:multiply" opacity="0.5">
<path d="M49.3075 104.764V105.061C49.3075 105.544 49.1159 106.008 48.7746 106.35C48.4334 106.693 47.9703 106.886 47.487 106.887H19.591C19.1067 106.887 18.6423 106.695 18.2998 106.352C17.9574 106.01 17.765 105.545 17.765 105.061V104.764H49.3075Z" fill="#7FB5C9"/>
</g>
<path d="M39.1161 20.4105V24.6455H27.9621V20.4105C27.9621 20.1188 28.0779 19.839 28.2842 19.6327C28.4905 19.4264 28.7703 19.3105 29.0621 19.3105H38.0216C38.3123 19.312 38.5907 19.4285 38.7958 19.6347C39.0009 19.8408 39.1161 20.1198 39.1161 20.4105Z" fill="black"/>
<path d="M29.2601 20.1135H29.1831C28.8884 20.1135 28.6496 20.3524 28.6496 20.647V23.5785C28.6496 23.8732 28.8884 24.112 29.1831 24.112H29.2601C29.5547 24.112 29.7936 23.8732 29.7936 23.5785V20.647C29.7936 20.3524 29.5547 20.1135 29.2601 20.1135Z" fill="#39B54A"/>
<path d="M30.987 20.1135H30.91C30.6154 20.1135 30.3765 20.3524 30.3765 20.647V23.5785C30.3765 23.8732 30.6154 24.112 30.91 24.112H30.987C31.2816 24.112 31.5205 23.8732 31.5205 23.5785V20.647C31.5205 20.3524 31.2816 20.1135 30.987 20.1135Z" fill="#39B54A"/>
<path d="M32.7141 20.1135H32.6371C32.3424 20.1135 32.1036 20.3524 32.1036 20.647V23.5785C32.1036 23.8732 32.3424 24.112 32.6371 24.112H32.7141C33.0087 24.112 33.2476 23.8732 33.2476 23.5785V20.647C33.2476 20.3524 33.0087 20.1135 32.7141 20.1135Z" fill="#39B54A"/>
<path d="M34.441 20.1135H34.364C34.0694 20.1135 33.8305 20.3524 33.8305 20.647V23.5785C33.8305 23.8732 34.0694 24.112 34.364 24.112H34.441C34.7356 24.112 34.9745 23.8732 34.9745 23.5785V20.647C34.9745 20.3524 34.7356 20.1135 34.441 20.1135Z" fill="white"/>
<path d="M36.1679 20.1135H36.0909C35.7963 20.1135 35.5574 20.3524 35.5574 20.647V23.5785C35.5574 23.8732 35.7963 24.112 36.0909 24.112H36.1679C36.4626 24.112 36.7014 23.8732 36.7014 23.5785V20.647C36.7014 20.3524 36.4626 20.1135 36.1679 20.1135Z" fill="white"/>
<path d="M37.895 20.1135H37.818C37.5234 20.1135 37.2845 20.3524 37.2845 20.647V23.5785C37.2845 23.8732 37.5234 24.112 37.818 24.112H37.895C38.1897 24.112 38.4285 23.8732 38.4285 23.5785V20.647C38.4285 20.3524 38.1897 20.1135 37.895 20.1135Z" fill="white"/>
<path d="M46.5575 59.906H20.5205V70.884H46.5575V59.906Z" fill="white"/>
<path d="M33.5665 55.7755L29.81 64.4765H33.0495L30.888 69.212H33.7535L31.966 74.118L37.323 67.551H34.474L37.323 61.6385H34.122L37.851 55.7755H33.5665Z" fill="#39B54A"/>
<g style="mix-blend-mode:multiply" opacity="0.7">
<path d="M154.665 128.178C211.313 128.178 257.235 126.126 257.235 123.596C257.235 121.066 211.313 119.015 154.665 119.015C98.0179 119.015 52.096 121.066 52.096 123.596C52.096 126.126 98.0179 128.178 154.665 128.178Z" fill="#B3B3B3"/>
</g>
<path d="M216.315 59.95H110.589V80.872H216.315V59.95Z" fill="black"/>
<path d="M97.944 67.0945C97.944 69.586 96.437 71.599 94.578 71.599C92.719 71.599 91.2065 69.586 91.2065 67.0945C91.2065 64.603 92.7135 62.5845 94.578 62.5845C96.4425 62.5845 97.944 64.603 97.944 67.0945Z" fill="#333333"/>
<path d="M84.7001 79.1395L79.2826 82.4395L76.8791 82.192L73.7606 81.873L73.8541 80.9985C73.8906 80.6282 74.059 80.2834 74.3286 80.027C74.5981 79.7705 74.9509 79.6195 75.3226 79.6015L81.5541 79.3045L84.7001 79.1395Z" fill="#333333"/>
<g style="mix-blend-mode:multiply">
<path d="M84.6835 79.1451L79.2715 82.4341L76.8625 82.1866L81.5375 79.2991L84.6835 79.1451Z" fill="#4D4D4D"/>
</g>
<path d="M234.344 86.1245H220.765L228.074 68.145L228.624 66.814L229.136 68.5465L230.791 74.1345L234.344 86.1245Z" fill="white"/>
<g style="mix-blend-mode:multiply" opacity="0.5">
<path d="M230.791 74.1346C229.691 78.1441 227.453 83.6551 223.438 85.8331C223.24 85.9376 223.053 86.0366 222.86 86.1246H220.765L228.074 68.1451L229.136 68.5466L230.791 74.1346Z" fill="#7FB5C9"/>
</g>
<path d="M138.682 57.387C139.03 57.9321 139.207 58.5678 139.193 59.2138C139.179 59.8598 138.973 60.4872 138.603 61.0164C138.232 61.5457 137.713 61.9531 137.11 62.1871C136.508 62.4212 135.85 62.4714 135.219 62.3314C134.588 62.1914 134.013 61.8674 133.566 61.4005C133.12 60.9336 132.821 60.3448 132.709 59.7084C132.597 59.072 132.677 58.4166 132.937 57.8253C133.197 57.2339 133.627 56.733 134.172 56.386C134.903 55.9208 135.789 55.7649 136.635 55.9526C137.481 56.1403 138.217 56.6563 138.682 57.387V57.387Z" fill="#39B54A"/>
<path d="M141.091 67.287C140.685 67.5456 140.192 67.6329 139.721 67.5299C139.251 67.4269 138.84 67.1419 138.578 66.737L135.828 62.458L130.185 53.603C130.051 53.4015 129.959 53.1754 129.914 52.9378C129.868 52.7003 129.871 52.4561 129.921 52.2195C129.971 51.9829 130.067 51.7586 130.205 51.5598C130.343 51.3609 130.519 51.1915 130.723 51.0614C130.926 50.9314 131.154 50.8432 131.393 50.8021C131.631 50.7611 131.875 50.7679 132.111 50.8222C132.346 50.8766 132.569 50.9773 132.765 51.1186C132.961 51.2598 133.128 51.4388 133.254 51.645L140.151 62.458L141.625 64.7735C141.885 65.1783 141.975 65.6693 141.875 66.14C141.775 66.6106 141.494 67.0229 141.091 67.287V67.287Z" fill="#333333"/>
<g style="mix-blend-mode:multiply">
<path d="M141.091 67.2871C140.685 67.5457 140.192 67.633 139.721 67.53C139.251 67.4269 138.84 67.1419 138.578 66.7371L135.828 62.4581H140.151L141.625 64.7736C141.885 65.1783 141.975 65.6694 141.875 66.14C141.775 66.6107 141.494 67.0229 141.091 67.2871V67.2871Z" fill="#4D4D4D"/>
</g>
<path d="M139.502 70.5265H107.723V62.6615L107.839 62.5845L122.518 52.9375C122.518 52.9375 132.457 55.4455 137.132 62.5845C138.693 64.9377 139.518 67.7025 139.502 70.5265V70.5265Z" fill="black"/>
<g style="mix-blend-mode:multiply">
<path d="M139.502 70.5265H107.723V62.6615L107.839 62.5845H137.132C138.693 64.9377 139.518 67.7025 139.502 70.5265V70.5265Z" fill="#39B54A"/>
</g>
<path d="M209 33.3356L207.504 23.0341H171.33V28.3856H187.044C187.763 28.374 188.461 28.6243 189.008 29.0899C189.556 29.5555 189.915 30.2044 190.019 30.9156L190.943 37.9556L197.329 52.0081C199.071 55.8778 199.971 60.0734 199.969 64.3171C199.969 72.3251 196.817 79.9096 191.323 85.1291L177.65 98.0871C176.611 99.0736 175.232 99.6213 173.8 99.6161H171.314V111.133H186.065L206.723 93.3846C213.191 87.8295 217.616 80.2704 219.292 71.9105C220.969 63.5505 219.801 54.87 215.974 47.2506L209 33.3356Z" fill="black"/>
<path d="M212.922 48.6696L197.214 62.5846L190.465 68.5631H186.643L193.188 62.5846L211.118 46.2111L212.922 48.6696Z" fill="#333333"/>
<g style="mix-blend-mode:multiply">
<path d="M197.214 62.5845L190.465 68.563H186.643L193.188 62.5845H197.214Z" fill="#4D4D4D"/>
</g>
<path d="M181.507 40.1854L184.449 40.7604L181.444 56.1335L178.502 55.5585C178.033 55.4667 177.619 55.1921 177.352 54.7952C177.084 54.3983 176.986 53.9115 177.078 53.4419L179.39 41.6098C179.482 41.1403 179.757 40.7264 180.154 40.4593C180.551 40.1921 181.037 40.0936 181.507 40.1854V40.1854Z" fill="black"/>
<path d="M181.115 57.849C180.523 57.733 180.001 57.3886 179.661 56.8904C179.322 56.3922 179.192 55.7802 179.3 55.187L182.1 40.8595C182.218 40.265 182.566 39.7412 183.069 39.4023C183.572 39.0635 184.188 38.9368 184.784 39.05C185.379 39.1684 185.904 39.5177 186.243 40.0216C186.582 40.5255 186.708 41.1431 186.593 41.7395L183.794 56.0395C183.676 56.6337 183.329 57.1574 182.827 57.4963C182.325 57.8353 181.71 57.9621 181.115 57.849V57.849Z" fill="#39B54A"/>
<path d="M177.22 58.1687L179.616 59.9697L167.584 75.9775L165.188 74.1765C164.805 73.889 164.553 73.4614 164.486 72.9877C164.418 72.514 164.542 72.033 164.83 71.6505L174.694 58.5268C174.981 58.1444 175.409 57.8918 175.883 57.8246C176.357 57.7575 176.838 57.8812 177.22 58.1687V58.1687Z" fill="black"/>
<path d="M181.412 60.445C181.413 60.9391 181.253 61.42 180.956 61.8145L180.378 62.5845L169.73 76.747C169.549 76.9872 169.323 77.1894 169.065 77.3422C168.806 77.495 168.52 77.5953 168.222 77.6374C167.925 77.6796 167.622 77.6627 167.331 77.5878C167.04 77.5129 166.766 77.3814 166.526 77.2008C166.286 77.0202 166.084 76.7941 165.931 76.5354C165.778 76.2767 165.678 75.9904 165.636 75.6929C165.594 75.3954 165.611 75.0925 165.686 74.8015C165.76 74.5106 165.892 74.2372 166.073 73.997L174.652 62.5845L177.298 59.0645C177.587 58.6817 177.989 58.3993 178.447 58.2575C178.906 58.1156 179.397 58.1214 179.852 58.274C180.307 58.4267 180.702 58.7184 180.982 59.108C181.262 59.4976 181.412 59.9653 181.412 60.445V60.445Z" fill="#39B54A"/>
<g style="mix-blend-mode:multiply">
<path d="M180.4 62.5845L169.73 76.747C169.549 76.9872 169.323 77.1894 169.065 77.3422C168.806 77.495 168.52 77.5953 168.222 77.6374C167.925 77.6796 167.622 77.6627 167.331 77.5878C167.04 77.5128 166.766 77.3813 166.526 77.2008C166.286 77.0202 166.084 76.7941 165.931 76.5354C165.778 76.2767 165.678 75.9904 165.636 75.6929C165.594 75.3954 165.611 75.0925 165.686 74.8015C165.76 74.5105 165.892 74.2372 166.073 73.997L174.652 62.5845H180.4Z" fill="#39B54A"/>
</g>
<path d="M184.118 58.8005C184.074 59.4826 183.829 60.1362 183.413 60.6788C182.998 61.2213 182.43 61.6284 181.783 61.8484C181.136 62.0685 180.438 62.0917 179.778 61.915C179.118 61.7383 178.525 61.3697 178.074 60.8559C177.624 60.3421 177.336 59.7061 177.247 59.0285C177.157 58.3509 177.271 57.6621 177.574 57.0493C177.877 56.4364 178.354 55.9272 178.946 55.5859C179.538 55.2446 180.219 55.0866 180.9 55.132C181.813 55.1928 182.665 55.6131 183.268 56.3009C183.871 56.9886 184.177 57.8876 184.118 58.8005Z" fill="white"/>
<path d="M182.05 58.6685C182.031 58.9417 181.931 59.2031 181.764 59.4198C181.596 59.6365 181.368 59.7987 181.109 59.8859C180.849 59.9731 180.57 59.9815 180.305 59.91C180.041 59.8385 179.804 59.6902 179.624 59.484C179.443 59.2777 179.328 59.0227 179.293 58.7512C179.258 58.4796 179.303 58.2037 179.425 57.9581C179.546 57.7126 179.737 57.5085 179.975 57.3716C180.212 57.2348 180.484 57.1712 180.757 57.189C180.94 57.2009 181.118 57.2486 181.281 57.3295C181.445 57.4104 181.591 57.5228 181.711 57.6602C181.831 57.7977 181.923 57.9576 181.981 58.1306C182.039 58.3036 182.063 58.4864 182.05 58.6685V58.6685Z" fill="black"/>
<path d="M218.108 67.7601H105.671V74.0741L130.944 107.366H194.507L218.108 67.7601Z" fill="black"/>
<path d="M230.158 60.7145C230.103 60.1645 230.037 59.6146 229.96 59.0646C229.382 54.9595 228.138 50.9764 226.275 47.2726L219.274 33.3356L217.514 21.2356C217.346 20.0723 216.764 19.0086 215.875 18.2398C214.986 17.471 213.849 17.0486 212.674 17.0501H173.415C166.724 17.0497 160.167 18.9205 154.484 22.451L149.369 25.63L146.223 27.5881L117.43 45.4961L102.476 54.7965L99.9129 56.3916C97.5615 57.8547 95.6407 59.9159 94.3468 62.3646C93.0529 64.8132 92.4323 67.5615 92.5484 70.3286C92.6287 72.1758 93.0327 73.9945 93.7419 75.702L94.9849 78.6721L122.65 111.155H196.35L217.008 93.4065C223.521 87.8145 227.961 80.1929 229.614 71.7695C229.724 71.2195 229.817 70.6695 229.9 70.1195C230.187 68.2319 230.33 66.3253 230.329 64.4161C230.34 63.1786 230.279 61.941 230.158 60.7145ZM201.619 85.1291L187.946 98.087C186.909 99.0755 185.529 99.6236 184.096 99.616H133.441C132.546 99.6168 131.663 99.4125 130.859 99.0187C130.055 98.6249 129.352 98.0522 128.804 97.3445L119.696 85.4975L110.286 73.2655L109.675 71.6871C109.119 70.2728 109.047 68.7143 109.47 67.2547C109.893 65.7951 110.787 64.5165 112.013 63.6185L115.813 61.0006L157.723 32.197C161.26 29.7333 165.464 28.4057 169.774 28.3911H197.34C198.059 28.3793 198.758 28.6295 199.307 29.0949C199.855 29.5604 200.216 30.2095 200.321 30.9211L201.245 37.9556L207.63 52.0135C209.372 55.8833 210.272 60.0789 210.27 64.3225C210.27 72.325 207.119 79.9371 201.619 85.1291V85.1291Z" fill="white"/>
<path d="M118.404 84.9475C113.052 77.6105 108.41 70.7575 107.404 67.76C104.34 58.762 113.195 52.91 113.195 52.91L122.034 44.7535L117.447 45.4465L102.492 54.747L99.9295 56.342C97.578 57.8052 95.6572 59.8664 94.3633 62.3151C93.0694 64.7637 92.4488 67.512 92.565 70.279C92.6453 72.1263 93.0492 73.945 93.7585 75.6525L95.0015 78.6225L106.645 92.3175L118.404 84.9475Z" fill="#39B54A"/>
<g style="mix-blend-mode:multiply" opacity="0.5">
<path d="M210.952 50.952L204.319 35.827L203.368 28.2865C203.256 27.4286 202.836 26.6406 202.187 26.0689C201.537 25.4973 200.702 25.1811 199.837 25.179H171.105C166.5 25.2004 162.018 26.6662 158.29 29.37L114.609 60.478L110.643 63.305C107.893 65.252 106.821 69.1295 108.058 72.5175L108.691 74.2555V74.316L108.729 74.3655L118.536 87.5655L128.034 100.364C128.633 101.174 129.412 101.832 130.309 102.289C131.206 102.745 132.198 102.986 133.204 102.993H186.004C187.614 102.993 189.158 102.356 190.3 101.222L204.6 87.2025C210.413 81.488 213.746 73.183 213.746 64.416C213.747 59.7841 212.796 55.2015 210.952 50.952V50.952ZM201.602 85.129L187.946 98.087C186.909 99.0755 185.529 99.6236 184.096 99.616H133.441C132.546 99.6168 131.663 99.4125 130.859 99.0187C130.055 98.6249 129.352 98.0522 128.804 97.3445L119.696 85.4975L110.286 73.2655L109.675 71.687C109.119 70.2728 109.047 68.7143 109.47 67.2547C109.893 65.7951 110.787 64.5165 112.013 63.6185L115.813 61.0005L157.723 32.197C161.26 29.7333 165.464 28.4057 169.774 28.391H197.34C198.059 28.3793 198.758 28.6295 199.307 29.0949C199.855 29.5604 200.216 30.2094 200.321 30.921L201.245 37.9555L207.63 52.0135C209.372 55.8833 210.272 60.0789 210.27 64.3225C210.27 72.325 207.119 79.937 201.619 85.129H201.602Z" fill="#7FB5C9"/>
</g>
<path d="M123.481 64.086V82.5056C123.028 83.5958 122.373 84.5905 121.55 85.437C121.292 85.7038 120.98 85.9116 120.634 86.0463C120.288 86.1811 119.918 86.2394 119.547 86.2175C119.177 86.1955 118.816 86.0938 118.488 85.9192C118.161 85.7447 117.875 85.5014 117.651 85.206L109.126 74.107L108.477 72.369C107.267 69.1625 108.323 65.4941 110.979 63.6516L114.037 61.5395C114.354 61.3192 114.721 61.1804 115.105 61.1353C115.488 61.0903 115.877 61.1403 116.237 61.281L123.481 64.086Z" fill="#333333"/>
<path d="M231.941 94.644L223.08 89.1825V77.3795C223.08 76.5043 222.732 75.6649 222.114 75.046C221.495 74.4272 220.655 74.0795 219.78 74.0795H213.532C213.166 74.0791 212.806 74.1663 212.48 74.3338C212.155 74.5012 211.874 74.744 211.662 75.042L206.25 82.687C206.075 82.8752 205.912 83.0735 205.761 83.281L190.212 105.21C189.656 105.993 188.921 106.631 188.067 107.071C187.213 107.512 186.267 107.741 185.306 107.739H132.968C132.051 107.738 131.145 107.528 130.321 107.124C129.497 106.721 128.775 106.136 128.211 105.413L104.33 74.547C103.243 73.1445 101.733 72.1296 100.024 71.6531C98.3149 71.1765 96.4977 71.2636 94.8421 71.9015L87.4501 74.723C86.721 75.0018 86.0938 75.4956 85.6518 76.139C85.2098 76.7824 84.9738 77.5449 84.9751 78.3255V78.3255C84.9751 78.3255 69.8501 86.691 65.6151 90.574H65.5821C64.5271 91.5801 63.7385 92.8325 63.2873 94.2188C62.8361 95.605 62.7364 97.0817 62.9971 98.516L63.1731 99.4675L64.5096 106.749C64.5481 106.947 64.5921 107.146 64.6416 107.338C65.1247 109.228 66.2242 110.903 67.7662 112.099C69.3081 113.294 71.2046 113.941 73.1556 113.938H227.986C228.851 113.93 229.703 113.737 230.487 113.372C231.271 113.007 231.967 112.478 232.529 111.82C233.392 110.832 233.964 109.623 234.179 108.328L235.279 101.915C235.525 100.508 235.337 99.0586 234.741 97.7601C234.145 96.4617 233.168 95.375 231.941 94.644V94.644Z" fill="black"/>
<path d="M68.0131 100.315V106.546C68.0116 106.764 67.9241 106.972 67.7695 107.126C67.6149 107.279 67.4059 107.366 67.1881 107.366H64.6416C64.5921 107.173 64.5481 106.975 64.5096 106.777L63.1731 99.4951H67.1881C67.4059 99.4951 67.6149 99.5812 67.7695 99.7347C67.9241 99.8883 68.0116 100.097 68.0131 100.315Z" fill="#333333"/>
<path d="M211.024 68.387L206.828 87.428C205.662 92.7245 201.328 96.4535 196.328 96.4535H165.842C165.034 96.4536 164.231 96.3312 163.46 96.0905L119.394 82.302C115.368 81.0425 112.244 77.528 111.276 73.095L110.226 68.387C110.089 67.7748 110.104 67.1386 110.27 66.5335C110.439 65.8446 110.83 65.2305 111.383 64.7853C111.935 64.3402 112.618 64.0887 113.328 64.0695H207.9C208.608 64.0899 209.29 64.3419 209.842 64.7869C210.393 65.232 210.783 65.8455 210.953 66.5335C211.133 67.1354 211.157 67.7731 211.024 68.387V68.387Z" fill="white"/>
<path d="M165.842 89.6665C165.638 89.667 165.436 89.6373 165.242 89.5785L121.176 75.79C119.972 75.416 118.69 73.425 117.948 72.0995C117.876 71.9818 117.836 71.8475 117.832 71.7098C117.828 71.5721 117.86 71.4357 117.924 71.3139C117.988 71.192 118.083 71.0889 118.199 71.0145C118.315 70.9402 118.448 70.8971 118.586 70.8895H201.927C202.178 70.9011 202.424 70.9686 202.645 71.0871C202.867 71.2056 203.06 71.3721 203.209 71.5745C203.358 71.7769 203.46 72.0101 203.508 72.2569C203.555 72.5038 203.547 72.7582 203.484 73.0015L200.646 85.877C200.156 88.11 198.38 89.6665 196.328 89.6665H165.842Z" fill="#39B54A"/>
<path d="M195.404 76.2191L194.095 82.3186C193.97 82.9012 193.649 83.4234 193.186 83.7978C192.722 84.1722 192.144 84.3762 191.548 84.3756H185.295C182.609 84.3783 179.964 83.717 177.595 82.4506L170.302 78.5566C170.018 78.4034 169.801 78.1507 169.691 77.8471L169.229 76.5601C169.159 76.3638 169.137 76.1535 169.164 75.9468C169.192 75.7401 169.269 75.5431 169.389 75.3723C169.508 75.2015 169.667 75.0619 169.852 74.9652C170.037 74.8685 170.242 74.8175 170.45 74.8166H194.26C194.434 74.8152 194.605 74.8529 194.763 74.9268C194.92 75.0007 195.058 75.1089 195.168 75.2435C195.278 75.3781 195.356 75.5356 195.397 75.7045C195.438 75.8733 195.44 76.0492 195.404 76.2191Z" fill="black"/>
<path d="M101.36 66.858L92.5596 70.3065C92.4502 67.7286 92.9832 65.1639 94.1106 62.843L103.136 60.2195C103.292 60.1747 103.456 60.1712 103.614 60.2092C103.771 60.2473 103.916 60.3256 104.035 60.4365C104.153 60.5474 104.24 60.6871 104.288 60.8419C104.336 60.9967 104.342 61.1613 104.308 61.3195L103.642 64.218C103.506 64.8111 103.227 65.3618 102.829 65.822C102.431 66.2822 101.927 66.6379 101.36 66.858V66.858Z" fill="black"/>
<path d="M124.3 59.95L118.575 64.1575V66.836C118.575 67.0811 118.672 67.3161 118.845 67.4894C119.018 67.6627 119.253 67.76 119.499 67.76H121.435L126.511 63.855L124.3 59.95Z" fill="black"/>
<path d="M134.64 62.6615V54.4445C134.64 54.174 134.567 53.9084 134.429 53.6759C134.291 53.4433 134.092 53.2525 133.855 53.1234C133.617 52.9944 133.349 52.932 133.078 52.9429C132.808 52.9537 132.546 53.0374 132.319 53.185L122.837 59.3505C122.585 59.5157 122.378 59.7409 122.235 60.0059C122.092 60.2709 122.017 60.5673 122.018 60.8685V63.5745C122.018 64.053 122.208 64.5118 122.546 64.8501C122.884 65.1884 123.343 65.3785 123.822 65.3785H131.923C132.28 65.3785 132.633 65.3082 132.963 65.1717C133.292 65.0351 133.592 64.835 133.844 64.5827C134.097 64.3304 134.297 64.0309 134.433 63.7013C134.57 63.3716 134.64 63.0183 134.64 62.6615Z" fill="#39B54A"/>
<path d="M154.099 26.62L113.185 52.9375C110.165 53.988 105.683 54.516 102.482 54.7745L149.375 25.6245H153.802C153.916 25.6297 154.026 25.6702 154.116 25.7405C154.206 25.8108 154.272 25.9073 154.304 26.0167C154.337 26.1262 154.335 26.243 154.298 26.3512C154.261 26.4593 154.192 26.5532 154.099 26.62Z" fill="black"/>
<path d="M102.481 54.7746L103.867 54.4171L123.304 42.3445C123.305 42.2399 123.279 42.1368 123.229 42.0451C123.178 41.9534 123.105 41.8762 123.016 41.821C122.927 41.7658 122.826 41.7343 122.721 41.7297C122.616 41.7251 122.512 41.7474 122.419 41.7945L104.819 50.5671C103.71 51.1176 102.822 52.0293 102.3 53.1521L101.156 55.5886C101.876 55.1321 102.481 54.7746 102.481 54.7746Z" fill="#333333"/>
<path d="M86.834 77.4015L85.0025 78.342C85.0013 77.4642 85.3002 76.6122 85.8495 75.9275C86.0605 75.8938 86.2739 75.8772 86.4875 75.878C86.6632 75.8888 86.8306 75.9562 86.9647 76.0701C87.0989 76.1841 87.1925 76.3384 87.2315 76.51C87.2705 76.6816 87.2529 76.8612 87.1812 77.0219C87.1096 77.1827 86.9878 77.3159 86.834 77.4015V77.4015Z" fill="#FBB03B"/>
<path d="M232.529 111.87C231.967 112.527 231.271 113.056 230.487 113.421C229.703 113.787 228.851 113.98 227.986 113.988H73.1501C71.0495 113.99 69.0178 113.239 67.4246 111.87H232.529Z" fill="#333333"/>
<path d="M110.754 109.06C113.391 98.0754 106.624 87.0328 95.6398 84.3956C84.6552 81.7584 73.6126 88.5253 70.9755 99.5099C68.3383 110.494 75.1052 121.537 86.0898 124.174C97.0744 126.811 108.117 120.045 110.754 109.06Z" fill="#1A1A1A"/>
<path d="M97.6747 121.118C106.972 117.356 111.46 106.769 107.698 97.4714C103.936 88.1736 93.3484 83.6862 84.0506 87.4484C74.7529 91.2106 70.2655 101.798 74.0277 111.095C77.7898 120.393 88.377 124.881 97.6747 121.118Z" fill="black"/>
<path d="M108.999 103.164C109.037 103.841 109.037 104.521 108.999 105.199C108.96 105.743 109.034 106.289 109.217 106.803C109.399 107.317 109.686 107.788 110.059 108.186C110.431 108.584 110.882 108.901 111.383 109.116C111.884 109.332 112.425 109.442 112.97 109.439C113.193 109.437 113.409 109.358 113.579 109.214C113.75 109.071 113.865 108.872 113.905 108.653C114.921 103.298 114.041 97.7561 111.416 92.9796C108.791 88.2031 104.584 84.4899 99.5186 82.4778C94.4532 80.4657 88.8452 80.2803 83.658 81.9534C78.4707 83.6266 74.028 87.0539 71.093 91.6465C70.936 91.8895 70.8474 92.1701 70.8362 92.4591C70.8251 92.7481 70.892 93.0347 71.0298 93.289C71.1676 93.5432 71.3713 93.7557 71.6195 93.9041C71.8677 94.0526 72.1513 94.1314 72.4405 94.1325H73.469C74.1599 94.1274 74.8416 93.9729 75.4673 93.6795C76.0929 93.3862 76.6476 92.961 77.0935 92.433C78.8934 90.3369 81.1489 88.6801 83.6875 87.5896C86.2261 86.499 88.9805 86.0036 91.74 86.141C100.556 86.537 108.465 94.3635 108.999 103.164Z" fill="#333333"/>
<path d="M95.4413 115.549C101.655 113.016 104.638 105.925 102.105 99.7116C99.572 93.4982 92.4815 90.5147 86.268 93.0478C80.0545 95.5809 77.071 102.671 79.6042 108.885C82.1373 115.098 89.2278 118.082 95.4413 115.549Z" fill="white"/>
<path d="M101.623 104.286C101.623 105.698 101.345 107.097 100.804 108.402C100.264 109.707 99.4712 110.892 98.4722 111.891C97.4731 112.889 96.2871 113.681 94.9819 114.221C93.6767 114.761 92.2779 115.039 90.8654 115.038C89.2605 115.042 87.6754 114.683 86.2289 113.988C84.3958 113.114 82.8477 111.739 81.7638 110.022C80.6799 108.305 80.1046 106.316 80.1046 104.286C80.1046 102.255 80.6799 100.266 81.7638 98.5489C82.8477 96.8318 84.3958 95.457 86.2289 94.5836C87.6777 93.892 89.2628 93.533 90.8682 93.533C92.4736 93.533 94.0586 93.892 95.5074 94.5836C97.7217 95.6485 99.508 97.4348 100.573 99.6491C101.266 101.096 101.625 102.681 101.623 104.286V104.286Z" fill="black"/>
<path d="M99.462 108.537C99.825 108.686 100.194 108.812 100.562 108.928C99.4968 111.14 97.7104 112.925 95.4965 113.988C95.3865 113.608 95.2545 113.24 95.1115 112.888C94.3246 111.003 93.2278 109.263 91.8665 107.74C91.2064 107.938 90.5027 107.938 89.8425 107.74C88.4832 109.263 87.3882 111.003 86.603 112.888C86.46 113.245 86.328 113.614 86.218 113.988C84.0013 112.927 82.2126 111.142 81.147 108.928C81.5265 108.812 81.895 108.686 82.247 108.537C84.1362 107.757 85.8789 106.662 87.4005 105.298C87.2025 104.639 87.2025 103.937 87.4005 103.279C85.8777 101.915 84.1354 100.818 82.247 100.034C81.884 99.8911 81.5155 99.7591 81.147 99.6491C82.2123 97.4331 84.001 95.6464 86.218 94.5836C86.3277 94.9572 86.4581 95.3244 86.6085 95.6836C87.3899 97.5706 88.4832 99.3127 89.8425 100.837C90.5027 100.639 91.2064 100.639 91.8665 100.837C93.2259 99.3137 94.3209 97.5737 95.106 95.6891C95.2545 95.3261 95.381 94.9576 95.4965 94.5891C97.7108 95.654 99.4971 97.4403 100.562 99.6546C100.183 99.7646 99.814 99.8965 99.462 100.04C97.5746 100.822 95.8338 101.919 94.314 103.285C94.5067 103.944 94.5067 104.644 94.314 105.303C95.8331 106.667 97.5742 107.76 99.462 108.537V108.537Z" fill="#39B54A"/>
<path d="M93.1206 104.286C93.1206 104.732 92.9883 105.167 92.7405 105.538C92.4927 105.909 92.1406 106.198 91.7285 106.369C91.3165 106.54 90.8631 106.584 90.4256 106.497C89.9882 106.41 89.5864 106.195 89.271 105.88C88.9557 105.565 88.7409 105.163 88.6539 104.725C88.5669 104.288 88.6115 103.835 88.7822 103.423C88.9529 103.011 89.2419 102.658 89.6128 102.411C89.9836 102.163 90.4196 102.031 90.8656 102.031C91.4632 102.032 92.0359 102.27 92.4585 102.693C92.8811 103.115 93.1191 103.688 93.1206 104.286V104.286Z" fill="white"/>
<path d="M91.6905 104.285C91.6915 104.449 91.6441 104.609 91.5541 104.745C91.4641 104.882 91.3356 104.988 91.185 105.052C91.0343 105.115 90.8683 105.132 90.7079 105.101C90.5475 105.07 90.4 104.991 90.2841 104.876C90.1681 104.761 90.089 104.614 90.0567 104.454C90.0244 104.294 90.0405 104.128 90.1027 103.977C90.165 103.826 90.2707 103.696 90.4065 103.605C90.5423 103.515 90.7021 103.466 90.8655 103.466C91.0833 103.466 91.2923 103.552 91.4469 103.706C91.6014 103.859 91.689 104.068 91.6905 104.285V104.285Z" fill="#39B54A"/>
<g style="mix-blend-mode:multiply" opacity="0.7">
<path d="M99.462 100.034C99.825 99.8911 100.194 99.7591 100.562 99.6491C99.4971 97.4348 97.7108 95.6485 95.4965 94.5836C95.381 94.9631 95.2545 95.3316 95.106 95.6836C96.9966 96.6157 98.5275 98.1447 99.462 100.034V100.034ZM95.15 112.882C95.293 113.24 95.425 113.608 95.535 113.982C97.7489 112.919 99.5353 111.135 100.601 108.922C100.221 108.807 99.8525 108.68 99.5005 108.532C98.5657 110.419 97.0373 111.947 95.15 112.882V112.882ZM81.1855 99.6491C81.565 99.7591 81.9335 99.8911 82.2855 100.034C83.2196 98.1476 84.7484 96.6208 86.636 95.6891C86.4856 95.3299 86.3552 94.9627 86.2455 94.5891C84.0232 95.6475 82.2285 97.4325 81.158 99.6491H81.1855ZM82.2855 108.537C81.9225 108.686 81.554 108.812 81.1855 108.928C82.2511 111.142 84.0398 112.927 86.2565 113.988C86.3665 113.608 86.4985 113.24 86.6415 112.888C84.7453 111.958 83.2085 110.429 82.269 108.537H82.2855Z" fill="#39B54A"/>
</g>
<path d="M230.792 124.179C241.776 121.541 248.543 110.499 245.906 99.5143C243.269 88.5297 232.226 81.7628 221.242 84.3999C210.257 87.0371 203.49 98.0797 206.127 109.064C208.765 120.049 219.807 126.816 230.792 124.179Z" fill="#1A1A1A"/>
<path d="M230.266 121.932C240.02 119.594 246.032 109.791 243.693 100.038C241.355 90.284 231.553 84.2724 221.799 86.6104C212.046 88.9485 206.034 98.7508 208.372 108.505C210.71 118.258 220.512 124.27 230.266 121.932Z" fill="black"/>
<path d="M207.9 103.164C207.862 103.841 207.862 104.521 207.9 105.199C207.939 105.743 207.864 106.289 207.682 106.803C207.5 107.317 207.213 107.788 206.84 108.186C206.468 108.584 206.017 108.901 205.516 109.116C205.015 109.332 204.474 109.442 203.929 109.439V109.439C203.706 109.437 203.49 109.358 203.32 109.214C203.149 109.071 203.034 108.872 202.994 108.653C201.978 103.298 202.858 97.7561 205.483 92.9796C208.108 88.2031 212.315 84.4899 217.38 82.4778C222.446 80.4657 228.054 80.2803 233.241 81.9534C238.428 83.6266 242.871 87.0539 245.806 91.6465C245.963 91.8898 246.052 92.171 246.063 92.4605C246.074 92.7499 246.006 93.037 245.868 93.2914C245.729 93.5458 245.525 93.7582 245.276 93.9062C245.027 94.0543 244.743 94.1324 244.453 94.1325H243.43C242.739 94.1274 242.057 93.9729 241.432 93.6795C240.806 93.3862 240.251 92.961 239.805 92.433C238.006 90.3369 235.75 88.6801 233.211 87.5896C230.673 86.499 227.918 86.0036 225.159 86.141C216.326 86.537 208.45 94.3635 207.9 103.164Z" fill="#333333"/>
<path d="M228.837 116.108C235.364 114.552 239.394 107.999 237.838 101.472C236.282 94.9451 229.729 90.9154 223.202 92.4716C216.675 94.0278 212.645 100.581 214.201 107.108C215.757 113.635 222.31 117.664 228.837 116.108Z" fill="white"/>
<path d="M215.265 104.286C215.265 105.7 215.544 107.101 216.086 108.408C216.629 109.715 217.424 110.902 218.426 111.9C219.428 112.899 220.617 113.691 221.925 114.229C223.234 114.767 224.635 115.042 226.05 115.038C227.655 115.042 229.24 114.683 230.687 113.988C232.52 113.114 234.068 111.739 235.152 110.022C236.236 108.305 236.811 106.316 236.811 104.286C236.811 102.255 236.236 100.266 235.152 98.5489C234.068 96.8318 232.52 95.457 230.687 94.5836C229.238 93.892 227.653 93.533 226.047 93.533C224.442 93.533 222.857 93.892 221.408 94.5836C219.577 95.4587 218.031 96.8342 216.949 98.5511C215.866 100.268 215.292 102.256 215.292 104.286H215.265Z" fill="black"/>
<path d="M222.574 105.298C220.768 106.936 218.634 108.173 216.315 108.928C217.378 111.142 219.165 112.927 221.381 113.988C222.14 111.672 223.376 109.542 225.011 107.734C225.671 107.932 226.374 107.932 227.035 107.734C228.667 109.542 229.902 111.672 230.659 113.988C232.876 112.927 234.664 111.142 235.73 108.928C233.409 108.173 231.274 106.936 229.466 105.298C229.658 104.639 229.658 103.938 229.466 103.279C231.273 101.639 233.408 100.401 235.73 99.6491C234.665 97.4331 232.876 95.6464 230.659 94.5836C229.901 96.8984 228.666 99.0287 227.035 100.837C226.374 100.639 225.671 100.639 225.011 100.837C223.376 99.0275 222.14 96.8953 221.381 94.5781C219.165 95.6412 217.378 97.428 216.315 99.6436C218.635 100.396 220.769 101.633 222.574 103.274C222.38 103.934 222.38 104.637 222.574 105.298V105.298Z" fill="#39B54A"/>
<g style="mix-blend-mode:multiply" opacity="0.7">
<path d="M234.619 100.034C234.982 99.8911 235.351 99.7591 235.719 99.6491C234.654 97.4348 232.868 95.6485 230.654 94.5836C230.538 94.9631 230.412 95.3316 230.263 95.6836C232.154 96.6157 233.684 98.1447 234.619 100.034V100.034ZM230.28 112.882C230.423 113.24 230.555 113.608 230.665 113.982C232.878 112.919 234.665 111.135 235.73 108.922C235.351 108.807 234.982 108.68 234.63 108.532C233.695 110.419 232.167 111.947 230.28 112.882V112.882ZM216.315 99.6491C216.695 99.7591 217.063 99.8911 217.415 100.034C218.349 98.1476 219.878 96.6208 221.766 95.6891C221.615 95.3299 221.485 94.9627 221.375 94.5891C219.163 95.6526 217.379 97.437 216.315 99.6491V99.6491ZM217.415 108.537C217.052 108.686 216.684 108.812 216.315 108.928C217.381 111.142 219.169 112.927 221.386 113.988C221.496 113.608 221.628 113.24 221.771 112.888C219.885 111.953 218.358 110.424 217.426 108.537H217.415Z" fill="#39B54A"/>
</g>
<path d="M223.768 104.286C223.768 104.732 223.9 105.167 224.148 105.538C224.395 105.909 224.748 106.198 225.16 106.369C225.572 106.54 226.025 106.584 226.462 106.497C226.9 106.41 227.302 106.195 227.617 105.88C227.932 105.565 228.147 105.163 228.234 104.725C228.321 104.288 228.277 103.835 228.106 103.423C227.935 103.011 227.646 102.658 227.275 102.411C226.905 102.163 226.469 102.031 226.023 102.031C225.424 102.031 224.851 102.268 224.428 102.691C224.005 103.114 223.768 103.687 223.768 104.286Z" fill="white"/>
<path d="M225.197 104.285C225.196 104.449 225.244 104.609 225.334 104.745C225.424 104.882 225.552 104.988 225.703 105.052C225.854 105.115 226.02 105.132 226.18 105.101C226.34 105.07 226.488 104.991 226.604 104.876C226.72 104.761 226.799 104.614 226.831 104.454C226.863 104.294 226.847 104.128 226.785 103.977C226.723 103.826 226.617 103.696 226.481 103.605C226.346 103.515 226.186 103.466 226.022 103.466C225.805 103.466 225.596 103.552 225.441 103.706C225.286 103.859 225.199 104.068 225.197 104.285V104.285Z" fill="#39B54A"/>
<path d="M219.324 78.6831H214.814C214.624 78.6816 214.443 78.6058 214.31 78.472C214.176 78.3383 214.1 78.1572 214.099 77.9681V77.9681C214.099 77.8742 214.117 77.7812 214.153 77.6944C214.189 77.6077 214.242 77.5289 214.308 77.4625C214.374 77.3961 214.453 77.3434 214.54 77.3075C214.627 77.2716 214.72 77.2531 214.814 77.2531H219.324C219.417 77.2531 219.51 77.2716 219.597 77.3075C219.684 77.3434 219.763 77.3961 219.829 77.4625C219.895 77.5289 219.948 77.6077 219.984 77.6944C220.02 77.7812 220.039 77.8742 220.039 77.9681V77.9681C220.039 78.1577 219.963 78.3395 219.829 78.4736C219.695 78.6077 219.513 78.6831 219.324 78.6831V78.6831Z" fill="white" stroke="#231F20" stroke-width="0.5" stroke-miterlimit="10"/>
<g style="mix-blend-mode:multiply" opacity="0.5">
<path d="M210.65 65.802C210.391 65.2932 209.998 64.8649 209.513 64.5634C209.029 64.2619 208.471 64.0987 207.9 64.0916H113.3C112.729 64.0993 112.172 64.2628 111.687 64.5642C111.202 64.8656 110.809 65.2936 110.55 65.802H210.65Z" fill="#7FB5C9"/>
</g>
</svg>
