<svg width="68" height="21" viewBox="0 0 68 21" fill="none" xmlns="http://www.w3.org/2000/svg">
<path d="M3.87222 13.9391C4.00284 14.9493 4.34682 15.7243 4.90414 16.2642C5.47017 16.8041 6.22778 17.0741 7.17697 17.0741C7.86492 17.0741 8.45707 16.9217 8.95344 16.6169C9.45851 16.3121 9.84167 15.8723 10.1029 15.2976L13.6558 16.3164C13.3075 17.1611 12.8155 17.8926 12.1798 18.5109C11.5441 19.1205 10.8126 19.5864 9.98536 19.9086C9.15808 20.2308 8.29162 20.3919 7.38597 20.3919C5.95783 20.3919 4.68643 20.0827 3.57179 19.4644C2.46585 18.8462 1.59939 17.9841 0.9724 16.8781C0.35412 15.7722 0.0449803 14.5226 0.0449803 13.1293C0.0449803 11.614 0.345412 10.2817 0.946276 9.13221C1.55585 7.97402 2.40054 7.08143 3.48035 6.45444C4.56017 5.81875 5.79237 5.5009 7.17697 5.5009C8.53545 5.5009 9.7154 5.80133 10.7168 6.40219C11.7183 7.00306 12.4846 7.85646 13.0158 8.9624C13.5557 10.0683 13.8257 11.3659 13.8257 12.8549C13.8257 13.0901 13.8082 13.4515 13.7734 13.9391H3.87222ZM7.33372 8.58359C5.46146 8.58359 4.33811 9.48924 3.96366 11.3005H10.1813C10.0594 10.3513 9.76765 9.6634 9.30612 9.2367C8.85329 8.80129 8.19583 8.58359 7.33372 8.58359ZM23.5797 20H20.0268L14.9064 5.89277H18.4593L21.8032 15.6633L25.1472 5.89277H28.7001L23.5797 20Z" fill="black"/>
<path d="M34.8749 3.93343H31.3219V0.798488H34.8749V3.93343ZM34.8749 20H31.3219V5.89277H34.8749V20ZM50.0506 8.0611C50.3031 8.53134 50.4598 9.01029 50.5208 9.49795C50.5905 9.9769 50.6253 10.6039 50.6253 11.3789V20H47.5165V18.2758C46.8895 19.0247 46.2015 19.5646 45.4526 19.8955C44.7037 20.2264 43.7894 20.3919 42.7096 20.3919C41.7343 20.3919 40.8896 20.2046 40.1755 19.8302C39.4701 19.447 38.9302 18.9289 38.5558 18.2758C38.19 17.6227 38.0072 16.8999 38.0072 16.1074C38.0072 15.0799 38.2466 14.2134 38.7256 13.5081C39.2045 12.8027 39.9926 12.2497 41.0898 11.8492C41.6994 11.6227 42.444 11.4312 43.3235 11.2744C44.203 11.109 45.4701 10.9043 47.1246 10.6605C47.0549 9.99867 46.8111 9.51536 46.3931 9.21058C45.9838 8.89708 45.3656 8.74034 44.5383 8.74034C43.9374 8.74034 43.367 8.87967 42.8271 9.15833C42.2872 9.43699 41.9171 9.8724 41.7168 10.4646L38.5035 9.4457C38.8693 8.22656 39.5572 7.2643 40.5674 6.55894C41.5775 5.85358 42.9011 5.5009 44.5383 5.5009C47.3162 5.5009 49.1536 6.3543 50.0506 8.0611ZM46.7327 15.7156C46.9592 15.254 47.0811 14.5269 47.0985 13.5342C45.8706 13.7432 44.9693 13.9086 44.3946 14.0306C43.8199 14.1525 43.3366 14.2874 42.9447 14.4355C42.4309 14.6445 42.0565 14.8796 41.8213 15.1408C41.5949 15.3934 41.4817 15.6982 41.4817 16.0552C41.4817 16.5341 41.6559 16.913 42.0042 17.1916C42.3612 17.4616 42.8489 17.5965 43.4672 17.5965C44.068 17.5965 44.5949 17.492 45.0477 17.2831C45.5005 17.0653 45.8619 16.8128 46.1319 16.5254C46.4105 16.2381 46.6108 15.9681 46.7327 15.7156ZM61.7284 5.47477C63.383 5.47477 64.6152 5.89712 65.425 6.74181C66.2436 7.5865 66.7487 8.47909 66.9402 9.41957C67.1405 10.3601 67.2407 11.2483 67.2407 12.0843V20H63.6355V13.3383C63.6355 12.6242 63.5832 11.9537 63.4787 11.3267C63.3743 10.6997 63.0956 10.1249 62.6428 9.60245C62.1986 9.07996 61.5194 8.81871 60.6051 8.81871C59.7865 8.81871 59.0811 9.10173 58.489 9.66776C57.8968 10.2251 57.6007 11.2831 57.6007 12.8419V20H53.9956V5.89277H57.1566V7.34268C57.6878 6.75052 58.3366 6.29334 59.1029 5.97114C59.8692 5.64023 60.7444 5.47477 61.7284 5.47477Z" fill="#20D7FF"/>
</svg>
