<svg width="328" height="181" viewBox="0 0 328 181" fill="none" xmlns="http://www.w3.org/2000/svg">
<path d="M300.388 173.557C299.059 137.886 284.259 104.129 259.095 79.3725C233.931 54.6162 200.361 40.7863 165.433 40.7863C130.505 40.7863 96.9347 54.6162 71.771 79.3725C46.6073 104.129 31.8071 137.886 30.4775 173.557H300.388Z" fill="#8CE0F4"/>
<path d="M20.5472 175.321L20.6806 171.774C21.9912 133.718 37.7051 97.6679 64.5113 71.2192C91.3175 44.7706 127.123 29.989 164.383 29.989C201.643 29.989 237.448 44.7706 264.254 71.2192C291.06 97.6679 306.774 133.718 308.085 171.774L308.218 175.321H308.877L308.743 171.747C307.308 133.605 291.472 97.5133 264.559 71.0465C237.647 44.5796 201.749 29.7949 164.401 29.7949C127.052 29.7949 91.1544 44.5796 64.2418 71.0465C37.3293 97.5133 21.4936 133.605 20.0578 171.747L19.9243 175.321H20.5472Z" fill="#073944"/>
<path d="M191.281 165H188.292C188.711 162.082 188.535 159.108 187.777 156.263C187.018 153.419 185.693 150.765 183.884 148.468C182.075 146.171 179.821 144.281 177.263 142.916C174.706 141.551 171.9 140.741 169.022 140.536C166.144 140.332 163.256 140.737 160.538 141.726C157.821 142.716 155.332 144.268 153.229 146.287C151.126 148.305 149.454 150.746 148.317 153.456C147.18 156.166 146.603 159.087 146.622 162.035V162.208C146.631 162.571 146.568 162.933 146.437 163.271C146.307 163.61 146.112 163.918 145.863 164.178C145.614 164.438 145.317 164.645 144.989 164.786C144.661 164.927 144.309 165 143.953 165H101.394C100.686 165 100.007 164.712 99.5066 164.201C99.006 163.689 98.7248 162.995 98.7248 162.271V161.762C98.7055 158.951 98.1446 156.171 97.0742 153.582C96.0037 150.992 94.4447 148.643 92.4861 146.669C90.5274 144.696 88.2076 143.135 85.6589 142.078C83.1103 141.02 80.3828 140.486 77.6321 140.506C74.8815 140.525 72.1616 141.099 69.6277 142.193C67.0938 143.287 64.7956 144.88 62.8642 146.882C60.9329 148.883 59.4062 151.254 58.3714 153.859C57.3366 156.464 56.8139 159.251 56.8332 162.062C56.8435 163.055 56.9268 164.046 57.0823 165.027C57.0823 165.027 44.5718 165.027 44.5718 158.088C44.5718 158.088 46.7518 123.896 74.8248 119.167C74.8248 119.167 96.5804 99.9705 131.985 94.6961H132.074C136.648 94.0282 141.264 93.7 145.884 93.714H185.124C185.755 93.7139 186.377 93.863 186.941 94.1497C187.506 94.4364 187.998 94.8527 188.379 95.3663C188.76 95.8798 189.02 96.4765 189.137 97.1096C189.255 97.7428 189.227 98.3951 189.057 99.0156L188.309 101.744C188.309 101.744 200.838 110.919 203.222 131.135C205.607 151.35 191.281 165 191.281 165Z" fill="#06B3F7"/>
<path d="M57.2423 157.743H44.625C44.625 157.952 44.625 158.07 44.625 158.07C44.625 165 57.0822 165 57.0822 165C56.7155 162.585 56.7637 160.123 57.2245 157.725L57.2423 157.743Z" fill="#008CB7"/>
<path d="M188.167 157.743C188.621 160.142 188.663 162.604 188.292 165.018H191.281C193.428 162.822 195.321 160.381 196.923 157.743H188.167Z" fill="#008CB7"/>
<path d="M98.3862 157.743C98.6329 159.059 98.7581 160.395 98.76 161.735C98.76 161.908 98.76 162.081 98.76 162.262C98.76 162.986 99.0412 163.68 99.5418 164.191C100.042 164.703 100.721 164.991 101.429 164.991H144.051C144.406 164.991 144.759 164.918 145.087 164.777C145.415 164.636 145.712 164.429 145.96 164.169C146.209 163.909 146.405 163.601 146.535 163.262C146.665 162.924 146.728 162.562 146.72 162.199V162.026C146.703 160.586 146.831 159.147 147.103 157.734L98.3862 157.743Z" fill="#008CB7"/>
<path d="M98.7515 161.617C98.7515 155.939 96.5447 150.495 92.6166 146.48C88.6885 142.465 83.3609 140.21 77.8057 140.21C72.2505 140.21 66.9229 142.465 62.9948 146.48C59.0667 150.495 56.8599 155.939 56.8599 161.617H98.7515Z" fill="#073944"/>
<path d="M188.532 161.617C188.532 155.939 186.325 150.494 182.397 146.48C178.469 142.465 173.141 140.21 167.586 140.21C162.031 140.21 156.703 142.465 152.775 146.48C148.847 150.494 146.64 155.939 146.64 161.617H188.532Z" fill="#073944"/>
<path d="M77.8057 142.856C74.1522 142.856 70.5808 143.964 67.5431 146.038C64.5053 148.112 62.1377 151.061 60.7396 154.51C59.3415 157.96 58.9757 161.756 59.6884 165.418C60.4012 169.08 62.1605 172.444 64.7439 175.084C67.3273 177.724 70.6187 179.522 74.2019 180.251C77.7852 180.979 81.4993 180.605 84.8747 179.176C88.25 177.748 91.135 175.328 93.1647 172.223C95.1945 169.119 96.2778 165.469 96.2778 161.735C96.2731 156.73 94.3255 151.93 90.8623 148.391C87.3991 144.852 82.7034 142.861 77.8057 142.856Z" fill="#073944"/>
<path d="M77.8054 177.003C86.0564 177.003 92.7451 170.167 92.7451 161.735C92.7451 153.302 86.0564 146.467 77.8054 146.467C69.5545 146.467 62.8657 153.302 62.8657 161.735C62.8657 170.167 69.5545 177.003 77.8054 177.003Z" fill="#073944"/>
<path d="M90.0271 164.659C91.6094 157.764 87.4233 150.864 80.6774 149.247C73.9314 147.63 67.1801 151.908 65.5978 158.803C64.0156 165.697 68.2016 172.597 74.9475 174.214C81.6935 175.831 88.4449 171.553 90.0271 164.659Z" fill="#EFEEED"/>
<path d="M75.5275 159.698H76.1592C76.4519 159.704 76.7418 159.638 77.0045 159.507C77.2673 159.375 77.4953 159.181 77.6696 158.94C77.8438 158.7 77.9592 158.42 78.006 158.125C78.0529 157.83 78.0298 157.527 77.9388 157.243L76.7109 153.442C76.5449 152.941 76.2742 152.484 75.9175 152.101C75.5609 151.718 75.127 151.419 74.646 151.226C74.1649 151.032 73.6483 150.947 73.1321 150.978C72.6159 151.009 72.1125 151.155 71.6569 151.405C71.1133 151.723 70.6617 152.183 70.3476 152.737C70.0336 153.291 69.8682 153.92 69.8682 154.56C69.8682 155.2 70.0336 155.829 70.3476 156.383C70.6617 156.938 71.1133 157.397 71.6569 157.716L74.6911 159.462C74.948 159.606 75.2345 159.687 75.5275 159.698Z" fill="#073944"/>
<path d="M75.1005 163.217L75.2962 162.599C75.3876 162.315 75.4109 162.013 75.3641 161.718C75.3173 161.423 75.2018 161.144 75.0273 160.904C74.8529 160.664 74.6246 160.471 74.3616 160.34C74.0987 160.209 73.8089 160.145 73.5166 160.153H69.6015C69.0832 160.159 68.5724 160.28 68.1049 160.509C67.6373 160.737 67.2243 161.068 66.8946 161.477C66.565 161.885 66.3266 162.363 66.1963 162.875C66.066 163.388 66.0469 163.924 66.1402 164.445C66.2665 165.072 66.5524 165.654 66.969 166.131C67.3856 166.609 67.9183 166.966 68.5131 167.166C69.1079 167.367 69.7439 167.403 70.3569 167.272C70.9698 167.14 71.5379 166.846 72.004 166.418L74.5666 163.999C74.8073 163.79 74.9911 163.52 75.1005 163.217Z" fill="#073944"/>
<path d="M78.2768 164.727L77.7607 164.345C77.5286 164.172 77.2602 164.058 76.977 164.011C76.6938 163.964 76.4038 163.986 76.1303 164.074C75.8568 164.163 75.6074 164.316 75.4022 164.521C75.1971 164.725 75.0418 164.977 74.949 165.254L73.7478 169.064C73.5943 169.57 73.5506 170.103 73.6197 170.628C73.6888 171.152 73.869 171.655 74.1477 172.101C74.4264 172.547 74.797 172.925 75.2335 173.209C75.67 173.494 76.162 173.678 76.6752 173.748C77.2961 173.816 77.9237 173.717 78.495 173.459C79.0663 173.201 79.5612 172.794 79.93 172.279C80.2987 171.764 80.5284 171.159 80.5959 170.524C80.6633 169.89 80.5663 169.248 80.3144 168.664L78.8641 165.427C78.7252 165.149 78.5239 164.909 78.2768 164.727Z" fill="#073944"/>
<path d="M80.6617 162.108L80.1545 162.49C79.9193 162.662 79.7277 162.89 79.5956 163.153C79.4635 163.416 79.3945 163.708 79.3945 164.004C79.3945 164.3 79.4635 164.591 79.5956 164.855C79.7277 165.118 79.9193 165.345 80.1545 165.518L83.331 167.864C83.7539 168.169 84.2367 168.375 84.7457 168.47C85.2546 168.564 85.7776 168.544 86.2782 168.41C86.7787 168.277 87.2449 168.034 87.6441 167.698C88.0433 167.361 88.366 166.94 88.5897 166.464C88.8433 165.885 88.9446 165.249 88.8834 164.618C88.8223 163.987 88.601 163.384 88.2413 162.867C87.8816 162.351 87.3961 161.939 86.833 161.674C86.2698 161.408 85.6484 161.298 85.0306 161.353L81.5692 161.762C81.2437 161.8 80.9321 161.919 80.6617 162.108Z" fill="#073944"/>
<path d="M78.9978 158.98L79.1935 159.589C79.2843 159.869 79.4389 160.123 79.6445 160.33C79.8501 160.537 80.101 160.692 80.3763 160.781C80.6517 160.869 80.9438 160.89 81.2285 160.841C81.5133 160.792 81.7825 160.674 82.0142 160.498L85.173 158.134C85.588 157.817 85.9304 157.412 86.1765 156.947C86.4225 156.481 86.5662 155.967 86.5976 155.438C86.6289 154.91 86.5472 154.381 86.358 153.889C86.1688 153.396 85.8767 152.952 85.5022 152.587C85.0393 152.157 84.4737 151.859 83.8626 151.724C83.2514 151.589 82.6161 151.621 82.0207 151.816C81.4253 152.012 80.8908 152.364 80.471 152.838C80.0512 153.311 79.761 153.89 79.6295 154.515L78.9444 158.007C78.8752 158.33 78.8937 158.666 78.9978 158.98Z" fill="#073944"/>
<path d="M77.7341 163.254C78.4909 163.254 79.1043 162.627 79.1043 161.853C79.1043 161.08 78.4909 160.453 77.7341 160.453C76.9773 160.453 76.3638 161.08 76.3638 161.853C76.3638 162.627 76.9773 163.254 77.7341 163.254Z" fill="#073944"/>
<path d="M167.585 142.856C163.932 142.856 160.361 143.964 157.323 146.038C154.285 148.112 151.918 151.061 150.519 154.51C149.121 157.96 148.755 161.756 149.468 165.418C150.181 169.08 151.94 172.444 154.524 175.084C157.107 177.724 160.398 179.522 163.982 180.251C167.565 180.979 171.279 180.605 174.654 179.176C178.03 177.748 180.915 175.328 182.944 172.223C184.974 169.119 186.058 165.469 186.058 161.735C186.053 156.73 184.105 151.93 180.642 148.391C177.179 144.852 172.483 142.861 167.585 142.856Z" fill="#073944"/>
<path d="M167.586 177.003C175.837 177.003 182.525 170.167 182.525 161.735C182.525 153.302 175.837 146.467 167.586 146.467C159.335 146.467 152.646 153.302 152.646 161.735C152.646 170.167 159.335 177.003 167.586 177.003Z" fill="#073944"/>
<path d="M179.799 164.655C181.381 157.761 177.195 150.861 170.449 149.244C163.703 147.627 156.952 151.905 155.37 158.799C153.788 165.693 157.974 172.593 164.72 174.21C171.465 175.827 178.217 171.549 179.799 164.655Z" fill="#EFEEED"/>
<path d="M165.308 159.698H165.94C166.232 159.704 166.522 159.638 166.785 159.507C167.048 159.375 167.276 159.181 167.45 158.94C167.624 158.7 167.739 158.42 167.786 158.125C167.833 157.83 167.81 157.527 167.719 157.243L166.491 153.442C166.325 152.941 166.054 152.484 165.698 152.101C165.341 151.718 164.907 151.419 164.426 151.226C163.945 151.032 163.429 150.947 162.912 150.978C162.396 151.009 161.893 151.155 161.437 151.405C160.894 151.723 160.442 152.183 160.128 152.737C159.814 153.291 159.648 153.92 159.648 154.56C159.648 155.2 159.814 155.829 160.128 156.383C160.442 156.938 160.894 157.397 161.437 157.716L164.418 159.425C164.686 159.595 164.993 159.689 165.308 159.698Z" fill="#073944"/>
<path d="M164.881 163.217L165.076 162.599C165.168 162.315 165.191 162.013 165.144 161.718C165.098 161.423 164.982 161.144 164.808 160.904C164.633 160.664 164.405 160.471 164.142 160.34C163.879 160.209 163.589 160.145 163.297 160.153H159.382C158.863 160.159 158.353 160.28 157.885 160.509C157.418 160.737 157.005 161.068 156.675 161.477C156.345 161.885 156.107 162.363 155.977 162.875C155.846 163.388 155.827 163.924 155.92 164.445C156.047 165.072 156.333 165.654 156.749 166.131C157.166 166.609 157.699 166.966 158.293 167.166C158.888 167.367 159.524 167.403 160.137 167.272C160.75 167.14 161.318 166.846 161.784 166.418L164.347 163.999C164.588 163.79 164.771 163.52 164.881 163.217Z" fill="#073944"/>
<path d="M168.058 164.727L167.55 164.345C167.318 164.171 167.049 164.055 166.765 164.007C166.481 163.959 166.189 163.98 165.914 164.069C165.64 164.157 165.389 164.311 165.183 164.517C164.978 164.723 164.822 164.975 164.73 165.254L163.529 169.101C163.375 169.606 163.331 170.14 163.4 170.664C163.47 171.188 163.65 171.691 163.928 172.137C164.207 172.583 164.578 172.961 165.014 173.246C165.451 173.53 165.943 173.714 166.456 173.784C167.078 173.854 167.706 173.756 168.279 173.499C168.852 173.242 169.348 172.835 169.718 172.32C170.088 171.805 170.318 171.199 170.386 170.563C170.454 169.928 170.357 169.286 170.104 168.701L168.645 165.463C168.514 165.171 168.311 164.917 168.058 164.727Z" fill="#073944"/>
<path d="M170.451 162.108L169.935 162.49C169.7 162.662 169.508 162.89 169.376 163.153C169.244 163.416 169.175 163.708 169.175 164.004C169.175 164.3 169.244 164.591 169.376 164.855C169.508 165.118 169.7 165.345 169.935 165.518L173.112 167.864C173.535 168.169 174.017 168.375 174.526 168.47C175.035 168.564 175.558 168.544 176.059 168.41C176.56 168.277 177.026 168.034 177.425 167.698C177.824 167.361 178.147 166.94 178.37 166.464C178.627 165.881 178.728 165.241 178.665 164.606C178.602 163.97 178.377 163.363 178.012 162.845C177.647 162.328 177.155 161.917 176.585 161.655C176.015 161.393 175.388 161.289 174.767 161.353L171.306 161.762C170.998 161.807 170.706 161.926 170.451 162.108Z" fill="#073944"/>
<path d="M168.752 158.98L168.947 159.589C169.038 159.869 169.193 160.123 169.398 160.33C169.604 160.537 169.855 160.692 170.13 160.781C170.406 160.869 170.698 160.89 170.982 160.841C171.267 160.792 171.536 160.674 171.768 160.498L174.927 158.134C175.342 157.817 175.684 157.412 175.93 156.947C176.176 156.481 176.32 155.967 176.351 155.438C176.383 154.91 176.301 154.381 176.112 153.889C175.923 153.396 175.631 152.952 175.256 152.587C174.793 152.157 174.228 151.859 173.616 151.724C173.005 151.589 172.37 151.621 171.775 151.816C171.179 152.012 170.645 152.364 170.225 152.838C169.805 153.311 169.515 153.89 169.383 154.515L168.698 158.007C168.629 158.33 168.648 158.666 168.752 158.98Z" fill="#073944"/>
<path d="M167.524 163.254C168.28 163.254 168.894 162.627 168.894 161.853C168.894 161.08 168.28 160.453 167.524 160.453C166.767 160.453 166.153 161.08 166.153 161.853C166.153 162.627 166.767 163.254 167.524 163.254Z" fill="#073944"/>
<path d="M188.504 132.23C190.033 128.48 188.298 124.173 184.628 122.61C180.959 121.047 176.744 122.821 175.215 126.571C173.686 130.322 175.421 134.629 179.091 136.192C182.761 137.754 186.975 135.981 188.504 132.23Z" fill="#073944"/>
<path d="M161.589 121.923C162.869 119.926 163.597 117.612 163.696 115.226C163.795 112.841 163.261 110.472 162.15 108.371C161.039 106.271 159.394 104.516 157.387 103.293C155.38 102.071 153.087 101.425 150.751 101.425H131.175C121.604 101.427 112.397 105.172 105.442 111.892L97.0339 120.013C95.3785 121.617 94.2915 123.738 93.9436 126.043C93.5958 128.347 94.0067 130.704 95.1119 132.744L104.811 150.504C105.576 151.911 106.696 153.083 108.054 153.899C109.412 154.714 110.959 155.144 112.534 155.142H133.987C135.912 155.145 137.807 154.656 139.501 153.721C141.195 152.785 142.633 151.433 143.686 149.786L161.589 121.923Z" fill="#073944"/>
<path style="mix-blend-mode:overlay" d="M161.678 116.73C161.971 115.093 161.908 113.409 161.495 111.799C161.081 110.188 160.327 108.691 159.285 107.411C158.242 106.132 156.938 105.102 155.463 104.394C153.989 103.687 152.38 103.319 150.751 103.317H131.175C122.083 103.33 113.343 106.91 106.759 113.32L103.2 116.776L161.678 116.73Z" fill="url(#paint0_linear_142_1011)"/>
<path d="M100.353 125.806C99.663 125.8 98.9837 125.977 98.381 126.32C97.7784 126.662 97.273 127.159 96.9144 127.761C96.5558 128.363 96.3561 129.05 96.3349 129.754C96.3137 130.459 96.4717 131.157 96.7934 131.78V131.844L106.492 149.604C107.095 150.708 107.975 151.627 109.042 152.267C110.109 152.906 111.324 153.243 112.561 153.241H133.987C135.597 153.245 137.183 152.838 138.6 152.056C140.017 151.275 141.221 150.144 142.102 148.767L152.779 132.126C153.174 131.51 153.399 130.796 153.429 130.06C153.459 129.324 153.294 128.594 152.951 127.946C152.608 127.298 152.1 126.757 151.481 126.38C150.862 126.004 150.154 125.805 149.434 125.806H100.353Z" fill="#06B3F7"/>
<path d="M101.875 141.129L106.501 149.604C107.104 150.708 107.984 151.627 109.051 152.267C110.118 152.906 111.333 153.243 112.57 153.241H133.987C135.597 153.245 137.183 152.838 138.6 152.056C140.017 151.275 141.221 150.144 142.102 148.767L146.996 141.129H101.875Z" fill="#008CB7"/>
<path d="M203.266 131.116C200.882 110.901 188.353 101.726 188.353 101.726L184.794 104.517C184.482 104.762 184.23 105.076 184.056 105.437C183.882 105.797 183.792 106.193 183.792 106.595C183.792 106.997 183.882 107.393 184.056 107.754C184.23 108.114 184.482 108.429 184.794 108.673C193.394 115.551 199.88 124.809 203.48 135.345C203.486 133.932 203.415 132.521 203.266 131.116Z" fill="#073944"/>
<path d="M66.3095 127.07C68.712 126.706 70.02 129.498 68.5251 131.444C65.4464 135.436 61.5758 140.146 59.3246 143.047C58.2581 144.413 56.9044 145.515 55.364 146.272C53.8235 147.029 52.136 147.422 50.4267 147.421H46.645C46.823 146.812 47.0098 146.203 47.2145 145.603C48.9816 139.923 51.8201 134.653 55.5697 130.089C56.0383 129.543 56.5277 129.007 57.0378 128.479L66.3095 127.07Z" fill="#073944"/>
<path d="M49.3232 145.048C49.3232 145.048 53.3629 134.818 56.753 131.126C57.0975 130.748 57.5668 130.515 58.0699 130.471L66.5942 129.48C66.5942 129.48 58.2034 145.866 49.3232 145.048Z" fill="white"/>
<path d="M53.4165 138.782C53.4165 138.782 55.8101 133.772 57.8121 131.962C58.0318 131.77 58.3064 131.655 58.5951 131.635L63.6314 131.153C63.6314 131.153 58.6752 139.183 53.4165 138.782Z" fill="#FFC50B"/>
<path d="M145.928 93.6776C141.308 93.6636 136.693 93.9919 132.119 94.6597H132.03C96.6247 99.9341 74.8691 119.131 74.8691 119.131H75.7144C78.6063 119.195 94.4624 117.994 100.264 112.429C109.375 103.699 117.428 93.9231 167.969 99.834C172.088 100.331 176.243 99.2634 179.643 96.8331L184.136 93.6412L145.928 93.6776Z" fill="#073944"/>
<path d="M181.048 125.924L178.726 129.716H182.508L180.817 133.481L185.827 128.434H181.894L183.415 125.96L181.048 125.924Z" fill="white"/>
<path d="M275.082 167.519V92.0953C275.082 88.8273 273.812 85.6931 271.551 83.3823C269.29 81.0715 266.223 79.7733 263.025 79.7733H230.263C227.064 79.7733 223.997 81.0712 221.734 83.3818C219.472 85.6923 218.2 88.8265 218.197 92.0953V167.519H275.082Z" fill="#06B3F7"/>
<path d="M263.025 79.7733H252.695C255.893 79.7733 258.961 81.0712 261.223 83.3818C263.486 85.6923 264.758 88.8265 264.76 92.0953V167.519H275.082V92.0953C275.082 88.8273 273.812 85.6931 271.551 83.3823C269.29 81.0715 266.223 79.7733 263.025 79.7733Z" fill="#008CB7"/>
<path d="M275.082 154.169H218.197V166.536H275.082V154.169Z" fill="#008CB7"/>
<path d="M282.53 170.21V162.935C282.53 161.678 282.041 160.472 281.172 159.582C280.303 158.692 279.124 158.191 277.894 158.188H214.336C213.104 158.188 211.922 158.689 211.051 159.579C210.18 160.469 209.691 161.676 209.691 162.935V170.21H282.53Z" fill="#073944"/>
<path d="M261.709 86.0116H230.406C226.376 86.0116 223.109 89.3501 223.109 93.4684V116.93C223.109 121.049 226.376 124.387 230.406 124.387H261.709C265.738 124.387 269.005 121.049 269.005 116.93V93.4684C269.005 89.3501 265.738 86.0116 261.709 86.0116Z" fill="#073944"/>
<path d="M243.566 130.653L237.373 140.765H247.436L242.943 150.786L256.299 137.327H245.799L249.856 130.734L243.566 130.653Z" fill="#073944"/>
<path d="M254.706 96.1329H233.128C231.615 96.1329 230.388 97.3869 230.388 98.9337V110.928C230.388 112.475 231.615 113.729 233.128 113.729H254.706C256.219 113.729 257.446 112.475 257.446 110.928V98.9337C257.446 97.3869 256.219 96.1329 254.706 96.1329Z" fill="white"/>
<path d="M247.614 98.8155H233.128C233.098 98.8155 233.068 98.828 233.047 98.8502C233.025 98.8723 233.013 98.9024 233.013 98.9337V110.937C233.013 110.969 233.025 110.999 233.047 111.021C233.068 111.043 233.098 111.056 233.128 111.056H247.614V98.8155Z" fill="#066E8E"/>
<path d="M259.146 101.107H261.762C261.95 101.107 262.136 101.145 262.31 101.219C262.484 101.292 262.641 101.4 262.775 101.536C262.908 101.672 263.013 101.833 263.085 102.011C263.157 102.189 263.194 102.379 263.194 102.571V106.682C263.194 106.874 263.157 107.064 263.085 107.242C263.013 107.42 262.908 107.581 262.775 107.717C262.641 107.853 262.484 107.961 262.31 108.034C262.136 108.108 261.95 108.146 261.762 108.146H259.146V101.107Z" fill="white"/>
<path d="M214.843 113.138H218.295V126.779H214.843C214.553 126.779 214.266 126.72 213.998 126.607C213.731 126.494 213.487 126.328 213.282 126.118C213.077 125.909 212.915 125.66 212.804 125.387C212.693 125.113 212.636 124.82 212.636 124.523V115.43C212.631 115.131 212.685 114.833 212.794 114.556C212.902 114.278 213.064 114.025 213.27 113.811C213.475 113.598 213.72 113.429 213.99 113.313C214.26 113.198 214.55 113.138 214.843 113.138Z" fill="#073944"/>
<path d="M198.809 147.74H190.801C188.276 147.737 185.854 146.712 184.068 144.888C182.282 143.064 181.276 140.59 181.271 138.009V134.472H183.309V138.009C183.311 140.039 184.101 141.984 185.506 143.418C186.911 144.852 188.815 145.657 190.801 145.657H198.809C200.794 145.657 202.699 144.852 204.103 143.418C205.508 141.984 206.299 140.039 206.301 138.009V126.051C206.301 124.167 207.033 122.359 208.336 121.026C209.639 119.693 211.406 118.942 213.25 118.94H214.247V121.022H213.277C211.973 121.025 210.724 121.556 209.803 122.499C208.882 123.441 208.365 124.719 208.365 126.051V138.037C208.354 140.617 207.341 143.088 205.55 144.907C203.758 146.726 201.334 147.745 198.809 147.74Z" fill="#073944"/>
<path d="M26.0638 131.88C25.6398 131.885 25.2216 131.982 24.8367 132.164C24.4518 132.345 24.1089 132.608 23.8304 132.935L4.157 112.856V40.5703C4.93097 40.4842 5.64323 40.0982 6.14722 39.4918C6.6512 38.8853 6.90859 38.1045 6.86641 37.31C6.82423 36.5155 6.48571 35.7677 5.92048 35.2206C5.35525 34.6734 4.60632 34.3684 3.82777 34.3684C3.04923 34.3684 2.30031 34.6734 1.73508 35.2206C1.16985 35.7677 0.831316 36.5155 0.78914 37.31C0.746964 38.1045 1.00435 38.8853 1.50834 39.4918C2.01233 40.0982 2.72458 40.4842 3.49855 40.5703V113.138L23.4211 133.499C23.1685 133.954 23.0338 134.467 23.0296 134.99C23.0296 135.604 23.2075 136.203 23.5409 136.713C23.8743 137.223 24.3482 137.621 24.9026 137.855C25.4571 138.09 26.0671 138.151 26.6557 138.032C27.2443 137.912 27.785 137.617 28.2093 137.183C28.6336 136.749 28.9226 136.197 29.0397 135.595C29.1568 134.994 29.0967 134.37 28.867 133.804C28.6374 133.237 28.2485 132.753 27.7495 132.412C27.2505 132.071 26.6639 131.889 26.0638 131.889V131.88Z" fill="#073944"/>
<path d="M83.6337 10.8611C82.8313 10.8466 82.0562 11.1585 81.4788 11.7281C80.9014 12.2977 80.5691 13.0784 80.555 13.8984C80.5408 14.7184 80.846 15.5106 81.4033 16.1007C81.9606 16.6907 82.7245 17.0304 83.5269 17.0448V28.7484L64.5475 49.9277V66.7693C63.7787 66.9088 63.0915 67.3442 62.6273 67.9859C62.163 68.6276 61.9571 69.4267 62.0519 70.2188C62.1466 71.0109 62.5348 71.7358 63.1366 72.2443C63.7384 72.7528 64.508 73.0062 65.2871 72.9524C66.0661 72.8986 66.7954 72.5416 67.3248 71.955C67.8542 71.3684 68.1434 70.5968 68.133 69.7988C68.1226 69.0009 67.8134 68.2374 67.2689 67.6654C66.7245 67.0934 65.9862 66.7564 65.206 66.7238V50.2278L84.1853 29.0485V16.9994C84.9349 16.8668 85.608 16.4506 86.0708 15.8336C86.5335 15.2166 86.7518 14.4441 86.6823 13.67C86.6127 12.8958 86.2603 12.1769 85.6953 11.6563C85.1304 11.1358 84.3943 10.8519 83.6337 10.8611Z" fill="#073944"/>
<path d="M262.981 66.8602V49.9641L244.002 28.7485V17.0357C244.764 16.9497 245.465 16.5686 245.96 15.9707C246.456 15.3728 246.709 14.6036 246.667 13.8212C246.624 13.0388 246.291 12.3026 245.734 11.7639C245.177 11.2253 244.439 10.9251 243.672 10.9251C242.906 10.9251 242.168 11.2253 241.611 11.7639C241.054 12.3026 240.721 13.0388 240.678 13.8212C240.636 14.6036 240.889 15.3728 241.385 15.9707C241.88 16.5686 242.581 16.9497 243.343 17.0357V29.0758L262.296 50.2278V66.7602H262.189C261.399 66.7399 260.632 67.0281 260.042 67.566C259.453 68.1039 259.087 68.851 259.018 69.6554C258.949 70.4597 259.182 71.2607 259.671 71.8953C260.159 72.5299 260.866 72.9503 261.647 73.071C262.428 73.1916 263.225 73.0035 263.875 72.5448C264.525 72.0862 264.98 71.3915 265.147 70.6022C265.313 69.813 265.179 68.9885 264.772 68.2966C264.365 67.6048 263.715 67.0976 262.954 66.8784L262.981 66.8602Z" fill="#073944"/>
<path d="M167.025 3.11326C167.028 2.50757 166.857 1.91443 166.533 1.40708C166.209 0.899729 165.747 0.500385 165.204 0.258347C164.66 0.0163085 164.06 -0.0578252 163.476 0.0451015C162.892 0.148028 162.35 0.423509 161.917 0.837528C161.485 1.25155 161.18 1.78598 161.041 2.37484C160.903 2.9637 160.936 3.5812 161.136 4.15111C161.337 4.72102 161.697 5.21838 162.171 5.58179C162.645 5.94519 163.213 6.15873 163.804 6.19603V26.7478C163.028 26.8339 162.313 27.2209 161.808 27.8291C161.302 28.4372 161.044 29.2204 161.086 30.0173C161.128 30.8142 161.468 31.5643 162.035 32.1132C162.601 32.662 163.353 32.9679 164.134 32.9679C164.914 32.9679 165.666 32.662 166.233 32.1132C166.799 31.5643 167.139 30.8142 167.181 30.0173C167.223 29.2204 166.965 28.4372 166.459 27.8291C165.954 27.2209 165.239 26.8339 164.463 26.7478V6.16875C165.176 6.05412 165.825 5.68354 166.295 5.12355C166.765 4.56356 167.024 3.85082 167.025 3.11326Z" fill="#073944"/>
<path d="M327.055 37.4966C327.057 36.8973 326.888 36.3103 326.571 35.8066C326.253 35.303 325.799 34.9043 325.264 34.6588C324.729 34.4133 324.136 34.3314 323.556 34.4232C322.977 34.515 322.436 34.7765 321.998 35.176C321.561 35.5755 321.247 36.0959 321.093 36.6743C320.939 37.2527 320.953 37.8642 321.132 38.4349C321.311 39.0056 321.648 39.511 322.102 39.89C322.557 40.2689 323.109 40.5052 323.692 40.5703V112.865L304.454 132.526C303.909 132.108 303.241 131.89 302.559 131.909C301.878 131.927 301.222 132.18 300.699 132.627C300.176 133.074 299.816 133.688 299.677 134.371C299.538 135.053 299.629 135.763 299.935 136.386C300.241 137.009 300.744 137.508 301.362 137.802C301.98 138.096 302.677 138.169 303.341 138.007C304.004 137.845 304.594 137.46 305.016 136.912C305.438 136.364 305.666 135.687 305.664 134.99C305.66 134.255 305.398 133.545 304.926 132.99L324.252 113.238L324.35 113.138V40.5703C325.092 40.4875 325.778 40.1283 326.277 39.5613C326.776 38.9943 327.053 38.2592 327.055 37.4966Z" fill="#073944"/>
<defs>
<linearGradient id="paint0_linear_142_1011" x1="132.519" y1="117.367" x2="132.519" y2="103.39" gradientUnits="userSpaceOnUse">
<stop stop-color="white" stop-opacity="0"/>
<stop offset="0.08" stop-color="white" stop-opacity="0.2"/>
<stop offset="0.17" stop-color="white" stop-opacity="0.38"/>
<stop offset="0.26" stop-color="white" stop-opacity="0.55"/>
<stop offset="0.36" stop-color="white" stop-opacity="0.69"/>
<stop offset="0.46" stop-color="white" stop-opacity="0.8"/>
<stop offset="0.57" stop-color="white" stop-opacity="0.89"/>
<stop offset="0.68" stop-color="white" stop-opacity="0.95"/>
<stop offset="0.82" stop-color="white" stop-opacity="0.99"/>
<stop offset="1" stop-color="white"/>
</linearGradient>
</defs>
</svg>
